<svg xmlns="http://www.w3.org/2000/svg" xmlns:xlink="http://www.w3.org/1999/xlink" width="739" height="857" viewBox="0 0 739 857"><defs><style>.a,.j{fill:#fff;}.b{clip-path:url(#a);}.c{fill:#f77f89;}.c,.d,.e,.f,.g,.h,.j,.m,.n,.o,.r{fill-rule:evenodd;}.d{fill:#6367fd;}.f{fill:#3b4161;}.g{fill:#15192c;}.h{fill:#f7d167;}.i,.k,.l,.p,.q,.s,.t{fill:none;}.i{stroke:#737999;}.i,.k,.l,.n,.p,.q,.s,.t{stroke-linecap:round;stroke-linejoin:round;}.i,.t{stroke-width:1.703px;}.k,.n{stroke:#c9c9c9;stroke-width:2px;}.l{stroke:#353823;}.l,.p,.q,.s{stroke-width:3.406px;}.m{fill:#353823;}.n{fill:#606060;}.o{fill:#c9c9c9;}.p{stroke:#a7464f;}.q{stroke:#a94b53;}.r{fill:#b5545c;}.s{stroke:#fff;}.t{stroke:#4c4fd9;}</style><clipPath id="a"><rect class="a" width="739" height="857" transform="translate(665 974)"/></clipPath></defs><g class="b" transform="translate(-665 -974)"><g transform="translate(809.209 1021.541)"><path class="c" d="M581.154,911.474l17.5,57.6,70.024,2.515L673.36,885Z" transform="translate(-405.768 423.531)"/><path class="d" d="M771.3,923.152l-.028,75.663-189.321,4.274s5.379-54.06,102.185-54.95c-.352-23.756-.4-24.987-.4-24.987Z" transform="translate(-505.306 462.014)"/><path class="c" d="M632.376,905.545l-1.288,56.7L557.971,964.8l-19.006-63.127Z" transform="translate(-280.042 440.355)"/><path class="e" d="M623.008,233.541c-79.56,0-96.03,75.59-96.072,103.349-.044,26.448,5.16,30.491,4.987,57.306-.133,20.363-6.108,34.621-5.5,46.25,3.147,60.273,84.613,77.625,107.861,77.973s124.571-19.255,124.571-66.1c0-32.68-20.8-84.936-20.223-121.246C739.837,255.543,676.815,233.541,623.008,233.541Z" transform="translate(-381.237 -233.541)"/><path class="d" d="M725.693,926.822l-1.075,75.731-185.858,4.19s0-55.207,101.781-56.2V926.822Z" transform="translate(-372.95 465.716)"/><path class="f" d="M804.905,737.058l-.48,529.745-132.8-2.891-1.924-24.525-85.646,11.543L529.686,698.567l29.352-141.459,193.9-5.293Z" transform="translate(-433.934 87.476)"/><path class="g" d="M676.629,756.1l-79.64,133.836L612.1,1043.465l85.8-9.953Z" transform="translate(-462.117 293.522)"/><path class="h" d="M715.5,794.5H574.427L555.315,586.086,580.8,426.357l48.235-46.415L677.411,358.4l87.236,13.351Z" transform="translate(-445.155 -107.607)"/><path class="i" d="M553.059,1190.233l-.918-563.47" transform="translate(-227.191 163.071)"/><path class="j" d="M544.606,357.138c32.982.91,131.47,36.657,145.848,72.927,10.915,27.528,18.427,276.523-7.261,288.675a27.62,27.62,0,0,1-5.14,1.872c1.549,7.635,16.338,184.369,12.574,199.088s-13.613,36.945-27.9,36.109C607.486,952.571,505.97,880,495.875,868.187c-1.541-22.418-5.821-106.62-5.821-106.62l8.8-249.83L549.21,373.968S511.62,356.23,544.606,357.138Z" transform="translate(-249.972 -108.913)"/><path class="j" d="M755.91,356.342c-56.7,7.044-136.749,51.019-147.053,71.037-8.669,16.842-4.266,234.753-4.266,234.753s32.054,44.087,17.644,107.5C608.946,828.123,605,907.085,618.953,921.857c22.975-11.638,52.518-58.264,57.852-69.751s6.691-76.482,10.794-90.432S710.041,501.7,710.041,501.7,718.6,402.335,755.91,356.342Z" transform="translate(-533.149 -109.681)"/><path class="k" d="M648.585,366.76c-28.54,52.055-86.435,111.354-116.185,134" transform="translate(-283.064 -99.174)"/><path class="k" d="M641.45,359.311c-25.421,34.271-31.959,92.5-12.106,151.631" transform="translate(-447.279 -106.687)"/><path class="l" d="M591.968,450.5a22.616,22.616,0,1,0-22.615,22.615A22.616,22.616,0,0,0,591.968,450.5Z" transform="translate(-255.243 -37.526)"/><path class="m" d="M575.344,444.94a11.55,11.55,0,1,0-11.55,11.549A11.55,11.55,0,0,0,575.344,444.94Z" transform="translate(-249.685 -31.969)"/><path class="l" d="M573.253,502.692c15.264-56.061,16.252-134.128-23.161-148.162" transform="translate(-253.063 -111.509)"/><path class="l" d="M649.663,349.789c-22.477,9.523-43.9,53.431-48.926,91.043" transform="translate(-421.406 -116.291)"/><path class="l" d="M688.647,465.96c7.193-34.733-3.656-66.345-24.228-70.6s-43.081,20.448-50.272,55.183,3.658,66.347,24.23,70.607S681.459,500.695,688.647,465.96Z" transform="translate(-485.088 -70.814)"/><path class="k" d="M539.069,403.057l8.675,168.959" transform="translate(-195.619 -62.564)"/><path class="k" d="M553.781,405.566l-22.551,31.4" transform="translate(-185.91 -60.033)"/><path class="n" d="M525.582,480.483l86.68,20.753" transform="translate(-233.047 15.53)"/><path class="k" d="M549.887,479.26,527.73,496.13" transform="translate(-174.987 14.296)"/><path class="k" d="M489.761,687.331c36.468,14.689,123.12,32.254,139.5,17.7,21.89-19.452,28.189-220.342,17.144-273.638-6.426-31-38.776-50.979-55.657-59" transform="translate(-200.57 -93.489)"/><path class="k" d="M551.685,583.052c10.388-13.193,14.376-78.995,9.354-98.744" transform="translate(-236.414 19.388)"/><path class="o" d="M568.564,493.361a5.285,5.285,0,1,0-5.285,5.287A5.286,5.286,0,0,0,568.564,493.361Z" transform="translate(-254.455 23.188)"/><path class="k" d="M523.015,571.011a96.95,96.95,0,0,0,63.28,2.672,32.618,32.618,0,0,1,1.069,7.8v41.956a33.11,33.11,0,1,1-66.22,0V581.486A32.653,32.653,0,0,1,523.015,571.011Z" transform="translate(-199.232 106.838)"/><path class="d" d="M759.513,424.059h-173.2c-10.5,0-16.778,8.213-14.026,18.345l66.841,245.972c2.754,10.131,13.5,18.345,24,18.345h173.2c10.5,0,16.778-8.213,14.024-18.345L783.51,442.4C780.756,432.272,770.014,424.059,759.513,424.059Z" transform="translate(-564.292 -41.381)"/><path class="f" d="M737.9,417.757H639.6c-5.032,0-7.99,3.923-6.608,8.762l4.774,16.714a12.777,12.777,0,0,0,11.614,8.76h98.3c5.032,0,7.99-3.921,6.606-8.76l-4.775-16.714A12.777,12.777,0,0,0,737.9,417.757Z" transform="translate(-590.484 -47.737)"/><path class="c" d="M676.681,518.556c-11.4-6.06-11.4-6.06-24.232-10.571-12.19-9.965-21.149-49.729-24.387-52.148s-14.008-.886-14.394,2.878c-1.406,13.757-.659,29.826,11.525,44.214-35.46-22.549-38.061-32.55-47.912-25s-13.285,44.378-4.9,59.61c23.057,41.9,83.7,47.586,102.271,47.869C679.276,565.431,679.276,541.271,676.681,518.556Z" transform="translate(-383.698 -10.504)"/><path class="i" d="M667.073,889.411,529.906,885" transform="translate(-296.543 423.531)"/><path class="i" d="M597.07,620.2l41.894,550.239" transform="translate(-403.341 156.446)"/><path class="i" d="M685.366,872.122l-86.62,10.154" transform="translate(-453.109 410.544)"/><path class="i" d="M640.473,797.052q1.777.175,3.605.177a36.027,36.027,0,1,0-10.461-70.513" transform="translate(-517.894 262.332)"/><path class="i" d="M593.7,813.132a39.756,39.756,0,0,0-2.181-79.451q-1.928,0-3.808.181" transform="translate(-376.838 270.91)"/><path class="p" d="M605.664,471.635l31.019,24.837" transform="translate(-418.323 6.605)"/><path class="p" d="M603.166,484.431l39.421,31.338" transform="translate(-419.209 19.512)"/><path class="c" d="M711.317,514.448c.488-8.282-1.926-26.648-9.356-44.168-2.7-6.353-2.86-16.786,6.6-16.786,10.77,0,25.18,21.6,18.025,47.331S710.628,526.144,711.317,514.448Z" transform="translate(-700.365 -11.692)"/><path class="c" d="M721.538,459.632c-8.547,0-34.566,51.467-34.376,57.708s2.88,15.746,6.914,15.266,37.83-43.5,37.83-58.089C731.906,466.066,727.784,459.632,721.538,459.632Z" transform="translate(-677.242 -5.501)"/><path class="c" d="M720.991,474.355c-10.656,0-38.8,41.01-38.987,45.716s5.477,9.015,10.184,9.206,38.309-27.361,38.309-40.23C730.5,481.279,727.043,474.355,720.991,474.355Z" transform="translate(-665.463 9.349)"/><path class="c" d="M704.407,529.19c-4.6-.219-17.475-11.714-17.475-20.741,0-3.553,8.979-12.759,13.492-12.472s13.681,17.561,13.488,21.978S710.455,529.477,704.407,529.19Z" transform="translate(-658.789 31.151)"/><path class="p" d="M718.588,469.1c-9.22,15.35-18.337,34.98-18.222,38.686" transform="translate(-690.446 4.05)"/><path class="q" d="M722.449,475.854c-12.687,9.555-32.317,38.776-32.477,42.705" transform="translate(-673.431 10.861)"/><path class="c" d="M716.124,333.84c0-45.981-36.78-83.255-82.154-83.255s-82.153,37.274-82.153,83.255S588.6,417.1,633.97,417.1,716.124,379.822,716.124,333.84Z" transform="translate(-389.605 -216.35)"/><path class="r" d="M597.953,299.418c-.874-5.315-4.075-9.214-7.151-8.707s-4.861,5.222-3.987,10.535,4.074,9.214,7.149,8.709S598.825,304.732,597.953,299.418Z" transform="translate(-341.509 -175.924)"/><path class="r" d="M628.016,301.1c-.816-4.963-3.8-8.6-6.677-8.133s-4.54,4.879-3.724,9.842,3.8,8.6,6.677,8.131S628.831,306.066,628.016,301.1Z" transform="translate(-433.451 -173.642)"/><path class="c" d="M659.283,311.629c-4.883,13.572-17.146,84.139-14.068,109.763-12.871,19.492-70.153,13.962-87.226-2.42,8.49-23.726,8.83-40.737,5.7-60.743C560.759,339.5,664.162,298.055,659.283,311.629Z" transform="translate(-345.328 -157.484)"/><path class="e" d="M548.6,254.579c-.695,19.779,17.349,38.69,66.447,48.06-5.377,13.878-5.821,34.761,20.992,38.513,31.274,4.379,33.833-35.567,33.833-35.567l-46.845-55.344S549.288,234.8,548.6,254.579Z" transform="translate(-336.839 -222.483)"/><path class="e" d="M673.6,243.892c1.942,17.587-18.218,60.2-65.063,61.418C575.227,305.324,671.657,226.307,673.6,243.892Z" transform="translate(-447.098 -225.676)"/><path class="j" d="M680.466,361.962c4.485-5.684-2.081-31.6-9.113-43.47-8.555-5.048-38.9-.838-54.548-14.3-4.61-3.969-7.074-1.034-10.656,3.366-6.283,7.711-25.19,11.708-32.253,16.127-1.034,11.25,9.29,36.991,13.741,42.765C594.634,375.526,658.522,376.337,680.466,361.962Z" transform="translate(-399.621 -164.171)"/><path class="s" d="M567.221,334.468c4.152-6.916,22.217-37.826,27.986-45.66" transform="translate(-299.629 -177.798)"/><path class="s" d="M554.113,356.856c12.237,0,41.3-38.268,44.632-51.105" transform="translate(-276.837 -160.709)"/><path class="c" d="M598.382,308.878A26.783,26.783,0,1,0,571.6,335.661,26.783,26.783,0,0,0,598.382,308.878Z" transform="translate(-257.801 -184.567)"/><path class="t" d="M539.19,958.33l180.495-1.247" transform="translate(-367.803 496.238)"/><path class="t" d="M581.154,989.622c4.969-15.7,24.365-46.433,100.07-47.168v-7.611" transform="translate(-413.631 473.806)"/><path class="t" d="M573.29,946.721a34.088,34.088,0,0,0-34.1,34.084c0,.908.034,1.8.1,2.669" transform="translate(-221.409 485.786)"/><path class="t" d="M599.957,954.961l-8.842-15.342" transform="translate(-352.373 478.623)"/><path class="t" d="M609.041,956.628l-7.554-15.067" transform="translate(-382.291 480.582)"/><path class="t" d="M617.872,957.152l-6.564-12.194" transform="translate(-410.848 484.008)"/><path class="i" d="M687.259,586.665l-93.807-2.947" transform="translate(-444.369 119.654)"/><path class="t" d="M623.843,932.37l-85.013-1.384" transform="translate(-271.238 469.916)"/><path class="t" d="M669.373,927.906l-87.421-.7" transform="translate(-403.384 466.102)"/><path class="t" d="M627.53,957.407l93.24-2.087" transform="translate(-546.33 494.46)"/><path class="t" d="M635.444,936.6l8,14.3" transform="translate(-484.898 475.575)"/><path class="t" d="M642.116,938.189l8,14.315" transform="translate(-504.974 477.181)"/><path class="t" d="M649.237,940.156l8,14.3" transform="translate(-526.398 479.165)"/><path class="k" d="M494.9,753.515c30.1,12.61,52.755-9.868,52.929-32.224s-8.649-155.19-9.852-168.453" transform="translate(-106.981 88.508)"/><path class="k" d="M645.752,445.319c-1.575-45.481,46.323-66.361,66.015-75.211" transform="translate(-573.852 -95.797)"/><path class="k" d="M675.449,691.192c-3.766-24.234-4.061-89.835,2.312-114.875" transform="translate(-594.181 112.19)"/></g></g></svg>