<svg xmlns="http://www.w3.org/2000/svg" xmlns:xlink="http://www.w3.org/1999/xlink" width="714" height="813" viewBox="0 0 714 813"><defs><style>.a{fill:none;}.b{clip-path:url(#a);}.c{fill:#b2b0be;}.d{fill:#fff;}.e{fill:#ff7446;}.f{fill:#483342;}.g{fill:#898988;}.h{fill:#33292f;}.i{fill:#2c0422;}.j{fill:#4185bf;}.k{fill:#dde9f3;}.l{fill:#0087fc;}.m,.s{fill-rule:evenodd;}.m{fill:url(#b);}.n{fill:#0074d9;}.o{fill:#0065bd;}.p{fill:#001e6e;}.q{fill:#334b8b;}.r{fill:#6678a8;}.s{fill:url(#c);}.t{fill:#b26953;}.u{fill:#ff451f;}.v{fill:#ff916c;}.w{fill:#0b0080;}.x{fill:#080060;}.y{fill:#6f81a6;}.z{fill:#53617d;}.aa{fill:#f2f9ff;}.ab{fill:#339ffd;}.ac{fill:#fcb500;}.ad{fill:#fcc332;}.ae{fill:#fc9700;}</style><clipPath id="a"><rect class="a" width="714" height="813" transform="translate(924 1296)"/></clipPath><linearGradient id="b" x1="0.072" y1="0.501" x2="1.009" y2="0.501" gradientUnits="objectBoundingBox"><stop offset="0" stop-color="#4584cc"/><stop offset="1" stop-color="#6ca6d9"/></linearGradient><linearGradient id="c" y1="0.501" x2="1" y2="0.501" gradientUnits="objectBoundingBox"><stop offset="0" stop-color="#9d6662"/><stop offset="1" stop-color="#f7946e"/></linearGradient></defs><g class="b" transform="translate(-924 -1296)"><g transform="translate(-3041.133 599.998)"><path class="c" d="M27880.535,11782.793h-36.322l17.984-21.453Zm-37.809-50.766h38.66l-19.119,22.8-19.471-22.8Zm44.109,0h1.418v-1.7l.211-.283-.211-.143v-2.9H27836v5.1h1.133l22.3,26.056-20.746,24.71h-1.984v5.1h50.838v-5.1h-1.486l-21.1-24.71,21.879-26.056Z" transform="translate(-23749.74 -10499.95)"/><path class="c" d="M27880.535,12575.793h-36.322l17.984-21.453Zm-37.809-50.767h38.66l-19.119,22.8-19.471-22.8Zm44.109,0h1.418v-1.7l.211-.283-.211-.142v-2.9H27836v5.1h1.133l22.3,26.055-20.746,24.711h-1.984v5.1h50.838v-5.1h-1.486l-21.1-24.711,21.879-26.055Z" transform="translate(-23749.74 -11236.804)"/><path class="c" d="M27862.268,9383.41l17.984,21.453h-36.322Zm0-6.514-19.115-22.8h38.656l-19.469,22.8Zm-2.76,3.257-21.1,24.71h-1.488v5.1h50.838v-5.1h-1.982l-20.746-24.71,22.3-26.056h1.133V9349h-52.252v2.9l-.213.142.213.283v1.7h1.416l21.879,26.056Z" transform="translate(-23749.74 -8290.32)"/><path class="c" d="M27862.268,10176.41l17.984,21.453h-36.322Zm0-6.514-19.115-22.8h38.656l-19.469,22.8Zm-2.76,3.258-21.1,24.709h-1.488v5.1h50.838v-5.1h-1.982l-20.746-24.709,22.3-26.057h1.133v-5.1h-52.252v2.9l-.213.213.213.283v1.7h1.416Z" transform="translate(-23749.74 -9027.174)"/><path class="c" d="M27862.268,10968.41l17.984,21.453h-36.322Zm0-6.514-19.115-22.8h38.656l-19.469,22.8Zm-2.76,3.257-21.1,24.71h-1.488v5.1h50.838v-5.1h-1.982l-20.746-24.71,22.3-26.056h1.133v-5.1h-52.252v2.9l-.213.213.213.283v1.7h1.416Z" transform="translate(-23749.74 -9763.098)"/><path class="c" d="M29503.293,9287.33h90.273a7.267,7.267,0,0,0,7.293-7.223v-12.886a7.222,7.222,0,0,0-7.293-7.222h-90.273a7.268,7.268,0,0,0-7.293,7.222v12.886A7.223,7.223,0,0,0,29503.293,9287.33Z" transform="translate(-25292.205 -8207.622)"/><path class="d" d="M31296.154,13157.468h-16.143a6.983,6.983,0,0,1-7.012-7.01v-62.448a6.982,6.982,0,0,1,7.012-7.01h16.143a6.98,6.98,0,0,1,7.01,7.01v62.448A7.027,7.027,0,0,1,31296.154,13157.468Z" transform="translate(-26943.389 -11758.082)"/><path class="d" d="M31296.154,14405.468h-16.143a6.982,6.982,0,0,1-7.012-7.009v-62.449a6.982,6.982,0,0,1,7.012-7.01h16.143a6.98,6.98,0,0,1,7.01,7.01v62.449A7.026,7.026,0,0,1,31296.154,14405.468Z" transform="translate(-26943.389 -12917.72)"/><path class="d" d="M30375.842,13157.468h-2.83a6.983,6.983,0,0,1-7.012-7.01v-62.448a6.982,6.982,0,0,1,7.012-7.01h2.83a6.98,6.98,0,0,1,7.01,7.01v62.448A6.981,6.981,0,0,1,30375.842,13157.468Z" transform="translate(-26100.607 -11758.082)"/><path class="d" d="M30375.842,14405.468h-2.83a6.982,6.982,0,0,1-7.012-7.009v-62.449a6.982,6.982,0,0,1,7.012-7.01h2.83a6.98,6.98,0,0,1,7.01,7.01v62.449A6.98,6.98,0,0,1,30375.842,14405.468Z" transform="translate(-26100.607 -12917.72)"/><path class="d" d="M30375.842,15653.467h-2.83a6.981,6.981,0,0,1-7.012-7.009v-62.448a6.982,6.982,0,0,1,7.012-7.01h2.83a6.98,6.98,0,0,1,7.01,7.01v62.448A6.98,6.98,0,0,1,30375.842,15653.467Z" transform="translate(-26100.607 -14077.357)"/><path class="d" d="M30375.842,16902.469h-2.83a6.984,6.984,0,0,1-7.012-7.012v-62.447a6.982,6.982,0,0,1,7.012-7.01h2.83a6.98,6.98,0,0,1,7.01,7.01v62.447A6.982,6.982,0,0,1,30375.842,16902.469Z" transform="translate(-26100.607 -15237.924)"/><path class="d" d="M30375.842,18150.469h-2.83a6.984,6.984,0,0,1-7.012-7.012v-62.445a6.982,6.982,0,0,1,7.012-7.012h2.83a6.981,6.981,0,0,1,7.01,7.012v62.445A6.982,6.982,0,0,1,30375.842,18150.469Z" transform="translate(-26100.607 -16397.563)"/><path class="d" d="M30375.842,19398.469h-2.83a6.984,6.984,0,0,1-7.012-7.012v-62.447a6.982,6.982,0,0,1,7.012-7.01h2.83a6.98,6.98,0,0,1,7.01,7.01v62.447A6.982,6.982,0,0,1,30375.842,19398.469Z" transform="translate(-26100.607 -17557.199)"/><path class="d" d="M30375.842,20647.467h-2.83a6.982,6.982,0,0,1-7.012-7.01v-62.449a6.982,6.982,0,0,1,7.012-7.008h2.83a6.98,6.98,0,0,1,7.01,7.008v62.449A6.98,6.98,0,0,1,30375.842,20647.467Z" transform="translate(-26100.607 -18717.766)"/><path class="d" d="M31143.533,15087.2h25.064a4.519,4.519,0,0,0,4.531-4.531v-9.134a4.564,4.564,0,0,0-4.531-4.531h-25.064a4.519,4.519,0,0,0-4.533,4.531v9.134A4.565,4.565,0,0,0,31143.533,15087.2Z" transform="translate(-26818.877 -13605.325)"/><path class="d" d="M32297.531,15087.2h25.063a4.518,4.518,0,0,0,4.533-4.531v-9.134a4.563,4.563,0,0,0-4.533-4.531h-25.062a4.516,4.516,0,0,0-4.531,4.531v9.134A4.563,4.563,0,0,0,32297.531,15087.2Z" transform="translate(-27891.17 -13605.325)"/><path class="d" d="M31720.531,15087.2h25.063a4.563,4.563,0,0,0,4.533-4.531v-9.134a4.563,4.563,0,0,0-4.533-4.531h-25.062a4.516,4.516,0,0,0-4.531,4.531v9.134A4.563,4.563,0,0,0,31720.531,15087.2Z" transform="translate(-27355.023 -13605.325)"/><path class="d" d="M31143.533,15760.2h25.064a4.519,4.519,0,0,0,4.531-4.531v-9.135a4.519,4.519,0,0,0-4.531-4.531h-25.064a4.519,4.519,0,0,0-4.533,4.531v9.135A4.519,4.519,0,0,0,31143.533,15760.2Z" transform="translate(-26818.877 -14230.675)"/><path class="d" d="M32297.531,15760.2h25.063a4.518,4.518,0,0,0,4.533-4.531v-9.135a4.518,4.518,0,0,0-4.533-4.531h-25.062a4.516,4.516,0,0,0-4.531,4.531v9.135A4.517,4.517,0,0,0,32297.531,15760.2Z" transform="translate(-27891.17 -14230.675)"/><path class="d" d="M31720.531,15760.2h25.063a4.563,4.563,0,0,0,4.533-4.531v-9.135a4.518,4.518,0,0,0-4.533-4.531h-25.062a4.516,4.516,0,0,0-4.531,4.531v9.135A4.517,4.517,0,0,0,31720.531,15760.2Z" transform="translate(-27355.023 -14230.675)"/><path class="d" d="M32297.531,16432.2h25.063a4.517,4.517,0,0,0,4.533-4.531v-9.133a4.517,4.517,0,0,0-4.533-4.531h-25.062a4.517,4.517,0,0,0-4.531,4.531v9.133A4.562,4.562,0,0,0,32297.531,16432.2Z" transform="translate(-27891.17 -14855.095)"/><path class="d" d="M31720.531,16432.2h25.063a4.563,4.563,0,0,0,4.533-4.531v-9.133a4.517,4.517,0,0,0-4.533-4.531h-25.062a4.517,4.517,0,0,0-4.531,4.531v9.133A4.562,4.562,0,0,0,31720.531,16432.2Z" transform="translate(-27355.023 -14855.095)"/><path class="d" d="M32874.531,17105.2h25.063a4.515,4.515,0,0,0,4.531-4.529v-9.135a4.562,4.562,0,0,0-4.531-4.531h-25.062a4.517,4.517,0,0,0-4.531,4.531v9.135A4.563,4.563,0,0,0,32874.531,17105.2Z" transform="translate(-28427.316 -15480.444)"/><path class="d" d="M32297.531,17105.2h25.063a4.517,4.517,0,0,0,4.533-4.529v-9.135a4.564,4.564,0,0,0-4.533-4.531h-25.062a4.517,4.517,0,0,0-4.531,4.531v9.135A4.562,4.562,0,0,0,32297.531,17105.2Z" transform="translate(-27891.17 -15480.444)"/><path class="d" d="M32874.531,17777.2h25.063a4.516,4.516,0,0,0,4.531-4.531v-9.135a4.517,4.517,0,0,0-4.531-4.531h-25.062a4.517,4.517,0,0,0-4.531,4.531v9.135A4.518,4.518,0,0,0,32874.531,17777.2Z" transform="translate(-28427.316 -16104.865)"/><path class="d" d="M32297.531,17777.2h25.063a4.517,4.517,0,0,0,4.533-4.531v-9.135a4.519,4.519,0,0,0-4.533-4.531h-25.062a4.517,4.517,0,0,0-4.531,4.531v9.135A4.517,4.517,0,0,0,32297.531,17777.2Z" transform="translate(-27891.17 -16104.865)"/><path class="d" d="M32874.531,18450.2h25.063a4.517,4.517,0,0,0,4.531-4.531v-9.135a4.561,4.561,0,0,0-4.531-4.531h-25.062a4.516,4.516,0,0,0-4.531,4.531v9.135A4.565,4.565,0,0,0,32874.531,18450.2Z" transform="translate(-28427.316 -16730.213)"/><path class="d" d="M32874.531,19122.2h25.063a4.515,4.515,0,0,0,4.531-4.531v-9.133a4.562,4.562,0,0,0-4.531-4.531h-25.062a4.517,4.517,0,0,0-4.531,4.531v9.133A4.517,4.517,0,0,0,32874.531,19122.2Z" transform="translate(-28427.316 -17354.635)"/><path class="d" d="M32874.531,19795.2h25.063a4.515,4.515,0,0,0,4.531-4.531v-9.133a4.516,4.516,0,0,0-4.531-4.531h-25.062a4.517,4.517,0,0,0-4.531,4.531v9.133A4.562,4.562,0,0,0,32874.531,19795.2Z" transform="translate(-28427.316 -17979.984)"/><path class="d" d="M32874.531,20467.2h25.063a4.516,4.516,0,0,0,4.531-4.531v-9.133a4.562,4.562,0,0,0-4.531-4.531h-25.062a4.517,4.517,0,0,0-4.531,4.531v9.133A4.564,4.564,0,0,0,32874.531,20467.2Z" transform="translate(-28427.316 -18604.404)"/><path class="d" d="M32874.531,21140.2h25.063a4.515,4.515,0,0,0,4.531-4.531v-9.133a4.516,4.516,0,0,0-4.531-4.531h-25.062a4.517,4.517,0,0,0-4.531,4.531v9.133A4.517,4.517,0,0,0,32874.531,21140.2Z" transform="translate(-28427.316 -19229.752)"/><path class="d" d="M32874.531,21813.2h25.063a4.515,4.515,0,0,0,4.531-4.531v-9.133a4.562,4.562,0,0,0-4.531-4.531h-25.062a4.517,4.517,0,0,0-4.531,4.531v9.133A4.562,4.562,0,0,0,32874.531,21813.2Z" transform="translate(-28427.316 -19855.102)"/><path class="d" d="M32874.531,22485.2h25.063a4.515,4.515,0,0,0,4.531-4.531v-9.133a4.562,4.562,0,0,0-4.531-4.531h-25.062a4.517,4.517,0,0,0-4.531,4.531v9.133A4.562,4.562,0,0,0,32874.531,22485.2Z" transform="translate(-28427.316 -20479.521)"/><path class="d" d="M32874.531,23158.2h25.063a4.515,4.515,0,0,0,4.531-4.529v-9.135a4.517,4.517,0,0,0-4.531-4.531h-25.062a4.516,4.516,0,0,0-4.531,4.531v9.135A4.517,4.517,0,0,0,32874.531,23158.2Z" transform="translate(-28427.316 -21104.871)"/><path class="d" d="M32874.531,23830.2h25.063a4.516,4.516,0,0,0,4.531-4.531v-9.133a4.562,4.562,0,0,0-4.531-4.531h-25.062a4.517,4.517,0,0,0-4.531,4.531v9.133A4.564,4.564,0,0,0,32874.531,23830.2Z" transform="translate(-28427.316 -21729.293)"/><path class="e" d="M30021.2,23756.293s2.9,19.613-18.2,29.809-40,20.391-40,32,130.916,7.291,130.916,0-24.711-69.105-24.711-69.105Z" transform="translate(-25726.141 -21670.754)"/><path class="e" d="M32912,23584.508V23626s48,32.713,92.4,32.713c0,0,35.688,1.275,35.688-8.072s-24.781-26.48-54.8-41.137c-29.949-14.656-28.676-48.5-28.676-48.5l-44.605,7.506Z" transform="translate(-28466.342 -21496.064)"/><path class="f" d="M29998.689,14659.193c-14.162-71.3-244.482-48.076-241.156,8.708,0,0,7.293,139.7,21.807,293.905s43.615,314.295,43.615,314.295h63.723s-35.049-494.985-17.912-512.119a23.425,23.425,0,0,1,15.363-7.223c13.1-.85,24.426,9.275,26.127,22.3l66.979,502.846,58.2-5.807S30012.922,14730.492,29998.689,14659.193Z" transform="translate(-25535.189 -13183.27)"/><path class="g" d="M33157.5,15215.053v0Zm-.07-.424Zm-.215-.85v0Zm-.211-.708v0Z" transform="translate(-28693.996 -13739.13)"/><path class="h" d="M29880.238,14815.653c-60.395,0-78.168-39.792-78.238-40.075,4.105-7.08,12.035-13.452,22.586-18.975,15.365,4.956,34.906,7.15,55.936,7.15,40.357,0,86.381-8,120.225-19.754,20.18,6.8,34.764,17.63,38.869,33.137v.07c.072.213.143.425.213.637v.07c.072.285.143.567.211.851h0a.419.419,0,0,0,.072.283v.142h0c.143.85.354,1.7.5,2.69-32.639,26.835-110.453,33.773-160.3,33.773Z" transform="translate(-25576.541 -13303.337)"/><path class="i" d="M29963.947,14343c-34.693,38.518-209.719,67.688-226.287,8.639-.07-.213-.07-.354-.141-.566-.07,14.373-1.062,47.58,4.461,51.969,40,31.295,184.016,15.789,220.693-20.816,8.355-8.354,1.346-39.225,1.346-39.225Z" transform="translate(-25516.52 -12930.729)"/><path class="j" d="M30408.893,14825.447h-70.8a6.135,6.135,0,0,1-6.09-6.09v-34.269a6.089,6.089,0,0,1,6.09-6.089h70.8a6.087,6.087,0,0,1,6.088,6.089v34.269A6.088,6.088,0,0,1,30408.893,14825.447Z" transform="translate(-26069.016 -13335.858)"/><path class="k" d="M30477.723,14934.809h-57.633a6.135,6.135,0,0,1-6.09-6.09v-17.63a6.089,6.089,0,0,1,6.09-6.089h57.633a6.09,6.09,0,0,1,6.09,6.089v17.63A6.09,6.09,0,0,1,30477.723,14934.809Z" transform="translate(-26145.209 -13452.938)"/><path class="l" d="M29679.723,8342.684c-5.807,0-71.371,359.469-53.812,415.688,18.41,58.979,212.129,29.809,250.5-8.709,40.215-40.357,8.426-159.1,8.426-215.455s52.395-162.776,34.906-184.018c-17.488-21.312-62.309-32.994-85.816-33.207C29806.389,8316.771,29685.527,8342.684,29679.723,8342.684Z" transform="translate(-25410.15 -7331.373)"/><path class="m" d="M33430.754,12544.658Zm-.074-.92Zm-.141-2.336Zm-.07-.426v0Zm0-.5v0Zm-.07-.425v0Zm-.07-.5v0Zm0-.5v0Zm-.07-.5v0Zm-.074-.425v0Zm0-.424v0Zm-.066-.426v0Zm-.074-.425v0Zm-.07-.5v0Zm0-.5v0Zm-.07-.5v0Zm-.07-.5v0Zm-.07-.5c0-.426-.074-.779-.074-1.2A6.542,6.542,0,0,1,33429.762,12534.393Zm-.074-1.2a1.276,1.276,0,0,0-.066-.5C33429.621,12532.834,33429.688,12532.977,33429.688,12533.189Zm-.066-.5c-.711-8.922-1.7-17.843-2.621-26.693h0C33427.992,12514.851,33428.91,12523.771,33429.621,12532.693Z" transform="translate(-28944.879 -11223.794)"/><path class="n" d="M29799.777,9399.674h-.85l-174.6-6.514c-3.047-77.317,49.42-368.957,55.012-369.947a15.5,15.5,0,0,1,2.551-.213c10.973,0,25.348,10.621,28.32,20.32l68.254,202.428c23.791,1.7,75.406,5.31,78.309,5.31,1.418,0,17.348,8.284,36.891,18.622.99,8.85,1.91,17.771,2.619,26.691h0c0,.143.072.354.072.5h0a7.122,7.122,0,0,1,.068,1.2v3.823a.52.52,0,0,0,.072.354v1.063a.9.9,0,0,0,.07.425v.071a.9.9,0,0,0,.07.424v.566a.908.908,0,0,0,.07.426h0c.07.778.07,1.558.143,2.336h0c0,.283.07.638.07.92h0c.426,7.151.709,14.3.779,21.171-30.445-19.4-73.566-46.306-83.2-49.7-5.1-1.77-11.469-2.407-17.77-2.407-2.621,0-5.312.142-7.789.283l31.789,94.239c4.25,13.877-6.512,27.684-21.238,27.684Z" transform="translate(-25411.33 -7987.403)"/><path class="o" d="M30173.326,8907.843a3.106,3.106,0,0,0-2.336-4.036,3.754,3.754,0,0,0-4.6,2.054c-.283.778-29.949,81.212-47.65,174.317-23.01,120.861-16.426,206.676,19.541,255.176,3.117.354,6.3.566,9.488.85-37.312-45.526-44.961-133.605-21.807-254.821,17.629-92.681,47.084-172.689,47.438-173.468Z" transform="translate(-25858.373 -7876.493)"/><path class="p" d="M29419.105,24167.906s1.7,10.123,5.947,27.328a73.073,73.073,0,0,1,0,32.924s-176.158-2.266-182.885-8.213c-6.8-6.02-1.91-26.057,0-27.684,1.912-1.7,24.57-6.373,36.395-12.746s52.465-30.656,65.633-28.816c13.1,1.84,18.621,11.965,43.615,14.586s25.418-2.621,31.365,2.621Z" transform="translate(-25053.102 -22043.918)"/><path class="q" d="M29240.238,24766.684c6.8,6.02,182.887,8.215,182.887,8.215a73.829,73.829,0,0,0,1.559-23.367C29332,24763,29240.168,24739,29240.168,24739c-1.912,1.7-6.8,21.736,0,27.684Z" transform="translate(-25051.242 -22590.658)"/><path class="r" d="M29470.514,24751.531c-63.369,8.711-132.615,1.912-184.514-12.531,94.734,20.18,172.477,13.666,167.1,13.879.213,0,18.549-1.418,17.346-1.275Z" transform="translate(-25097.074 -22590.658)"/><path class="p" d="M32705.814,24205.48s-2.264,9.982-7.576,26.9a73.021,73.021,0,0,0-1.91,32.854s175.945,8.143,183.1,2.547c7.082-5.592,3.4-25.842,1.629-27.684-1.844-1.77-24.145-7.789-35.617-14.867s-50.621-33.7-63.793-32.641c-13.238,1.133-19.328,10.832-44.393,12.035-25.064,1.133-25.205-4.105-31.437.779Z" transform="translate(-28264.971 -22082.91)"/><path class="q" d="M32879.426,24892.684c-7.152,5.594-183.1-2.547-183.1-2.547a72.808,72.808,0,0,1-.213-23.437c91.83,16.922,184.939-1.7,184.939-1.7C32882.824,24866.77,32886.508,24887.09,32879.426,24892.684Z" transform="translate(-28264.973 -22707.736)"/><path class="r" d="M32706.332,24866.7c62.734,12.461,132.262,9.7,184.941-1.7-95.8,14.586-172.975,3.469-167.664,4.037C32723.4,24868.965,32705.2,24866.559,32706.332,24866.7Z" transform="translate(-28275.189 -22707.736)"/><path class="e" d="M30776,7335.551l12.816,103.939,80.787-46.518L30826.129,7317Z" transform="translate(-26481.578 -6402.193)"/><path class="s" d="M30776,7335.551l1.559-.566Zm8.285-3.045h0l10.551-3.894h0Zm19.684-7.293h0l22.16-8.213h0Z" transform="translate(-26481.578 -6402.193)"/><path class="t" d="M31043,7436.328Zm9.063-3.328Z" transform="translate(-26729.674 -6509.98)"/><path class="t" d="M30798,7443.7h0l6.727-2.478h0Zm17.277-6.372h0l9.063-3.328h0Z" transform="translate(-26502.021 -6510.909)"/><path class="u" d="M30783.082,7393.688l-7.082-57.209,1.559-.566,6.727-2.478,10.551-3.894h0l9.063-3.328h0l22.16-8.213h0l9.842,17.559c-8.992,21.454-22.516,41.42-35.967,50.625a57.721,57.721,0,0,1-16.994,7.5Z" transform="translate(-26481.578 -6403.122)"/><path class="v" d="M30147.621,5760.121s-2.48-.992-16.852,18.621c-10.2,14.019-16.355,30.729-22.73,46.73-9.484,23.79-17.416,49.7-10.266,75.193,3.754,13.382,57.564,17.064,79.23,5.523s41.773-48.571,40.428-74.91C30216.158,5804.939,30157.25,5754.952,30147.621,5760.121Z" transform="translate(-25848.809 -4955.201)"/><path class="w" d="M30110.184,5465.646c3.328,7.08,8.922,8.992,25.7,9.275,21.666.425,43.119-16,48.572-45.951,1.91-10.479,9.559-28.18,8.992-36.889-4.25-67.759-81.709-78.1-101.463-85.885-8.354-3.257-14.939-.566-19.824,4.106-7.93,7.505-18.551,11.258-29.385,9.488-4.672-.779-17.2-1.062-20.6,6.16-9.7,20.6-9.982,41.986,26.623,41.986,82.91,0,55.014,84.186,61.387,97.78Z" transform="translate(-25775.969 -4532.43)"/><path class="x" d="M30190.012,5512.171a32.731,32.731,0,0,1-7.434-.354c-3.328-.566-10.41-.85-15.578,1.487,12.25,9.771,43.121,27.259,80.291,45.031,36.746,17.559,69.459,30.374,85.035,33.914a30.011,30.011,0,0,0,.92-8.142,6.913,6.913,0,0,1-.07-1.2c-13.877-10.125-42.836-26.268-77.246-42.694C30230.582,5528.172,30207.215,5518.26,30190.012,5512.171Z" transform="translate(-25915.697 -4724.456)"/><path class="v" d="M31199,6671.28s1.629-23.223,13.809-19.258,16.922,28.817,5.734,34.057S31199,6671.21,31199,6671.21Z" transform="translate(-26874.627 -5783.875)"/><path class="y" d="M26206.9,8995.291s5.523-4.532-8.637-9.914c-8.637-3.326-18.338-4.389-27.824-3.893-10.551.566-26.129,1.486-30.52,6.867-.492.637,30.73,158.6,30.73,158.6h76.539Z" transform="translate(-22173.744 -7948.718)"/><path class="z" d="M26354.383,9072s-21.949.143-24.57,11.045c-.85,3.541,36.465,39.084,36.465,39.084Z" transform="translate(-22350.184 -8032.933)"/><path class="o" d="M26330,9141.585s35.258,5.735,54.52-6.585l72.5,328.953h-14.654l-112.295-322.3Z" transform="translate(-22350.369 -8091.473)"/><path class="aa" d="M26444.141,9035.3a20.743,20.743,0,0,0-23.508-14.515c-48.5,8.638-180.336,31.012-227.35,27.968-58.129-3.753-67.191-24.145-67.191-24.145s-8.426,11.611,22.232,139.7c23.152,96.717,44.463,165.326,53.527,193.08a20.685,20.685,0,0,0,18.9,14.232l298.508,11.471a20.721,20.721,0,0,0,20.676-26.623l-95.8-321.234Z" transform="translate(-22159.914 -7985.043)"/><path class="d" d="M26539.875,9356.531l-95.8-321.234a20.74,20.74,0,0,0-23.506-14.515c-48.5,8.638-180.336,31.012-227.35,27.968-58.129-3.753-67.191-24.145-67.191-24.145s-5.807,8,9.7,83.689c48.643,2.337,177.574-19.541,225.367-28.037a20.623,20.623,0,0,1,23.438,14.514l85.457,286.541,49.211,1.912a20.717,20.717,0,0,0,20.672-26.622Z" transform="translate(-22159.854 -7985.043)"/><path class="l" d="M33436.773,8978.612c-3.4-10.337,0-9.134,0-21.383s-18.48-19.046-21.1-27.259c-20.887-65.564-58.77-134.951-73.566-149.749C33333.4,8771.513,33306,8921.9,33306,8921.9s39.086,70.521,42.27,94.877c30.02-3.187,69.742,3.186,99.691,8.355,0,0,7.152-20.533,7.152-30.021,0-9.559-14.871-6.089-18.34-16.426Z" transform="translate(-28832.445 -7761.476)"/><path class="ab" d="M33683,11603.381s3.188,24.428,14.871,26.339,99.688,61.669,112.859,63.3c13.168,1.558,4.6-77.812,2.9-86.946s-14.727-10.479-43.332-12.107S33683,11568.333,33683,11603.381Z" transform="translate(-29182.752 -10367.48)"/><path class="e" d="M30871.529,11447.367c6.088-41.279-19.9-80.434-60.041-91.9-50.482-14.444-119.516-26.269-136.793-31.084-21.736-6.088-70.023-15.859-87.512-22.09s-39.367,6.584-53.387,3.752c-14.09-2.832-8.141,11.258,4.672,11.258s27.189-4.39,27.189,0-22.16,5.947-38.447,2.479c-16.213-3.469-16.213-3.469-16.213,1.841s23.721,16.567,55.3,12.532c0,0,7.363,1.416,5.027,3.752s-38.447-4.389-48.43,0-3.754,12.179,19.965,14.091c23.719,1.841,28.746.282,30.3,4.39,1.559,4.035-35.332-3.115-37.172,2.832-1.912,5.947,49.066,17.205,58.414,15.647,5.592-.921,29.17-.708,47.152-.354a42.181,42.181,0,0,1,20.746,5.947c39.652,23.578,191.1,110.949,206.25,78.381a41.356,41.356,0,0,0,2.9-11.329Z" transform="translate(-26235.34 -10103.704)"/><path class="ac" d="M30519.98,4943.863c18.48-38.729,65.211-55.085,104.293-36.393,39.154,18.622,55.863,65.21,37.385,103.939-.709,1.487-1.486,2.974-2.266,4.39l-141.395-67.4C30518.637,4946.907,30519.273,4945.35,30519.98,4943.863Z" transform="translate(-26241.844 -4156.077)"/><path class="ad" d="M30549.363,4961.968c.637-1.487,1.273-3.044,1.984-4.531,15.434-32.357,50.553-49.067,84.467-42.836a74.519,74.519,0,0,0-11.541-6.727c-39.082-18.621-85.812-2.336-104.293,36.393-.707,1.487-1.344,2.974-1.982,4.531l141.395,67.405c.283-.5.494-.921.779-1.417Z" transform="translate(-26241.844 -4156.482)"/><path class="ae" d="M30109.43,5386.595c1.488-3.187,40.855,12.461,87.938,34.906s83.973,43.19,82.486,46.305c-1.486,3.186-40.854-12.461-87.937-34.906S30107.943,5389.71,30109.43,5386.595Z" transform="translate(-25862.164 -4608.084)"/><path class="e" d="M26726.99,12108.486c-2.619-5.381-23.648,23.506-24.852,22.232-4.389-4.391,28.252-28.18,22.162-33.065-5.594-4.46-27.9,19.754-28.959,17.56-1.7-3.47,28.889-21.453,19.824-26.905-3.326-1.983-20.674,13.735-23.436,13.382-.637-.071,3.965-10.9,8.285-17.914,3.043-5.027-3.328-6.088-4.6-5.238-4.674,3.327-10.053,14.868-10.834,21.17-3.4,27.047,20.039,44.252,20.039,44.252.424.424,25.064-30.233,22.445-35.543Z" transform="translate(-22679.529 -10826.353)"/></g></g></svg>