<svg xmlns="http://www.w3.org/2000/svg" width="45.572" height="45.572" viewBox="0 0 45.572 45.572"><g transform="translate(0)"><path d="M236.1,209.157a2.15,2.15,0,0,0,1.854-1.07.668.668,0,0,0-1.155-.67.806.806,0,0,1-1.4,0,.668.668,0,0,0-1.155.67A2.15,2.15,0,0,0,236.1,209.157Z" transform="translate(-213.314 -188.652)"/><path d="M216.035,167.739a.668.668,0,0,0,.668-.668v-.737a.668.668,0,0,0-1.335,0v.737A.668.668,0,0,0,216.035,167.739Z" transform="translate(-196.198 -150.921)"/><path d="M282.3,167.739a.668.668,0,0,0,.668-.668v-.737a.668.668,0,0,0-1.335,0v.737A.668.668,0,0,0,282.3,167.739Z" transform="translate(-256.565 -150.921)"/><path d="M176.459,291.955h-.908V285.25h0a3.621,3.621,0,0,0-3.617-3.617h-3.687a1.406,1.406,0,0,0-1.4,1.4v1.544H165.9a.668.668,0,1,0,0,1.335h8.319v6.131a2.1,2.1,0,0,0-1.475,2v6.711c0,.015,0,.03,0,.044H148.2a.668.668,0,0,0,0,1.335h29.681a2.094,2.094,0,0,0,2.092-2.092v-4.575A3.52,3.52,0,0,0,176.459,291.955Zm-8.281-8.917a.07.07,0,0,1,.07-.07h3.687a2.285,2.285,0,0,1,2.182,1.614h-5.938Zm10.461,17.008a.757.757,0,0,1-.757.757h-3.762a.045.045,0,0,1-.045-.044v-1.57h2.281a.668.668,0,1,0,0-1.335h-2.281v-1.614h2.281a.668.668,0,1,0,0-1.335h-2.281v-.857a.757.757,0,0,1,.757-.757h1.626a2.183,2.183,0,0,1,2.181,2.181Z" transform="translate(-134.403 -256.566)"/><path d="M28.824,29.352a.668.668,0,0,0,0-1.335h-.947V24.581A8.033,8.033,0,0,0,30.8,19.03h.835a2.145,2.145,0,0,0,2.142-2.142V13.939a2.13,2.13,0,0,0-.4-1.237,1.4,1.4,0,0,0,.4-.974v-.737a2.144,2.144,0,0,0-2.142-2.142h-.07V5.829A4.359,4.359,0,0,0,27.21,1.474H25.3V1.38A1.381,1.381,0,0,0,23.917,0H21.655a1.381,1.381,0,0,0-1.38,1.38v.095H18.362a4.359,4.359,0,0,0-4.354,4.354V8.847h-.07A2.144,2.144,0,0,0,11.8,10.989v.737a1.4,1.4,0,0,0,.4.974,2.13,2.13,0,0,0-.4,1.237v2.949a2.145,2.145,0,0,0,2.142,2.142h.835a8.033,8.033,0,0,0,2.921,5.551v3.436H13.132V26.472a1.406,1.406,0,0,0-1.4-1.4H8.04a3.621,3.621,0,0,0-3.617,3.617h0v6.705H3.516A3.52,3.52,0,0,0,0,38.905V43.48a2.094,2.094,0,0,0,2.092,2.092h9.037a.668.668,0,0,0,0-1.335h-3.9c0-.015,0-.029,0-.045V37.481a2.1,2.1,0,0,0-1.474-2V29.352ZM32.44,16.888a.808.808,0,0,1-.807.807h-.807V13.131h.809a.808.808,0,0,1,.805.807v2.949ZM27.21,2.81a3.022,3.022,0,0,1,3.019,3.019V8.847H28.615V8.04a.668.668,0,0,0-1.335,0v.807H25.3V2.81Zm-5.6-1.43a.045.045,0,0,1,.045-.045h2.262a.045.045,0,0,1,.045.045V8.847H21.61ZM15.343,5.828A3.022,3.022,0,0,1,18.362,2.81h1.913V8.847H18.293V8.04a.668.668,0,1,0-1.335,0v.807H15.344Zm-2.212,5.161a.808.808,0,0,1,.807-.807H31.633a.808.808,0,0,1,.807.807v.737a.07.07,0,0,1-.07.07H13.2a.07.07,0,0,1-.07-.07Zm0,5.9V13.939a.808.808,0,0,1,.807-.807h.807v4.563h-.807a.808.808,0,0,1-.807-.807Zm2.949,1.475V13.132h13.41v5.231a6.705,6.705,0,0,1-13.41,0ZM19.03,25.47a8.026,8.026,0,0,0,7.512,0v2.547H19.03V25.47ZM8.04,26.4h3.687a.07.07,0,0,1,.07.07v1.544H5.859A2.285,2.285,0,0,1,8.04,26.4ZM5.9,38.338H3.617a.668.668,0,1,0,0,1.335H5.9v1.614H3.617a.668.668,0,0,0,0,1.335H5.9v1.57a.045.045,0,0,1-.045.045H2.092a.757.757,0,0,1-.757-.757V38.905a2.183,2.183,0,0,1,2.181-2.181H5.142a.757.757,0,0,1,.757.757Z"/></g></svg>