<svg xmlns="http://www.w3.org/2000/svg" width="205.481" height="184.252" viewBox="0 0 205.481 184.252"><defs><style>.a{fill:#fdb300;}.a,.b,.c,.d,.e{fill-rule:evenodd;}.b{fill:#ea6c00;}.c{fill:#fdad00;}.d{fill:#fdd231;}.e{fill:#feeeb7;}</style></defs><path class="a" d="M44.828,6.066,102.732,0l57.908,6.066L205.473,65.7,102.736,184.252,0,65.7Z"/><path class="b" d="M41.615,0l61.122,117.835L0,0Z" transform="translate(0 66.418)"/><path class="b" d="M41.611,117.835,102.736,0,0,117.835Z" transform="translate(205.481 184.252) rotate(180)"/><path class="c" d="M0,0H122L61,117.835Z" transform="translate(40.683 66.418)"/><path class="d" d="M59.93,0,3.153,6.131,0,66.418Z" transform="translate(40.683)"/><path class="d" d="M59.93,66.418,3.153,60.287,0,0Z" transform="translate(162.651 66.418) rotate(180)"/><path class="c" d="M0,0,44.95,59.991,41.724,0Z" transform="translate(205.481 66.418) rotate(180)"/><g transform="translate(0 6.427)"><path class="c" d="M0,59.991,44.946,0,41.72,59.991Z"/></g><g transform="translate(40.683)"><path class="e" d="M61,0,0,66.418H122Z"/></g></svg>