<svg xmlns="http://www.w3.org/2000/svg" width="79.379" height="79.496" viewBox="0 0 79.379 79.496"><g transform="translate(-0.261)"><g transform="translate(0.261)"><g transform="translate(0)"><path d="M.261,194.992l7.056,7.174,36.808-36.808L36.951,158.3Z" transform="translate(-0.261 -122.67)"/><path d="M174.759,115.635l7.056,7.056,9.173-9.055-7.173-7.056Z" transform="translate(-135.481 -82.59)"/><path d="M272.943,42.467a1.764,1.764,0,0,0,1.294-.47l8.349-8.349a1.764,1.764,0,0,0-2.469-2.469l-8.35,8.349a1.764,1.764,0,0,0,0,2.469A1.645,1.645,0,0,0,272.943,42.467Z" transform="translate(-210.263 -23.886)"/><path d="M298.52,112.327H286.76a1.764,1.764,0,1,0,0,3.528h11.76a1.764,1.764,0,0,0,0-3.528Z" transform="translate(-220.905 -87.043)"/><path d="M282.547,157.345,274.2,149a2,2,0,0,0-2.469,0,1.881,1.881,0,0,0,0,2.587l8.349,8.232a1.646,1.646,0,0,0,1.176.588,1.882,1.882,0,0,0,1.294-.588,1.645,1.645,0,0,0,0-2.469Z" transform="translate(-210.224 -115.127)"/><path d="M162.446,42a1.788,1.788,0,0,0,2.587-2.469l-8.349-8.349a1.764,1.764,0,0,0-2.469,2.469Z" transform="translate(-119.288 -23.886)"/><path d="M226.678,15.288a1.764,1.764,0,0,0,1.764-1.764V1.764a1.764,1.764,0,1,0-3.528,0v11.76A1.764,1.764,0,0,0,226.678,15.288Z" transform="translate(-174.347 0)"/></g></g></g></svg>