<svg xmlns="http://www.w3.org/2000/svg" width="82" height="82" viewBox="0 0 82 82"><g transform="translate(-16 -16)"><path d="M88.433,26.933A1.367,1.367,0,0,0,89.8,25.567V22.833A6.841,6.841,0,0,0,82.967,16h-49.2a6.841,6.841,0,0,0-6.833,6.833v61.5h2.733v-61.5a4.1,4.1,0,0,1,4.1-4.1H77.5a6.8,6.8,0,0,0-1.37,4.1V91.167a4.1,4.1,0,1,1-8.2,0V88.433a1.367,1.367,0,0,0-1.367-1.367h-49.2A1.367,1.367,0,0,0,16,88.433v2.733A6.841,6.841,0,0,0,22.833,98h49.2a6.841,6.841,0,0,0,6.833-6.833V26.933Zm-65.6,68.333a4.1,4.1,0,0,1-4.1-4.1V89.8H65.2v1.367a6.8,6.8,0,0,0,1.37,4.1ZM82.967,18.733a4.1,4.1,0,0,1,4.1,4.1V24.2h-8.2V22.833A4.1,4.1,0,0,1,82.967,18.733Z"/><path d="M184,64.2a3.488,3.488,0,0,0,1.38,2.825,3.582,3.582,0,0,0,4,4,3.581,3.581,0,0,0,5.65,0,3.582,3.582,0,0,0,4-4,3.581,3.581,0,0,0,0-5.65,3.582,3.582,0,0,0-4-4,3.581,3.581,0,0,0-5.65,0,3.582,3.582,0,0,0-4,4A3.488,3.488,0,0,0,184,64.2Zm3.367-.793a1.367,1.367,0,0,0,.854-2.063.813.813,0,0,1,1.122-1.122,1.367,1.367,0,0,0,2.063-.854.813.813,0,0,1,1.587,0,1.367,1.367,0,0,0,2.063.854.813.813,0,0,1,1.122,1.122,1.367,1.367,0,0,0,.854,2.063.813.813,0,0,1,0,1.587,1.367,1.367,0,0,0-.854,2.063.813.813,0,0,1-1.122,1.122,1.367,1.367,0,0,0-2.063.854.813.813,0,0,1-1.587,0,1.367,1.367,0,0,0-2.063-.854.813.813,0,0,1-1.122-1.122,1.367,1.367,0,0,0-.854-2.063.813.813,0,0,1,0-1.587Z" transform="translate(-139.299 -33.167)"/><path d="M192,200h13.667v2.733H192Z" transform="translate(-145.933 -152.567)"/><path d="M216,168h13.667v2.733H216Z" transform="translate(-165.833 -126.033)"/><path d="M168,168h5.467v2.733H168Z" transform="translate(-126.033 -126.033)"/><path d="M152,240h32.8v2.733H152Z" transform="translate(-112.767 -185.733)"/><path d="M120,240h2.733v2.733H120Z" transform="translate(-86.233 -185.733)"/><path d="M152,272h21.867v2.733H152Z" transform="translate(-112.767 -212.267)"/><path d="M296,272h8.2v2.733H296Z" transform="translate(-232.167 -212.267)"/><path d="M152,304h32.8v2.733H152Z" transform="translate(-112.767 -238.8)"/><path d="M120,304h2.733v2.733H120Z" transform="translate(-86.233 -238.8)"/><path d="M152,336h8.2v2.733H152Z" transform="translate(-112.767 -265.333)"/><path d="M216,336h21.867v2.733H216Z" transform="translate(-165.833 -265.333)"/><path d="M152,368h21.867v2.733H152Z" transform="translate(-112.767 -291.867)"/><path d="M120,368h2.733v2.733H120Z" transform="translate(-86.233 -291.867)"/><path d="M152,400h32.8v2.733H152Z" transform="translate(-112.767 -318.4)"/><path d="M296,368h8.2v2.733H296Z" transform="translate(-232.167 -291.867)"/><path d="M412.3,117.467h-1.367a5.467,5.467,0,1,0-10.933,0V161.2a1.358,1.358,0,0,0,.145.611h0l4.1,8.2a1.367,1.367,0,0,0,2.445,0l4.1-8.2h0a1.358,1.358,0,0,0,.145-.611v-41H412.3a1.368,1.368,0,0,1,1.367,1.367V136.6H416.4V121.567A4.1,4.1,0,0,0,412.3,117.467Zm-6.833-2.733a2.737,2.737,0,0,1,2.733,2.733h-5.467a2.737,2.737,0,0,1,2.733-2.733Zm2.733,45.1h-5.467v-20.5H408.2Zm0-23.233h-5.467v-2.733H408.2Zm-2.733,29.744-1.889-3.777h3.777Zm2.733-35.211h-5.467V120.2H408.2Z" transform="translate(-318.4 -79.6)"/></g></svg>