<svg xmlns="http://www.w3.org/2000/svg" width="58.813" height="82.5" viewBox="0 0 58.813 82.5"><path d="M128.272,48.946H110.423l1.782-1.828a31.279,31.279,0,0,0,4.573.343c3.751,0,8.518-.731,11.661-3.874,5.747-5.748,3.428-16.921,3.327-17.394a1.611,1.611,0,0,0-1.237-1.237c-.473-.1-11.645-2.42-17.392,3.328-5.059,5.059-3.868,14.323-3.441,16.791l-3.774,3.871h-1.4V33.625c2.562-1.831,10.791-8.342,10.791-16.431,0-9.376-11.057-16.633-11.527-16.937a1.611,1.611,0,0,0-1.75,0C101.561.562,90.5,7.819,90.5,17.194c0,8.089,8.229,14.6,10.791,16.431V48.946h-1.4l-3.774-3.871c.427-2.468,1.618-11.732-3.441-16.791-5.747-5.748-16.919-3.429-17.392-3.328a1.611,1.611,0,0,0-1.237,1.237c-.1.473-2.42,11.646,3.327,17.394,3.144,3.144,7.91,3.874,11.661,3.874a31.28,31.28,0,0,0,4.573-.343l1.782,1.828H77.541a1.611,1.611,0,0,0-1.611,1.611V62.115a1.611,1.611,0,0,0,1.611,1.611H82.7l2.374,17.38a1.611,1.611,0,0,0,1.6,1.393h34.086a1.611,1.611,0,0,0,1.6-1.393l2.373-17.38h3.548a1.611,1.611,0,0,0,1.611-1.611V50.558A1.611,1.611,0,0,0,128.272,48.946ZM115.416,30.563c3.625-3.625,10.7-3.019,13.378-2.634.386,2.679.991,9.755-2.633,13.38-2.837,2.837-7.789,3.082-11.09,2.87l3.513-3.6h4.026a1.611,1.611,0,1,0,0-3.223h-.884l2.954-3.03a1.611,1.611,0,0,0-2.308-2.25l-3,3.077V34.114a1.611,1.611,0,0,0-3.223,0v4.342l-3.57,3.662C112.316,38.832,112.443,33.536,115.416,30.563ZM93.727,17.195c0-6.265,6.733-11.806,9.18-13.613,2.448,1.808,9.18,7.349,9.18,13.613,0,5.173-4.591,9.853-7.568,12.344V21.272l3.546-3.547a1.611,1.611,0,0,0-2.279-2.279l-1.267,1.267V12.658a1.611,1.611,0,0,0-3.223,0v4.057l-1.267-1.267a1.611,1.611,0,0,0-2.279,2.279l3.546,3.546v8.272C98.318,27.058,93.727,22.384,93.727,17.195ZM79.653,41.309c-3.625-3.625-3.019-10.7-2.633-13.38,2.678-.386,9.754-.991,13.378,2.634,2.973,2.973,3.1,8.27,2.837,11.555l-3.57-3.662V34.114a1.611,1.611,0,0,0-3.223,0v1.037l-3-3.077a1.611,1.611,0,1,0-2.308,2.25l2.954,3.03H83.2a1.611,1.611,0,1,0,0,3.223h4.026l3.518,3.609C87.449,44.4,82.5,44.157,79.653,41.309Zm39.695,37.968H88.074L85.95,63.726h35.521ZM126.661,60.5H79.153V52.169h47.508Z" transform="translate(-73.5 0.001)"/></svg>