<svg xmlns="http://www.w3.org/2000/svg" width="60.666" height="57.757" viewBox="0 0 60.666 57.757"><defs><style>.a{fill:#8645ff;}</style></defs><g transform="translate(0 -11.508)"><g transform="translate(0 11.508)"><path class="a" d="M60.592,43.872A7.078,7.078,0,0,0,54.6,37.878V36.04c0-5.072-3.855-9.2-8.594-9.2-4.6,0-8.456,4-8.594,8.926h.059l-.059.01V55.7c0,6.37-4.762,11.542-10.616,11.542S16.177,62.063,16.177,55.7V53.974c1.466,0,3.033-1.063,3.033-4.044V47.387c6.489-1.659,11.122-7.231,11.122-13.548V31.731H28.31l-.042-13.159a5.061,5.061,0,0,0-4.16-4.949,3.017,3.017,0,1,0-.069,2.062,3.033,3.033,0,0,1,2.2,2.894l.046,13.153H24.266v2.137a8.04,8.04,0,0,1-5.82,7.544,9.194,9.194,0,0,1-5.561,0,8.036,8.036,0,0,1-5.808-7.544V31.731H4.044V18.586a3.033,3.033,0,0,1,2.245-2.916,3.047,3.047,0,1,0-.063-2.054,5.056,5.056,0,0,0-4.2,4.969V31.731H0v2.1c0,6.324,4.636,11.9,11.122,13.554V49.93c0,2.982,1.567,4.044,3.033,4.044V55.7c0,7.482,5.669,13.565,12.639,13.565S39.432,63.175,39.432,55.7V35.823c.1-3.837,3.051-6.959,6.572-6.959,3.624,0,6.572,3.219,6.572,7.179v1.835a7.078,7.078,0,1,0,8.016,5.994ZM21.233,15.553a1.011,1.011,0,1,1,1.011-1.011A1.011,1.011,0,0,1,21.233,15.553ZM9.1,13.531a1.011,1.011,0,1,1-1.011,1.011A1.011,1.011,0,0,1,9.1,13.531Zm-7.078,20.3v-.081H5.055v.115a10.046,10.046,0,0,0,7.217,9.467,11.251,11.251,0,0,0,6.792,0,10.048,10.048,0,0,0,7.223-9.467v-.115H28.31v.081C28.31,39.458,23.975,44.407,18,45.6a14.423,14.423,0,0,1-4.266.209,13.207,13.207,0,0,1-1.4-.211C6.358,44.407,2.022,39.458,2.022,33.834ZM14.155,51.952c-.91,0-1.011-1.416-1.011-2.022V47.784c.081.01.164.014.246.022.1.011.2.019.3.028.478.042.961.071,1.447.072h.051c.485,0,.967-.029,1.442-.072.1-.009.208-.017.312-.028.08-.009.163-.012.243-.022V49.93c0,.607-.1,2.022-1.011,2.022ZM53.587,49.93a5.055,5.055,0,1,1,5.055-5.055A5.055,5.055,0,0,1,53.587,49.93Z" transform="translate(0 -11.508)"/></g><g transform="translate(50.554 41.841)"><path class="a" d="M403.033,251.515a3.033,3.033,0,1,0,3.033,3.033A3.033,3.033,0,0,0,403.033,251.515Zm0,4.044a1.011,1.011,0,1,1,1.011-1.011A1.011,1.011,0,0,1,403.033,255.559Z" transform="translate(-400 -251.515)"/></g></g></svg>