<svg xmlns="http://www.w3.org/2000/svg" width="891.32" height="641.46" viewBox="0 0 891.32 641.46"><defs><style>.a{fill:#f5f5f5;}.aa,.ab,.ad,.af,.ag,.ai,.aj,.b,.d,.i,.j,.o,.q,.s,.x,.y{fill:none;}.b,.c,.l{stroke:#66b0f0;}.ad,.af,.ag,.ai,.aj,.b,.d,.i,.j,.o,.p,.q,.y{stroke-linecap:round;}.aa,.ab,.ac,.ad,.af,.ag,.ai,.aj,.b,.c,.d,.e,.i,.j,.l,.m,.o,.p,.q,.s,.x,.y,.z{stroke-miterlimit:10;}.aa,.ab,.ac,.af,.ag,.b,.c,.i,.j,.l,.m,.o,.p,.q,.s,.z{stroke-width:6px;}.c,.t{fill:#d0f0e4;}.ac,.ag,.c,.l,.o,.s{stroke-linejoin:round;}.ai,.aj,.d{stroke:#9a3b82;}.d{stroke-width:3px;}.ac,.e,.l,.m,.p,.v{fill:#fff;}.e,.o,.s{stroke:#fe5244;}.ad,.aj,.e{stroke-width:5px;}.f{fill:#e57281;}.g{fill:#9a3b82;}.h{fill:#d82f25;}.aa,.i,.j{stroke:#fff;}.j{opacity:0.7;}.k{fill:#fe5244;}.ab,.ag,.m,.y,.z{stroke:#ffcf2d;}.n,.z{fill:#ffcf2d;}.ac,.ad,.p,.q{stroke:#3fb1b5;}.r{fill:#3fb1b5;}.u{fill:#66b0f0;}.w{fill:#f0e1d4;}.x{stroke:#d0f0e4;}.x,.y{stroke-width:10px;}.ae{fill:#a0505a;}.af{stroke:#73325a;}.ah{fill:#73325a;}.ai{stroke-width:4px;}</style></defs><g transform="translate(-914.723 -226.995)"><g transform="translate(1048.207 269.4)"><path class="a" d="M757.4,189.112C734.586,130.619,685.2,80.335,622.425,61.68s-137.668-2.089-179.658,45.959c-35.242,40.381-48.529,100.42-97.621,124.549-30.479,14.978-66.85,11.636-100.8,16.963-77.8,12.263-142.494,75.707-156.3,149.221a177.256,177.256,0,0,0-.585,61.042c11.469,71.174,64.092,128.831,133.2,149.346l92.712,27.554c94.509,15.626,194.845-2.883,276.276-50.91S732.831,460.229,759.7,373.011C778.164,313.076,780.19,247.585,757.4,189.112Z" transform="translate(-85.099 -54.199)"/></g><g transform="translate(132.223 -291.366)"><g transform="translate(1025.399 819.458)"><g transform="translate(0 31.523)"><g transform="translate(1.422 23.894)"><line class="b" x1="27.592" y2="279.076"/><line class="b" x2="27.592" y2="279.076" transform="translate(139.9)"/><path class="b" d="M1760.6,2607.285s66.459-35.092,150.5,0" transform="translate(-1751.989 -2409.822)"/></g><path class="c" d="M1878.716,1819.894H1738.66a16.863,16.863,0,0,1-16.86-16.86V1796h173.776v7.008A16.869,16.869,0,0,1,1878.716,1819.894Z" transform="translate(-1721.8 -1796)"/></g><g transform="translate(20.134)"><g transform="translate(10.468 2.314)"><g transform="translate(0 143.715)"><path class="d" d="M1922.842,2282.1l-5.12,5.767a8.555,8.555,0,1,0,12.8,11.352l5.43-6.1c0-.026.026-1.577.026-1.6-2.431-1.319-5.275-1.784-8.094-4.293A51.827,51.827,0,0,1,1922.842,2282.1Z" transform="translate(-1896.061 -2270.903)"/><path class="e" d="M1844.447,2261.427l24.7-22.627,28.73,10.292-28.5,41.039a7.2,7.2,0,0,1-10.085,1.733l-13.68-9.878A13.308,13.308,0,0,1,1844.447,2261.427Z" transform="translate(-1840.139 -2238.8)"/></g><g transform="translate(28.015)"><path class="f" d="M2044.081,1710.627a34.141,34.141,0,0,1-4.137,24.385l-60.718,102.016h0c-.569,2.3-7.887,2.663-16.317.672-8.456-1.991-14.843-5.534-14.3-7.835l28.265-120.273a34.4,34.4,0,0,1,67.209,1.034Z" transform="translate(-1948.549 -1683.047)"/><path class="g" d="M2044.628,1720.063a33.981,33.981,0,0,0-13.369-6.387,34.423,34.423,0,0,0-41.375,25.627l-23.325,99.249c-1.216-.181-2.457-.44-3.75-.75-8.456-1.991-14.844-5.534-14.3-7.835l28.264-120.273a34.418,34.418,0,0,1,67.235,1.034A33.1,33.1,0,0,1,2044.628,1720.063Z" transform="translate(-1948.476 -1683.122)"/><path class="h" d="M1964.149,1995.2l-15.542,66.1c-.543,2.3,5.844,5.87,14.3,7.835,8.456,1.991,15.774,1.629,16.317-.673h0l36.41-61.158Z" transform="translate(-1948.55 -1914.479)"/><line class="i" x1="51.486" y1="12.102" transform="translate(15.6 80.721)"/><line class="j" x2="48.797" y2="11.482" transform="translate(13.867 88.789)"/><line class="j" x2="45.823" y2="10.783" transform="translate(11.695 97.995)"/><line class="j" x2="42.849" y2="10.059" transform="translate(9.523 107.227)"/><line class="j" x2="39.85" y2="9.361" transform="translate(7.376 116.433)"/><line class="j" x2="36.902" y2="8.663" transform="translate(5.204 125.639)"/><line class="j" x2="33.928" y2="7.965" transform="translate(3.032 134.845)"/><line class="j" x2="31.342" y2="7.37" transform="translate(0.86 144.051)"/></g></g><path class="f" d="M1868.483,1873.529V1708.493a34.394,34.394,0,0,0-34.393-34.393h0a34.4,34.4,0,0,0-32.816,44.737l35.764,113.213-5.224,30.8a16.749,16.749,0,0,0,11.456,18.722l9.93,3.155A11.755,11.755,0,0,0,1868.483,1873.529Z" transform="translate(-1799.66 -1674.1)"/><path class="k" d="M1911.958,2012.3v70.493c0,2.379-7.034,4.37-15.723,4.37-8.663,0-15.722-2.017-15.722-4.4h0L1858.3,2012.3Z" transform="translate(-1843.136 -1924.843)"/><path class="i" d="M1858.2,2009.3h53.684l.259,68.683" transform="translate(-1843.062 -1922.619)"/><path class="e" d="M1923.342,2313.893a16.749,16.749,0,0,0,11.456,18.722l9.93,3.155a11.729,11.729,0,0,0,15.283-11.171l-.879-41.479c0,2.379-6.155,4.37-14.818,4.37s-15.128-2.612-15.154-4.991Z" transform="translate(-1891.188 -2125.17)"/><path class="k" d="M1983.619,2320.117v7.706a8.559,8.559,0,0,1-17.119,0V2319.6a45.877,45.877,0,0,0,9.93,1.009A50.662,50.662,0,0,0,1983.619,2320.117Z" transform="translate(-1923.356 -2152.677)"/><line class="i" x1="49.495" transform="translate(18.526 98.318)"/><line class="i" x1="46.444" transform="translate(21.577 107.783)"/><line class="i" x1="43.392" transform="translate(24.629 117.221)"/><line class="i" x1="40.341" transform="translate(27.68 126.686)"/><line class="i" x1="37.264" transform="translate(30.757 136.151)"/><line class="i" x1="34.212" transform="translate(33.809 145.615)"/><line class="i" x1="31.549" transform="translate(36.472 155.08)"/></g></g><g transform="translate(1130.182 785.685)"><g transform="translate(202.015 113.394)"><g transform="translate(0 29.247)"><path class="b" d="M2966.751,2095.1h20.662a29.632,29.632,0,0,1,29.635,29.635v124.772a29.633,29.633,0,0,1-29.635,29.635h-8.12a17.1,17.1,0,0,0-17.093,17.093" transform="translate(-2948.236 -2095.1)"/><circle class="l" cx="14.74" cy="14.74" r="14.74" transform="translate(0 196.145)"/></g><path class="c" d="M2920.044,2011.247h126.427a10.286,10.286,0,0,0,10.292-10.292v-8.663A10.286,10.286,0,0,0,3046.471,1982H2920.044a11.842,11.842,0,0,0-11.844,11.844v5.534A11.848,11.848,0,0,0,2920.044,2011.247Z" transform="translate(-2908.2 -1982)"/><g transform="translate(79.828 29.247)"><path class="b" d="M3267.2,2095.1h-20.662a29.632,29.632,0,0,0-29.635,29.635v124.772a29.633,29.633,0,0,0,29.635,29.635h8.12a17.1,17.1,0,0,1,17.093,17.093" transform="translate(-3216.9 -2095.1)"/><circle class="l" cx="14.74" cy="14.74" r="14.74" transform="translate(39.358 196.145)"/></g></g><g transform="translate(0)"><g transform="translate(0 32.014)"><g transform="translate(0 280.499)"><path class="m" d="M2229.042,2752l9.31,19.058a46.764,46.764,0,0,1,4.758,20.507v14.456a4.62,4.62,0,0,1-4.681,4.551H2132.094a5.028,5.028,0,0,1-5.094-4.965v-4.474a4.942,4.942,0,0,1,2.638-4.345c11.042-5.922,46.7-24.437,53.607-44.22Z" transform="translate(-2127 -2752)"/><path class="m" d="M2242.611,2875.2h-8.327a22.346,22.346,0,0,0-18.9,10.292l-3.542,5.637a11.7,11.7,0,0,1-9.9,5.4H2127.2" transform="translate(-2127.148 -2843.341)"/><path class="n" d="M2391.645,2766.3c-7.99.259-18.593-.569-31.393-2.9a136.65,136.65,0,0,1-23.351-6.465,29.26,29.26,0,0,0,1.965-4.344l45.8-.595Z" transform="translate(-2282.621 -2752)"/><g transform="translate(15.005 0.514)"><path class="o" d="M2242.589,2779.048l8.43-13.369a7.623,7.623,0,0,0-6.232-11.688h0a7.635,7.635,0,0,0-7.422,10.137Z" transform="translate(-2223.511 -2753.987)"/><path class="o" d="M2203.639,2825.714l-9.206-7.577a5.749,5.749,0,0,0-9.335,3.569h0a5.761,5.761,0,0,0,6.879,6.516Z" transform="translate(-2185.027 -2800.575)"/><line class="o" x2="20.92" transform="translate(17.784 24.751)"/><line class="o" x2="20.895" transform="translate(11.682 30.595)"/><line class="o" x2="20.377" transform="translate(27.171 18.622)"/></g></g><path class="p" d="M2466.783,1681.264l-47.969,18.154-46.133,240.261c-1.862,4.4-26.325,10.706-49.159,10.706-24.05,0-43.522-6.7-43.522-11.43l28.342-220.685a58.316,58.316,0,0,1,57.848-50.969h99.688l.465,13.938Z" transform="translate(-2240.435 -1667.3)"/><path class="q" d="M2443.2,1991.406l27.98-217.867c3.646-28.756,29.712-50.84,72.613-50.84" transform="translate(-2361.432 -1708.374)"/><path class="r" d="M2701.009,1711.3l-51.641,157.924-20.119-64.339C2616.836,1763.743,2639.205,1711.3,2701.009,1711.3Z" transform="translate(-2496.926 -1699.922)"/></g><g transform="translate(142.266)"><g transform="translate(50.879 311.556)"><path class="m" d="M2941.471,2748.3l18.593,46.314c2.586,6.413-2.508,13.266-9.853,13.266h-70.027a6.08,6.08,0,0,1-6.284-5.87v-4.655a9.926,9.926,0,0,1,1.965-5.922l12.283-13.421a41.464,41.464,0,0,0,11.094-28.032v-.129Z" transform="translate(-2873.9 -2748.3)"/><path class="m" d="M2891.5,2896.567a29.556,29.556,0,0,1,12.49-2.767h22.472a29.3,29.3,0,0,1,11.534,2.353l8.223,3.491" transform="translate(-2886.949 -2856.174)"/><path class="n" d="M3010.93,2750.42c-1.448,5.715-20.662,10.266-44.142,10.266h-.388a40.521,40.521,0,0,0,1.448-10.731v-.129l42.229-1.526Z" transform="translate(-2942.48 -2748.3)"/><g transform="translate(14.373 7.93)"><path class="s" d="M2997.2,2794.18l14.145-.129a7.546,7.546,0,0,0,6.361-11.456h0a7.515,7.515,0,0,0-12.387-.7Z" transform="translate(-2979.688 -2778.966)"/><path class="s" d="M2946.994,2805.383l-7.4-9.18a5.674,5.674,0,0,0-9.749,1.578h0a5.685,5.685,0,0,0,5.353,7.68Z" transform="translate(-2929.482 -2790.168)"/></g><line class="o" x2="30.644" transform="translate(24.024 28.42)"/></g><path class="p" d="M2811.839,1842.746c0,5.612-20.274,16.136-41.427,16.136-19.007,0-34.755-3.776-37.729-8.56l-52.288-167.26c-14.507-48.021,21.438-96.43,71.579-96.43h8.585l-1.215-43.134h107.369l10.576,43.884c8.534,35.427-18.308,70.39-54.744,70.39h-48.2Z" transform="translate(-2677.149 -1543.5)"/><path class="q" d="M2909.014,1858.378,2859.6,1700.273c-17.765-51.331,2.172-78.225,49.573-78.225h43.211a24.776,24.776,0,0,0,24.773-24.773V1543.9" transform="translate(-2807.657 -1543.797)"/></g></g></g><g transform="translate(807.454 776.221)"><path class="l" d="M1713.829,1581.66H912.364a3.154,3.154,0,0,1-1.681-5.818l141.71-68.942h527.793l135.09,69.873A2.657,2.657,0,0,1,1713.829,1581.66Z" transform="translate(-901.399 -1506.9)"/><path class="t" d="M1749.813,1576.2h-759.7a3.529,3.529,0,0,1-1.862-6.517l122.29-59.787h525.8l115.411,59.839A3.528,3.528,0,0,1,1749.813,1576.2Z" transform="translate(-958.77 -1509.124)"/><g transform="translate(0 74.76)"><line class="b" x1="52.624" y2="302.97"/><line class="b" x2="52.624" y2="302.97" transform="translate(80.061)"/></g><g transform="translate(688.562 74.76)"><line class="b" x1="52.624" y2="302.97"/><line class="b" x2="52.624" y2="302.97" transform="translate(80.061)"/></g></g><g transform="translate(912.263 719.045)"><path class="l" d="M1339.07,1464.2l-7.448,52.728a6.3,6.3,0,0,1-6.258,5.431h-14.559a6.323,6.323,0,0,1-6.258-5.431L1297.1,1464.2c0,4.732,9.387,8.56,20.972,8.56C1329.683,1472.76,1339.07,1468.906,1339.07,1464.2Z" transform="translate(-1293.79 -1418.067)"/><g transform="translate(8.249 51.771)"><path class="u" d="M1348.55,1486l-6.646,46.677a7.123,7.123,0,0,1-7.034,6.1h-4.991a7.123,7.123,0,0,1-7.034-6.1l-6.646-46.547c.517.233,1.086.44,1.655.646l6.517,45.694a5.57,5.57,0,0,0,4.862,4.732,5.03,5.03,0,0,0,.646.052h4.991a5.123,5.123,0,0,0,.905-.078,5.544,5.544,0,0,0,4.577-4.706l6.517-45.8A17.532,17.532,0,0,0,1348.55,1486Z" transform="translate(-1316.2 -1486)"/></g><g transform="translate(26.19 53.84)"><path class="u" d="M1393.134,1494l-5.922,49.107-.078.672a.78.78,0,0,1-.776.672h-.1a.759.759,0,0,1-.672-.853l.052-.414,5.9-48.9C1392.1,1494.181,1392.616,1494.078,1393.134,1494Z" transform="translate(-1385.576 -1494)"/></g><g transform="translate(15.361 53.943)"><path class="u" d="M1350.579,1544.749h-.1a.78.78,0,0,1-.776-.672l-.078-.646-5.922-49.03c.517.1,1.06.181,1.6.259l5.9,48.823.052.414A.778.778,0,0,1,1350.579,1544.749Z" transform="translate(-1343.7 -1494.4)"/></g><g transform="translate(2.586 37.626)"><path class="u" d="M1337.744,1439.808c0,2.172-2.043,4.138-5.4,5.663-.517.233-1.086.466-1.655.673a35.928,35.928,0,0,1-5.2,1.4c-.517.1-1.06.181-1.6.284a53.063,53.063,0,0,1-7.266.569h-1.448a50.5,50.5,0,0,1-6.465-.491c-.543-.078-1.06-.155-1.6-.259a36.428,36.428,0,0,1-5.456-1.4c-.569-.207-1.138-.414-1.655-.646-3.543-1.526-5.689-3.543-5.689-5.767a3.852,3.852,0,0,1,.052-.543c.724-4.474,10.137-7.991,21.67-7.991s20.972,3.543,21.67,7.991A3.2,3.2,0,0,1,1337.744,1439.808Z" transform="translate(-1294.3 -1431.3)"/><path class="u" d="M1376.61,1545.45a.44.44,0,0,1-.026.181.776.776,0,0,1-.75.595h0a.776.776,0,0,1-.75-.595.328.328,0,0,1-.026-.155l-.259-47.892a1.1,1.1,0,0,1,.052-.284h1.448a.764.764,0,0,1,.052.259Z" transform="translate(-1353.983 -1480.233)"/></g><path class="n" d="M1308.737,1338.915a44.248,44.248,0,0,1-12.232-1.939L1284.3,1285.8h11.766Z" transform="translate(-1284.3 -1285.8)"/><g transform="translate(7.835 5.172)"><path class="v" d="M1320.056,1307.093h-4.81a.646.646,0,1,1,0-1.293h4.5Z" transform="translate(-1314.6 -1305.8)"/><g transform="translate(1.293 5.431)"><path class="v" d="M1325.056,1328.093h-4.81a.646.646,0,0,1,0-1.293h4.5Z" transform="translate(-1319.6 -1326.8)"/></g><g transform="translate(2.586 10.861)"><path class="v" d="M1330.056,1349.093h-4.81a.646.646,0,0,1,0-1.293h4.5Z" transform="translate(-1324.6 -1347.8)"/></g><g transform="translate(3.905 16.292)"><path class="v" d="M1335.156,1370.093h-4.81a.646.646,0,0,1,0-1.293h4.5Z" transform="translate(-1329.7 -1368.8)"/></g><g transform="translate(5.198 21.722)"><path class="v" d="M1340.156,1391.093h-4.81a.646.646,0,0,1,0-1.293h4.5Z" transform="translate(-1334.7 -1389.8)"/></g><g transform="translate(6.724 27.153)"><path class="v" d="M1345.824,1412.093h-4.577a.646.646,0,0,1,0-1.293h4.267Z" transform="translate(-1340.6 -1410.8)"/></g><g transform="translate(7.758 32.583)"><path class="v" d="M1350.082,1433.093h-4.836a.646.646,0,0,1,0-1.293h4.525Z" transform="translate(-1344.6 -1431.8)"/></g><g transform="translate(9.051 38.014)"><path class="v" d="M1355.082,1454.093h-4.836a.646.646,0,0,1,0-1.293h4.525Z" transform="translate(-1349.6 -1452.8)"/></g><g transform="translate(10.085 43.444)"><path class="v" d="M1359.341,1475.067a.385.385,0,0,1-.181.026h-4.913a.646.646,0,0,1,0-1.293h4.784Z" transform="translate(-1353.6 -1473.8)"/></g></g><g transform="translate(51.733 92.848)"><g transform="translate(3.804 0.816)"><path class="k" d="M1556.274,1664.86h0l-1.086,3.957c-.026.1-.1.155-.181.129l-55.857-16.679a.163.163,0,0,1-.078-.207l1.06-3.931c0-.052.052-.078.078-.1a.156.156,0,0,1,.1-.026l55.857,16.679c.026,0,.052.052.078.078A.155.155,0,0,1,1556.274,1664.86Z" transform="translate(-1499.063 -1648)"/></g><g transform="translate(2.472 0.005)"><path class="n" d="M1497.141,1645.909l-1.138,4.215a.5.5,0,0,1-.543.414l-1.267-.388a.522.522,0,0,1-.259-.646l1.138-4.215a.5.5,0,0,1,.543-.414l1.267.388A.509.509,0,0,1,1497.141,1645.909Z" transform="translate(-1493.912 -1644.866)"/></g><path class="k" d="M1484.909,1645.584l-.517,1.965a1.073,1.073,0,0,0,.75,1.293l1.784.517,1.06-3.957-1.784-.517A1.039,1.039,0,0,0,1484.909,1645.584Z" transform="translate(-1484.354 -1644.845)"/><g transform="translate(59.644 17.504)"><path class="v" d="M1716.66,1713.1l1.681,1.707,1.293,1.319-1.759.414-2.276.517Z" transform="translate(-1715.445 -1712.954)"/><path class="k" d="M1719.319,1715.732h0c-.026.1-.078.155-.129.155l-4.034.931c-.052,0-.1,0-.129-.052a.328.328,0,0,1-.026-.155l1.06-3.931a.258.258,0,0,1,.1-.129c.052-.026.1-.026.129.026l2.974,3.026C1719.319,1715.6,1719.344,1715.655,1719.319,1715.732Zm-3.957.672,3.491-.8-2.56-2.612Z" transform="translate(-1715 -1712.534)"/></g><g transform="translate(61.92 19.211)"><path class="w" d="M1724.865,1719.7l1.293,1.319-1.759.414Z" transform="translate(-1724.245 -1719.554)"/><path class="k" d="M1725.843,1720.625h0c-.026.1-.077.155-.129.155l-1.759.414c-.052,0-.1,0-.129-.052a.328.328,0,0,1-.026-.155l.465-1.707a.259.259,0,0,1,.1-.129c.052-.026.1-.026.129.026l1.293,1.319C1725.843,1720.5,1725.869,1720.548,1725.843,1720.625Z" transform="translate(-1723.8 -1719.134)"/></g></g><path class="k" d="M1388.265,1347.7a3.126,3.126,0,0,1-.026.491l-4.215,33.617a48.6,48.6,0,0,1-5.224.284l2.069-34.626a3.7,3.7,0,0,1,7.4.233Z" transform="translate(-1354.363 -1328.95)"/></g><g transform="translate(1516.266 1042.471)"><g transform="translate(12.153 0)"><path class="r" d="M3667,2546.456h51.254a13.613,13.613,0,0,1,13.111-9.956h-51.253A13.613,13.613,0,0,0,3667,2546.456Z" transform="translate(-3667 -2536.5)"/><path class="p" d="M3719.4,2539.7a13.619,13.619,0,0,1,13.6,13.6v13.6h51.253v-13.6a13.6,13.6,0,0,0-13.6-13.6Z" transform="translate(-3705.85 -2538.873)"/></g><path class="m" d="M3937.48,2570.9H3890.7l2.845,12.981h46.78Z" transform="translate(-3820.699 -2562.004)"/><path class="m" d="M3826.865,2710.6h-109.1a13.7,13.7,0,0,0,13.369-16.679l-14.973-67.261a7.223,7.223,0,0,0-7.06-5.663h109.1a7.245,7.245,0,0,1,7.06,5.663l14.973,67.261A13.7,13.7,0,0,1,3826.865,2710.6Z" transform="translate(-3686.06 -2599.149)"/><path class="x" d="M3874.137,2625.1l5.4,24.282a22.453,22.453,0,0,1-21.9,27.333h-4.577a36.741,36.741,0,0,1-35.867-28.756l-5.094-22.86" transform="translate(-3762.425 -2602.188)"/><path class="y" d="M3895.137,2624.1l5.4,24.282a22.453,22.453,0,0,1-21.9,27.333h-4.577a36.741,36.741,0,0,1-35.867-28.756l-5.094-22.86" transform="translate(-3777.994 -2601.447)"/><path class="z" d="M3651.706,2710.6h-18a13.7,13.7,0,0,1-13.369-16.679l14.973-67.261a7.223,7.223,0,0,1,7.06-5.663h.724a7.245,7.245,0,0,1,7.06,5.663l14.973,67.261A13.754,13.754,0,0,1,3651.706,2710.6Z" transform="translate(-3620.003 -2599.149)"/><line class="aa" y2="74.01" transform="translate(23.04 21.877)"/><path class="i" d="M3642.8,2919.844l17.119-13.344,17.016,13.447" transform="translate(-3636.905 -2810.82)"/></g><g transform="translate(782.5 940.583)"><path class="r" d="M860.822,2357.379s-32.454-41.686-27.308-54.563c4.4-10.99,14.4-.75,14.4-.75Z" transform="translate(-819.912 -2257.587)"/><path class="r" d="M1033,2528.423s33.8-37.238,33.023-50.633-13.007-7.112-13.007-7.112Z" transform="translate(-968.222 -2384.721)"/><path class="n" d="M882.551,2716.729A41.289,41.289,0,0,1,869.983,2746a33.545,33.545,0,0,1-23.687,9.723h-27.54A33.545,33.545,0,0,1,795.068,2746a41.244,41.244,0,0,1-12.568-29.273c0-15.981,9.62-29.971,24.049-37.729h51.978C872.931,2686.732,882.551,2700.748,882.551,2716.729Z" transform="translate(-782.5 -2540.263)"/><ellipse class="r" cx="26.609" cy="7.06" rx="26.609" ry="7.06" transform="translate(23.429 133.358)"/><path class="p" d="M875.082,2286.2a85.9,85.9,0,0,1-14.74,1.19,87.815,87.815,0,0,1-14.068-1.061c-9.62-10.214-33.048-37.315-24.385-50.71,10.809-16.731,29.351,6.7,29.351,6.7s-21.877-67.183-10.292-82.1,20.662,11.585,20.662,11.585,5.844-32.169,21.541-29.092c14.973,2.948-8.223,77.553-10.4,84.431,1.112-3.31,7.835-21.567,20.946-19.886C906.114,2208.828,881.909,2269.624,875.082,2286.2Z" transform="translate(-810.304 -2142.497)"/><path class="q" d="M998.782,2143.2S976.646,2204.591,976,2287.91" transform="translate(-925.962 -2143.018)"/><path class="q" d="M980.8,2255.7c1.19,6.672,5.715,36.385,3.414,51.564" transform="translate(-929.52 -2226.426)"/><path class="q" d="M1024.458,2392.8s-25.239,32.48-28.058,80.01" transform="translate(-941.086 -2328.073)"/><path class="q" d="M836.8,2490.7s30.152,19.11,30.669,54.719" transform="translate(-822.758 -2400.656)"/><circle class="ab" cx="5.275" cy="5.275" r="5.275" transform="translate(19.343 70.468)"/><circle class="ab" cx="2.431" cy="2.431" r="2.431" transform="translate(9.982 68.192)"/><circle class="ab" cx="2.431" cy="2.431" r="2.431" transform="translate(13.473 129.324)"/><circle class="ab" cx="5.275" cy="5.275" r="5.275" transform="translate(75.329 48.539)"/><circle class="ab" cx="2.431" cy="2.431" r="2.431" transform="translate(79.725 34.73)"/><circle class="ab" cx="2.431" cy="2.431" r="2.431" transform="translate(88.543 54.228)"/></g><g transform="translate(1227.129 521.366)"><g transform="translate(7.215 101.74)"><path class="k" d="M2703.912,916.2l52.055,14.688a56.493,56.493,0,0,1,41.375,49.521l7.939,87.793H2529.8l25.446-98.654a48.225,48.225,0,0,1,32.867-34.367l60.8-18.981Z" transform="translate(-2529.8 -915.838)"/><g transform="translate(12.981 4.525)"><g transform="translate(0 135.245)"><circle class="v" cx="2.508" cy="2.508" r="2.508"/><circle class="v" cx="2.508" cy="2.508" r="2.508" transform="translate(26.118)"/><circle class="v" cx="2.508" cy="2.508" r="2.508" transform="translate(52.236)"/><circle class="v" cx="2.508" cy="2.508" r="2.508" transform="translate(78.354)"/><circle class="v" cx="2.508" cy="2.508" r="2.508" transform="translate(104.473)"/><circle class="v" cx="2.508" cy="2.508" r="2.508" transform="translate(130.591)"/><circle class="v" cx="2.508" cy="2.508" r="2.508" transform="translate(156.709)"/><circle class="v" cx="2.508" cy="2.508" r="2.508" transform="translate(182.827)"/><circle class="v" cx="2.508" cy="2.508" r="2.508" transform="translate(208.945)"/><circle class="v" cx="2.508" cy="2.508" r="2.508" transform="translate(235.063)"/></g><g transform="translate(13.447 117.661)"><circle class="v" cx="2.508" cy="2.508" r="2.508"/><circle class="v" cx="2.508" cy="2.508" r="2.508" transform="translate(26.118)"/><circle class="v" cx="2.508" cy="2.508" r="2.508" transform="translate(52.236)"/><circle class="v" cx="2.508" cy="2.508" r="2.508" transform="translate(78.354)"/><circle class="v" cx="2.508" cy="2.508" r="2.508" transform="translate(104.473)"/><circle class="v" cx="2.508" cy="2.508" r="2.508" transform="translate(130.591)"/><circle class="v" cx="2.508" cy="2.508" r="2.508" transform="translate(156.709)"/><circle class="v" cx="2.508" cy="2.508" r="2.508" transform="translate(182.827)"/><circle class="v" cx="2.508" cy="2.508" r="2.508" transform="translate(208.945)"/><circle class="v" cx="2.508" cy="2.508" r="2.508" transform="translate(235.063)"/></g><g transform="translate(0 99.559)"><circle class="v" cx="2.508" cy="2.508" r="2.508"/><circle class="v" cx="2.508" cy="2.508" r="2.508" transform="translate(26.118)"/><circle class="v" cx="2.508" cy="2.508" r="2.508" transform="translate(52.236)"/><circle class="v" cx="2.508" cy="2.508" r="2.508" transform="translate(78.354)"/><circle class="v" cx="2.508" cy="2.508" r="2.508" transform="translate(104.473)"/><circle class="v" cx="2.508" cy="2.508" r="2.508" transform="translate(130.591)"/><circle class="v" cx="2.508" cy="2.508" r="2.508" transform="translate(156.709)"/><circle class="v" cx="2.508" cy="2.508" r="2.508" transform="translate(182.827)"/><circle class="v" cx="2.508" cy="2.508" r="2.508" transform="translate(208.945)"/><circle class="v" cx="2.508" cy="2.508" r="2.508" transform="translate(235.063)"/></g><g transform="translate(13.447 82.751)"><circle class="v" cx="2.508" cy="2.508" r="2.508"/><circle class="v" cx="2.508" cy="2.508" r="2.508" transform="translate(26.118)"/><circle class="v" cx="2.508" cy="2.508" r="2.508" transform="translate(52.236)"/><circle class="v" cx="2.508" cy="2.508" r="2.508" transform="translate(78.354)"/><circle class="v" cx="2.508" cy="2.508" r="2.508" transform="translate(104.473)"/><circle class="v" cx="2.508" cy="2.508" r="2.508" transform="translate(130.591)"/><circle class="v" cx="2.508" cy="2.508" r="2.508" transform="translate(156.709)"/><circle class="v" cx="2.508" cy="2.508" r="2.508" transform="translate(183.603)"/><circle class="v" cx="2.508" cy="2.508" r="2.508" transform="translate(208.945)"/><circle class="v" cx="2.508" cy="2.508" r="2.508" transform="translate(235.063)"/></g><g transform="translate(26.118 65.425)"><circle class="v" cx="2.508" cy="2.508" r="2.508"/><circle class="v" cx="2.508" cy="2.508" r="2.508" transform="translate(52.236)"/><circle class="v" cx="2.508" cy="2.508" r="2.508" transform="translate(78.354)"/><circle class="v" cx="2.508" cy="2.508" r="2.508" transform="translate(104.473)"/><circle class="v" cx="2.508" cy="2.508" r="2.508" transform="translate(130.591)"/><circle class="v" cx="2.508" cy="2.508" r="2.508" transform="translate(156.709)"/><circle class="v" cx="2.508" cy="2.508" r="2.508" transform="translate(182.827)"/><circle class="v" cx="2.508" cy="2.508" r="2.508" transform="translate(208.945)"/></g><g transform="translate(13.447 48.357)"><circle class="v" cx="2.508" cy="2.508" r="2.508"/><circle class="v" cx="2.508" cy="2.508" r="2.508" transform="translate(26.118)"/><circle class="v" cx="2.508" cy="2.508" r="2.508" transform="translate(52.236)"/><circle class="v" cx="2.508" cy="2.508" r="2.508" transform="translate(78.354)"/><circle class="v" cx="2.508" cy="2.508" r="2.508" transform="translate(104.473)"/><circle class="v" cx="2.508" cy="2.508" r="2.508" transform="translate(130.591)"/><circle class="v" cx="2.508" cy="2.508" r="2.508" transform="translate(156.709)"/><circle class="v" cx="2.508" cy="2.508" r="2.508" transform="translate(182.827)"/><circle class="v" cx="2.508" cy="2.508" r="2.508" transform="translate(208.945)"/><circle class="v" cx="2.508" cy="2.508" r="2.508" transform="translate(233.77)"/></g><g transform="translate(26.118 31.549)"><circle class="v" cx="2.508" cy="2.508" r="2.508"/><circle class="v" cx="2.508" cy="2.508" r="2.508" transform="translate(26.118)"/><circle class="v" cx="2.508" cy="2.508" r="2.508" transform="translate(52.236)"/><circle class="v" cx="2.508" cy="2.508" r="2.508" transform="translate(78.354)"/><circle class="v" cx="2.508" cy="2.508" r="2.508" transform="translate(104.473)"/><circle class="v" cx="2.508" cy="2.508" r="2.508" transform="translate(130.591)"/><circle class="v" cx="2.508" cy="2.508" r="2.508" transform="translate(156.709)"/><circle class="v" cx="2.508" cy="2.508" r="2.508" transform="translate(182.827)"/><circle class="v" cx="2.508" cy="2.508" r="2.508" transform="translate(208.945)"/></g><g transform="translate(104.473)"><circle class="v" cx="2.508" cy="2.508" r="2.508"/><circle class="v" cx="2.508" cy="2.508" r="2.508" transform="translate(26.118)"/><circle class="v" cx="2.508" cy="2.508" r="2.508" transform="translate(52.236)"/><path class="v" d="M3291.887,941.271a2.515,2.515,0,0,1-4.887-.827,3.855,3.855,0,0,1,.052-.543Z" transform="translate(-3208.646 -937.935)"/></g><g transform="translate(39.565 12.438)"><circle class="v" cx="2.508" cy="2.508" r="2.508" transform="translate(0 3.336)"/><circle class="v" cx="2.508" cy="2.508" r="2.508" transform="translate(26.118 3.336)"/><circle class="v" cx="2.508" cy="2.508" r="2.508" transform="translate(49.754)"/><circle class="v" cx="2.508" cy="2.508" r="2.508" transform="translate(78.354 3.336)"/><circle class="v" cx="2.508" cy="2.508" r="2.508" transform="translate(104.473 3.336)"/><circle class="v" cx="2.508" cy="2.508" r="2.508" transform="translate(130.591 3.336)"/><circle class="v" cx="2.508" cy="2.508" r="2.508" transform="translate(156.709 3.336)"/><circle class="v" cx="2.508" cy="2.508" r="2.508" transform="translate(182.827 3.336)"/></g></g><g transform="translate(63.647)"><line class="i" x1="5.689" y1="77.398" transform="translate(146.177 75.717)"/><path class="i" d="M2793.193,1252.45V1229l-5.379-3.155a24.051,24.051,0,0,1-11.275-26.144l8.249-36" transform="translate(-2775.926 -1099.336)"/><path class="i" d="M2985.3,914.8l17.222,49.883,39.953-49.883" transform="translate(-2931.157 -914.8)"/><path class="i" d="M3163.1,951.953l16.912,19.6,17.507-24.954" transform="translate(-3062.979 -938.377)"/><path class="i" d="M2914.338,952.991l-19.731,16.757L2883.1,948" transform="translate(-2855.385 -939.415)"/><line class="i" x2="3.543" y2="16.524" transform="translate(1.519 64.364)"/></g></g><g transform="translate(0 262.38)"><path class="n" d="M2769.423,1625.952h-70.881L2667.2,1577h70.881Z" transform="translate(-2624.454 -1566.398)"/><path class="ac" d="M2604.123,1584.926h-70.907L2501.9,1536h70.881Z" transform="translate(-2501.9 -1536)"/><g transform="translate(15.18 6.445)"><path class="ad" d="M2560.6,1561.616l2.638,1.138c1.759.75,3.336.776,3.931.052l.957-1.215c.569-.724,2.172-.724,3.931.052l2.638,1.138c1.759.75,3.336.776,3.931.052l1.06-1.371c.569-.724,2.172-.724,3.931.052l3.491,1.526c1.759.75,3.336.776,3.931.052l1.267-1.6c.569-.724,2.172-.724,3.931.052l4.008,1.758c1.758.75,3.336.776,3.93.052l1.371-1.759" transform="translate(-2560.6 -1560.924)"/><path class="ad" d="M2602.1,1602.754c1.759.75,3.336.776,3.931.052l.957-1.215c.569-.724,2.172-.724,3.93.052l2.638,1.138c1.758.75,3.336.776,3.93.052l1.061-1.371c.569-.724,2.172-.724,3.931.052l3.491,1.526c1.759.75,3.336.776,3.931.052l1.267-1.6c.569-.724,2.172-.724,3.931.052l4.008,1.758c1.759.75,3.336.776,3.931.052l1.371-1.758" transform="translate(-2591.368 -1590.58)"/><path class="ad" d="M2623.2,1641.516l2.638,1.138c1.759.75,3.336.776,3.931.052l.957-1.215c.569-.724,2.172-.724,3.931.052l2.638,1.138c1.758.75,3.336.776,3.931.052l1.06-1.371c.569-.724,2.172-.724,3.93.052l3.491,1.526c1.758.75,3.336.776,3.931.052l1.267-1.6c.569-.724,2.172-.724,3.93.052l4.008,1.759c1.759.75,3.336.776,3.931.052l1.371-1.758" transform="translate(-2607.012 -1620.162)"/><path class="ad" d="M2654.5,1681.516l2.637,1.138c1.759.75,3.336.776,3.931.052l.957-1.215c.569-.724,2.172-.724,3.931.052l2.638,1.138c1.758.75,3.336.776,3.93.052l1.06-1.371c.569-.724,2.172-.724,3.931.052l3.491,1.526c1.758.75,3.336.776,3.93.052l1.267-1.6c.569-.724,2.172-.724,3.931.052l4.008,1.759c1.758.75,3.336.776,3.931.052l1.37-1.758" transform="translate(-2630.218 -1649.819)"/></g></g><g transform="translate(55.727 222.11)"><path class="ae" d="M2777.808,1441.337h135.969a30.51,30.51,0,0,0,30.385-33.385h0a30.543,30.543,0,0,0-36.255-27.1l-156.476,21.8a18.738,18.738,0,0,0-13.938,9.7l-13.861,25.756a6.235,6.235,0,0,0-1.034,2.172l-5.2,20.093h2.922a12.277,12.277,0,0,0,10.835-6.517l2.612-4.887,30.075,3.258c5.637.7,10.99-3.155,13.007-8.43Z" transform="translate(-2717.4 -1380.277)"/><g transform="translate(16.654 48.725)"><line class="af" y1="18.8" x2="9.077" transform="translate(0 0.284)"/><line class="af" y1="18.8" x2="9.077" transform="translate(12.102 1.474)"/><line class="af" y1="18.8" x2="9.051" transform="translate(23.946 2.948)"/><line class="af" y1="12.335" x2="4.138" transform="translate(43.754)"/></g></g><g transform="translate(53.334 0)"><path class="m" d="M2804.407,534.925s17.791-11.171,35.169,2.922c16.4,13.318,8.741,39.565,2.741,35.169-5.146-3.75,34.962-16.55,47.53,13.163,14.249,33.669-17.843,52.779-54.435,36.126h-53.09l-56.451,17.61s-28.678-14.585-13.085-43.03c14.4-26.247,48.823-16.886,44.944-10.4-5.456,9.1-28.781-19.705-12.386-46.909C2762.67,510.824,2802.028,521.53,2804.407,534.925Z" transform="translate(-2708.144 -521.366)"/><path class="ag" d="M2972.446,651.951s-16.111-7.654-13.137-23.351c0,0-7.37,21.153-31.238,21-10.965-.078-10.5-11.456-4.655-16.783" transform="translate(-2864.726 -600.87)"/><g transform="translate(72.525 65.976)"><path class="ae" d="M3043.784,812.548,3030.208,776.5h-38.583l-3.025,36.048,16.628,47.788Z" transform="translate(-2988.6 -776.5)"/><path class="ah" d="M3012.624,804.92l-20.352,17.972-3.672-10.344,3.025-36.048h34.187v.672A35.859,35.859,0,0,1,3012.624,804.92Z" transform="translate(-2988.6 -776.5)"/></g><g transform="translate(56.518 30.057)"><path class="ae" d="M3012.781,666.511v1.448a7.152,7.152,0,0,1-7.137,7.137h-7.758a22.439,22.439,0,0,1-44.685-2.948v-15.1c23.868.181,30.721-19.446,30.721-19.446-1.578,14.74,11.869,21.076,13.912,21.929v-.155h7.81A7.152,7.152,0,0,1,3012.781,666.511Z" transform="translate(-2946.347 -637.6)"/><g transform="translate(0 15.154)"><path class="af" d="M3055.1,696.2a14.407,14.407,0,0,1,9.31,4.086" transform="translate(-3021.896 -696.2)"/><ellipse class="ah" cx="1.577" cy="2.767" rx="1.577" ry="2.767" transform="translate(30.463 12.387)"/><ellipse class="ah" cx="1.577" cy="2.767" rx="1.577" ry="2.767" transform="translate(8.922 12.387)"/><path class="af" d="M3004.2,801.407a7.329,7.329,0,0,0,8.094-1.707" transform="translate(-2984.159 -772.935)"/><path class="af" d="M3133.7,742.8a6.114,6.114,0,0,1,6.1-6.1" transform="translate(-3080.171 -726.227)"/><path class="af" d="M2936.009,697.2a14.407,14.407,0,0,0-9.309,4.086" transform="translate(-2926.7 -696.941)"/></g><g transform="translate(0.776 19.498)"><ellipse class="s" cx="8.87" cy="10.421" rx="8.87" ry="10.421"/><ellipse class="s" cx="8.87" cy="10.421" rx="8.87" ry="10.421" transform="translate(23.817)"/><path class="s" d="M3004.4,750.4s-3.181-2.276-6.1,0" transform="translate(-2980.56 -739.979)"/></g></g></g></g><g transform="translate(973.86 621.089)"><g transform="translate(6.776 72.614)"><path class="g" d="M1650.38,1187.8H1700.7a96.529,96.529,0,0,1,66.227,26.3l29.583,27.9-43.961,12.283-8.456-7.965a5.481,5.481,0,0,0-9.077,2.715l-3.672,15.464h-98.033l-4.448-25.937a5.483,5.483,0,0,0-9.465-2.017l-3.439,4.112-67.261-1.241,44.3-32.738A96.623,96.623,0,0,1,1650.38,1187.8Z" transform="translate(-1548.7 -1187.8)"/><path class="r" d="M1892.605,1187.8l26.428,45.978,24.9-45.849q4.383.233,8.689.853c-1.138,6.879-6.8,48,16.809,75.717H1871.4s19.731-39.539,11.818-76.57Z" transform="translate(-1787.952 -1187.8)"/></g><g transform="translate(50.815 149.339)"><path class="d" d="M1719,1536.762h193.016l-37.574-52.262H1759.573Z" transform="translate(-1719 -1484.5)"/><path class="ac" d="M1912.016,1536.762H1719l40.573-52.262h114.868Z" transform="translate(-1719 -1484.5)"/><path class="r" d="M1815.508,1642.182H1719C1776.356,1607.323,1815.508,1642.182,1815.508,1642.182Z" transform="translate(-1719 -1589.92)"/><path class="r" d="M2092.2,1642.182h96.508C2131.352,1607.323,2092.2,1642.182,2092.2,1642.182Z" transform="translate(-1995.692 -1589.92)"/><line class="q" y1="52.262" transform="translate(96.508)"/></g><g transform="translate(0 105.862)"><g transform="translate(159.348 12.445)"><path class="f" d="M2170.921,1412.159l27.721-39.074a22.4,22.4,0,0,1,17.61-8.585h0a22.4,22.4,0,0,1,22.394,22.394v.776a22.4,22.4,0,0,1-11.119,19.343l-37.031,21.2-10.241,17.61a10.641,10.641,0,0,1-9.206,5.3H2138.7a8.4,8.4,0,0,1,6.361-7.836,11.207,11.207,0,0,0,7.551-8.353s-3.206,2.483-9.594.129l12.309-17.662a12.208,12.208,0,0,1,10.034-5.25Z" transform="translate(-2138.7 -1364.5)"/><path class="ai" d="M2258.164,1625.6l-8.146,13.99a8.459,8.459,0,0,1-7.318,4.215" transform="translate(-2215.806 -1558.081)"/><path class="ai" d="M2224.464,1625.6l-8.146,13.99a8.46,8.46,0,0,1-7.318,4.215" transform="translate(-2190.821 -1558.081)"/><path class="ai" d="M2190.764,1625.6l-8.146,13.99a8.459,8.459,0,0,1-7.318,4.215" transform="translate(-2165.835 -1558.081)"/><line class="ai" x2="5.87" transform="translate(32.221 47.659)"/></g><g transform="translate(0 9.394)"><path class="f" d="M1673.077,1379.594a.411.411,0,0,0,0,.7,2.6,2.6,0,0,1,1.293,2.276v2.482a2.629,2.629,0,0,1-1.293,2.276.411.411,0,0,0,0,.7,2.6,2.6,0,0,1,1.293,2.276v2.483a2.629,2.629,0,0,1-1.293,2.276.411.411,0,0,0,0,.7,2.6,2.6,0,0,1,1.293,2.276v2.483a2.577,2.577,0,0,1-2.56,2.612H1549.054c-16.136,0-29.376-13.68-26.041-29.816a25.557,25.557,0,0,1,24.851-20.61,26.167,26.167,0,0,1,5.767.672l87.535,18.929h30.256a2.975,2.975,0,0,1,2.948,3v2.069A2.641,2.641,0,0,1,1673.077,1379.594Z" transform="translate(-1522.496 -1352.7)"/><line class="ai" x1="13.757" transform="translate(136.436 27.23)"/><line class="ai" x1="13.757" transform="translate(136.436 34.936)"/><line class="ai" x1="13.757" transform="translate(136.436 42.642)"/></g><path class="v" d="M1967.921,1345.421s-19.447-28.523-14.094-29.04,19.11,28.911,19.11,28.911Z" transform="translate(-1841.596 -1316.374)"/></g><g transform="translate(77.166 0)"><path class="f" d="M1984.851,1124.762a6.8,6.8,0,0,1-6.8,6.956h-5.818A21.313,21.313,0,0,1,1951,1151.061h-6.232a21.331,21.331,0,0,1-21.231-19.343h-5.844a6.8,6.8,0,0,1-6.8-6.956,6.919,6.919,0,0,1,6.956-6.672h5.612v-3.853a8.636,8.636,0,0,1,8.637-8.637h31.574a8.636,8.636,0,0,1,8.637,8.637v3.853h5.586A6.9,6.9,0,0,1,1984.851,1124.762Z" transform="translate(-1887.619 -1054.243)"/><g transform="translate(27.825 69.148)"><path class="aj" d="M2156.7,1179.727a5.32,5.32,0,0,1,5.327-5.327" transform="translate(-2097.688 -1174.4)"/><path class="aj" d="M2081.4,1197.282s5.4-1.086,8.637,2.069" transform="translate(-2041.861 -1191.231)"/><path class="aj" d="M1988,1196.418a8.236,8.236,0,0,1,8.379-.776c2.9,1.267,4.37,6.155,4.81,11.818,0,0,2.767,2.948,7.422,0" transform="translate(-1972.614 -1189.566)"/><path class="aj" d="M1933.827,1179.727a5.319,5.319,0,0,0-5.327-5.327" transform="translate(-1928.5 -1174.4)"/><ellipse class="g" cx="0.983" cy="1.888" rx="0.983" ry="1.888" transform="translate(20.843 11.378)"/><ellipse class="g" cx="0.983" cy="1.888" rx="0.983" ry="1.888" transform="translate(41.272 11.378)"/></g><path class="n" d="M1945.155,957.09a20.506,20.506,0,0,1-27.877,8.042,21.625,21.625,0,0,1-4.5-3.336,41.808,41.808,0,0,1-3.026,9.1,54.521,54.521,0,0,1-7.189,2.146c.569-1.862,1.914-8.482-4.422-14.611,0,0,4.4,8.715-2.017,15.568a5.174,5.174,0,0,0-.362.414,92.258,92.258,0,0,1-44.116-3.517s-6.542-10.758-3.31-22.058a21.362,21.362,0,1,1,15.283-20.481,20.921,20.921,0,0,1-.388,4.034c15.516-8.068,37.315-3.129,45.565,5.689.129-.284.284-.543.414-.8a20.521,20.521,0,0,1,35.945,19.808Z" transform="translate(-1820.9 -907)"/><g transform="translate(26.308 9.669)"><path class="k" d="M1949.157,945.635c-1.552-1.215-3.051-1.552-4.5-.957-2.12.853-3.931,3.724-5.353,8.559a10.148,10.148,0,0,0-.259,1.138c-.026-3.957-1.086-5.9-2.586-7.266a4.331,4.331,0,0,0-4.215-.828,2.517,2.517,0,0,0-1.862,1.681c-.569,1.707.362,4.5,2.87,8.508,1.293,2.069,2.638,3.9,3.31,4.758l-13.731,15.309a.774.774,0,0,0,.052,1.086.821.821,0,0,0,.517.207.733.733,0,0,0,.569-.259l14.145-15.774.026-.026.931-1.06h0a55.076,55.076,0,0,0,5.508-3.931c3.853-3.155,5.9-5.844,6.025-8.042A3.492,3.492,0,0,0,1949.157,945.635Zm-17.3,2.819a1,1,0,0,1,.8-.672,4.226,4.226,0,0,1,1.086-.155,2.412,2.412,0,0,1,1.681.621c2.069,1.888,1.965,7.577,1.6,11.068C1934.339,955.642,1931.21,950.445,1931.857,948.453Zm17.223.207c-.181,3.077-5.974,7.551-9.439,9.878.776-4.138,2.664-11.249,5.611-12.438a2.241,2.241,0,0,1,.828-.155,3.5,3.5,0,0,1,2.12.905A2.01,2.01,0,0,1,1949.079,948.66Z" transform="translate(-1922.634 -944.391)"/><g transform="translate(51.468 4.82)"><path class="k" d="M2143.395,968.583a4.231,4.231,0,0,0-4.112-1.319c-2.017.491-4.034,2.586-5.973,6.232-.388.724-.75,1.448-1.034,2.121-.052-.983-.129-2.095-.285-3.258-.595-4.732-1.862-7.706-3.75-8.818-1.319-.776-2.9-.672-4.629.362a3.608,3.608,0,0,0-1.939,2.948c-.31,4.448,7.034,10.732,9.025,12.361l4.887,24.411a.773.773,0,0,0,.75.621.327.327,0,0,0,.155-.026.75.75,0,0,0,.595-.905l-4.758-23.791a55.145,55.145,0,0,0,5.4-2.586c4.034-2.224,6.155-4.163,6.491-5.922A2.674,2.674,0,0,0,2143.395,968.583Zm-12.8,8.534c-2.974-2.586-7.6-7.292-7.422-10.189a2.077,2.077,0,0,1,1.189-1.733,3.97,3.97,0,0,1,1.965-.646,2.267,2.267,0,0,1,1.086.284c1.422.828,2.483,3.569,3,7.68.207,1.681.284,3.284.31,4.474Zm12.1-6.413c-.388,2.017-5.534,4.939-9.568,6.749,1.319-3.155,3.853-8.042,6.517-8.689a2.017,2.017,0,0,1,.569-.078,3.167,3.167,0,0,1,2.121,1.009A1.055,1.055,0,0,1,2142.7,970.7Z" transform="translate(-2121.663 -963.032)"/></g></g></g></g></g></g></svg>