<svg xmlns="http://www.w3.org/2000/svg" width="152.578" height="186" viewBox="0 0 152.578 186"><g transform="translate(-884 -243)"><g transform="translate(867.289 243)"><path d="M100.559,164.2H85.442a3.633,3.633,0,0,0,0,7.266h15.117a3.633,3.633,0,1,0,0-7.266Z"/><path d="M165.656,29.063h-21.8V21.172A10.9,10.9,0,0,0,140.227,0H45.773a10.9,10.9,0,0,0-3.633,21.172v7.891h-21.8A3.633,3.633,0,0,0,16.711,32.7v25.43A29.1,29.1,0,0,0,45.773,87.188h3.072q1.047,1.825,2.248,3.578A51.105,51.105,0,0,0,71.28,107.982a10.877,10.877,0,0,0,8.156,11.843c-4.365,14.544-12.122,29.847-21.311,29.847H49.406a3.633,3.633,0,0,0-3.6,3.182l-3.633,29.063a3.633,3.633,0,0,0,3.6,4.083h94.453a3.633,3.633,0,0,0,3.6-4.083L140.2,152.854a3.632,3.632,0,0,0-3.6-3.182h-8.719c-5.561,0-10.261-5.84-13.223-10.739a86.315,86.315,0,0,1-8.087-19.108,10.876,10.876,0,0,0,8.155-11.842,51.1,51.1,0,0,0,20.19-17.22q1.2-1.747,2.245-3.574h3.072a29.1,29.1,0,0,0,29.063-29.062V32.7a3.633,3.633,0,0,0-3.633-3.633ZM23.977,58.125v-21.8H42.141v25.7a50.424,50.424,0,0,0,3.268,17.883A21.818,21.818,0,0,1,23.977,58.125ZM136.111,178.734H49.889l2.725-21.8h80.773Zm-22.558-29.062H72.447a44.445,44.445,0,0,0,5.1-6.952c4.643-7.669,7.692-16.7,9.359-22.564H99.093c1.669,5.866,4.711,14.879,9.342,22.537A44.479,44.479,0,0,0,113.554,149.672ZM103.9,112.89H82.1a3.633,3.633,0,0,1,0-7.266h21.8a3.633,3.633,0,0,1,0,7.266Zm7.61-11.424a10.861,10.861,0,0,0-7.61-3.107H82.1a10.862,10.862,0,0,0-7.61,3.107A43.462,43.462,0,0,1,49.406,62.031V21.8H76.651a3.633,3.633,0,1,0,0-7.266H45.773a3.633,3.633,0,0,1,0-7.266h94.453a3.633,3.633,0,1,1,0,7.266h-30.88a3.633,3.633,0,1,0,0,7.266h27.247V62.031A43.463,43.463,0,0,1,111.508,101.466Zm50.515-43.341a21.818,21.818,0,0,1-21.433,21.788,50.422,50.422,0,0,0,3.268-17.883v-25.7h18.164Z"/><path d="M111.56,47.372l-8.148-1.443-4.046-7.443h0a7.252,7.252,0,0,0-12.768.057l-3.89,7.3-8.171,1.519a7.256,7.256,0,0,0-4.072,12.2l5.747,5.961-1.054,8.039a7.262,7.262,0,0,0,4.775,8.177A7.217,7.217,0,0,0,85.48,81.4l7.435-3.619,7.652,3.646A7.262,7.262,0,0,0,110.88,73.87l-1.146-8.2,5.619-5.926a7.264,7.264,0,0,0-3.793-12.373Zm-1.416,7.307-6.886,7.263a3.633,3.633,0,0,0-.962,3l1.4,9.924-9.234-4.4a3.633,3.633,0,0,0-3.153.013l-9,4.389c.018-.086.032-.173.044-.26l1.3-9.882a3.632,3.632,0,0,0-.987-2.994l-6.967-7.2.123-.021,9.942-1.848A3.634,3.634,0,0,0,88.3,50.8l4.693-8.834,4.875,8.967a3.632,3.632,0,0,0,2.558,1.842l9.88,1.743c-.054.05-.107.1-.158.157Z"/><path d="M93,21.8a3.633,3.633,0,0,0,0-7.266h0A3.633,3.633,0,0,0,93,21.8Z"/></g></g></svg>