<svg xmlns="http://www.w3.org/2000/svg" width="103.5" height="103.5" viewBox="0 0 103.5 103.5"><g transform="translate(15.363)"><path d="M151.6,0c-.412,0-.82.021-1.222.06A2.022,2.022,0,0,0,149.9,0H88.938A12.952,12.952,0,0,0,76,12.938v8.086a2.021,2.021,0,0,0,4.043,0V12.938a8.9,8.9,0,0,1,8.895-8.895h53.457a12.483,12.483,0,0,0-3.324,8.49,2.019,2.019,0,0,0,.01.2,2.019,2.019,0,0,0-.01.2V26.751a2.021,2.021,0,1,0,4.043,0v-12.2h19a2.022,2.022,0,0,0,2.021-2.021A12.547,12.547,0,0,0,151.6,0Zm-8.245,10.512a8.489,8.489,0,0,1,16.49,0Z" transform="translate(-76)"/></g><g transform="translate(5.711 10.914)"><path d="M90.838,53.99H77.993a2.021,2.021,0,0,0,0,4.043h8.222l-22.93,22.93L49.843,67.522a2.022,2.022,0,0,0-2.859,0L28.841,85.665A2.021,2.021,0,1,0,31.7,88.523L48.414,71.81,61.855,85.251a2.022,2.022,0,0,0,2.859,0l24.1-24.1v7.708a2.021,2.021,0,0,0,4.043,0V56.011A2.022,2.022,0,0,0,90.838,53.99Z" transform="translate(-28.249 -53.99)"/></g><g transform="translate(0 47.707)"><path d="M3.45,236.592a2.02,2.02,0,0,0-2.858,0,2.021,2.021,0,0,0,1.429,3.451,2.021,2.021,0,0,0,1.429-3.451Z" transform="translate(0 -236)"/></g><g transform="translate(4.447 43.266)"><path d="M109.734,234.242a2.021,2.021,0,0,0-2.021-2.021H92.35V216.857a2.022,2.022,0,0,0-2.021-2.021,19.406,19.406,0,1,0,5.658,37.97v8.924a8.49,8.49,0,0,1-16.98,0c0-.063,0-.125-.009-.186a2.046,2.046,0,0,0,.012-.218,2.022,2.022,0,0,0-2.021-2.021H36.959V216.05a2.021,2.021,0,0,0-4.043,0V259.3H24.021A2.022,2.022,0,0,0,22,261.326a12.952,12.952,0,0,0,12.938,12.938H87.5a12.547,12.547,0,0,0,12.533-12.533V251.215c0-.056,0-.111-.008-.166A19.418,19.418,0,0,0,109.734,234.242Zm-74.8,35.979a8.91,8.91,0,0,1-8.663-6.873h48.8a12.492,12.492,0,0,0,3.216,6.873ZM90.328,249.6a15.364,15.364,0,0,1-2.021-30.594v15.231a2.022,2.022,0,0,0,2.021,2.021h15.231A15.387,15.387,0,0,1,90.328,249.6Z" transform="translate(-22 -214.029)"/></g><g transform="translate(77.625 32.754)"><path d="M386.021,162.029A2.022,2.022,0,0,0,384,164.05v21.832a2.022,2.022,0,0,0,2.021,2.021h21.832a2.022,2.022,0,0,0,2.021-2.021A23.881,23.881,0,0,0,386.021,162.029Zm2.021,21.832V166.174a19.846,19.846,0,0,1,17.687,17.687Z" transform="translate(-384 -162.029)"/></g><g transform="translate(23.247 65.496)"><path d="M134.406,324H117.021a2.021,2.021,0,0,0,0,4.043h17.385a2.021,2.021,0,0,0,0-4.043Z" transform="translate(-115 -324)"/></g><g transform="translate(48.617 75.199)"><path d="M243.95,372.592a2.02,2.02,0,1,0,.592,1.429A2.036,2.036,0,0,0,243.95,372.592Z" transform="translate(-240.5 -372)"/></g><g transform="translate(23.247 75.199)"><path d="M134.406,372H117.021a2.021,2.021,0,0,0,0,4.043h17.385a2.021,2.021,0,0,0,0-4.043Z" transform="translate(-115 -372)"/></g><g transform="translate(23.247 55.793)"><path d="M123.979,276h-6.958a2.021,2.021,0,0,0,0,4.043h6.958a2.021,2.021,0,0,0,0-4.043Z" transform="translate(-115 -276)"/></g></svg>