<svg xmlns="http://www.w3.org/2000/svg" width="110.288" height="100.988" viewBox="0 0 110.288 100.988"><path d="M124.45,16H76.658a1.766,1.766,0,0,0-1.838,1.683v1.683H49.086a1.766,1.766,0,0,0-1.838,1.683H25.625L18.66,17.861a1.986,1.986,0,0,0-1.788.074A1.657,1.657,0,0,0,16,19.366V42.93a1.657,1.657,0,0,0,.872,1.432,1.986,1.986,0,0,0,1.788.074l6.964-3.189h3.242V54.712a1.583,1.583,0,0,0,.309.934l6.8,9.333L23.989,90.058h-6.15A1.766,1.766,0,0,0,16,91.741V115.3a1.766,1.766,0,0,0,1.838,1.683H77.52c10.169-.005,19.223-5.9,22.569-14.692l9.55-25.14,7.348-18.5a1.557,1.557,0,0,0,.111-.575V46.3h7.353a1.766,1.766,0,0,0,1.838-1.683V17.683A1.766,1.766,0,0,0,124.45,16ZM75.014,57.148,82,69.949,74.918,86.821a5.559,5.559,0,0,1-5.147,3.237H55.52l8.13-17.867h0c0-.007.008-.014.012-.022l7.353-16.831a1.56,1.56,0,0,0,.132-.625V42.93H74.82V56.4a1.567,1.567,0,0,0,.194.753ZM74.82,22.733V39.564h-23.9V22.733ZM19.676,22.09l3.676,1.683V38.524l-3.676,1.683Zm7.353,15.791V24.416H47.248V37.881H40.52l-.252-2.075a5.592,5.592,0,0,0-6-4.65,5.461,5.461,0,0,0-5.4,5.228v1.5Zm5.514-1.5a1.95,1.95,0,0,1,1.929-1.867,2,2,0,0,1,2.142,1.66l1.455,11.988a1.669,1.669,0,0,0,.807,1.215,9.449,9.449,0,0,1,4.7,8.034v.664h3.676v-.664a12.65,12.65,0,0,0-5.616-10.368l-.7-5.8H45.41V46.3h3.676V42.93h3.676V46.3h3.676V42.93h3.676V46.3h3.676V42.93h3.676V54.388L60.876,69.479l-21.652-6.1L32.543,54.2Zm6.541,30.477,20.394,5.746L51.537,90.058H28ZM96.617,101.19c-2.832,7.44-10.492,12.427-19.1,12.432H19.676v-20.2H69.771a9.264,9.264,0,0,0,8.578-5.395l6.762-16.1,20.434,5.757Zm16.8-43.408-6.644,16.732L85.3,68.463,78.5,56V46.3h5.514v8.416h3.676V32.831a1.845,1.845,0,0,1,3.676,0V44.613H95.04V29.465a1.845,1.845,0,0,1,3.676,0V44.613h3.676V32.831a1.845,1.845,0,0,1,3.676,0V44.613h3.676V39.564a1.845,1.845,0,0,1,3.676,0Zm9.191-14.852H117.1V39.564a4.933,4.933,0,0,0-2.33-4.123,5.94,5.94,0,0,0-5.022-.636V32.831a4.943,4.943,0,0,0-2.415-4.178,5.946,5.946,0,0,0-5.132-.515,5.662,5.662,0,0,0-10.64,0,5.946,5.946,0,0,0-5.132.515,4.943,4.943,0,0,0-2.415,4.178v10.1H78.5V19.366h44.115Z" transform="translate(-16 -16)"/></svg>