<svg xmlns="http://www.w3.org/2000/svg" width="100.472" height="100.472" viewBox="0 0 100.472 100.472"><path d="M98.8,70.33H93.774V60.283h1.675a1.674,1.674,0,0,0,1.184-2.858L83.727,44.519V33.491H88.75a5.024,5.024,0,1,0,0-10.047H58.924A10.128,10.128,0,0,0,56.934,21V6.7a6.7,6.7,0,0,0-13.4,0V21a10.128,10.128,0,0,0-1.989,2.445H11.722a5.024,5.024,0,1,0,0,10.047h5.024V44.519L3.84,57.425a1.674,1.674,0,0,0,1.184,2.858H6.7V70.33H1.675A1.675,1.675,0,0,0,0,72.005v3.349a5.024,5.024,0,0,0,5.024,5.024H31.816a5.024,5.024,0,0,0,5.024-5.024V72.005a1.675,1.675,0,0,0-1.675-1.675H30.142V60.283h1.675A1.674,1.674,0,0,0,33,57.425L20.094,44.519V33.491H41.549a10.128,10.128,0,0,0,1.989,2.445V90.425H31.816A1.675,1.675,0,0,0,30.142,92.1v6.7a1.675,1.675,0,0,0,1.675,1.675h36.84A1.675,1.675,0,0,0,70.331,98.8V92.1a1.675,1.675,0,0,0-1.675-1.675H56.934V35.935a10.128,10.128,0,0,0,1.989-2.445H80.378V44.519L67.472,57.425a1.674,1.674,0,0,0,1.184,2.858h1.675V70.33H65.307a1.675,1.675,0,0,0-1.675,1.675v3.349a5.024,5.024,0,0,0,5.024,5.024H95.449a5.024,5.024,0,0,0,5.024-5.024V72.005A1.675,1.675,0,0,0,98.8,70.33ZM33.491,75.354a1.675,1.675,0,0,1-1.675,1.675H5.024a1.675,1.675,0,0,1-1.675-1.675V73.68H33.491Zm-13.4-5.024H16.745V66.981h3.349Zm6.7,0H23.444V65.307a1.675,1.675,0,0,0-1.675-1.675h-6.7A1.675,1.675,0,0,0,13.4,65.307V70.33H10.047V60.283H26.793ZM9.066,56.934,18.42,47.58l9.354,9.354Zm2.656-26.793a1.675,1.675,0,1,1,0-3.349H40.339a9.407,9.407,0,0,0,0,3.349ZM46.887,6.7a3.349,3.349,0,1,1,6.7,0V19.006a9.859,9.859,0,0,0-6.7,0ZM66.982,97.123H33.491V93.774H66.982Zm-13.4-6.7h-6.7v-52.5a9.859,9.859,0,0,0,6.7,0Zm-3.349-55.26a6.7,6.7,0,1,1,6.7-6.7A6.7,6.7,0,0,1,50.236,35.165Zm9.9-8.373H88.751a1.675,1.675,0,1,1,0,3.349H60.133A9.407,9.407,0,0,0,60.133,26.793ZM82.052,47.58l9.354,9.354H72.7Zm-8.373,12.7H90.425V70.33H87.076V65.307A1.675,1.675,0,0,0,85.4,63.632H78.7a1.675,1.675,0,0,0-1.675,1.675V70.33H73.68ZM83.727,70.33H80.378V66.981h3.349Zm13.4,5.024a1.675,1.675,0,0,1-1.675,1.675H68.656a1.675,1.675,0,0,1-1.675-1.675V73.68H97.123Zm0,0" transform="translate(0)"/></svg>