<svg xmlns="http://www.w3.org/2000/svg" width="100.466" height="95.148" viewBox="0 0 100.466 95.148"><g transform="translate(0 -13.55)"><g transform="translate(0 13.55)"><g transform="translate(0 0)"><path d="M9.773,35.441a1.962,1.962,0,0,0,3.78,0l.094-.337A11.463,11.463,0,0,1,21.553,27.2l.338-.094a1.962,1.962,0,0,0,0-3.78l-.337-.094a11.463,11.463,0,0,1-7.907-7.907l-.094-.338a1.962,1.962,0,0,0-3.78,0l-.094.337a11.463,11.463,0,0,1-7.908,7.907l-.337.094a1.962,1.962,0,0,0,0,3.78l.337.094A11.463,11.463,0,0,1,9.679,35.1ZM6.859,25.213a15.506,15.506,0,0,0,4.8-4.8,15.5,15.5,0,0,0,4.8,4.8,15.508,15.508,0,0,0-4.8,4.8A15.508,15.508,0,0,0,6.859,25.213Z" transform="translate(0 -13.55)"/><path d="M416.788,329.207l-.331-.093a11.164,11.164,0,0,1-7.7-7.7l-.092-.33a1.962,1.962,0,0,0-1.889-1.434h0a1.962,1.962,0,0,0-1.89,1.433l-.093.33a11.164,11.164,0,0,1-7.7,7.7l-.33.092a1.962,1.962,0,0,0,0,3.779l.33.092a11.164,11.164,0,0,1,7.7,7.7l.092.33a1.963,1.963,0,0,0,1.89,1.433h0a1.962,1.962,0,0,0,1.889-1.434l.092-.33a11.164,11.164,0,0,1,7.7-7.7l.33-.092a1.962,1.962,0,0,0,0-3.779Zm-10.014,6.5a15.2,15.2,0,0,0-4.615-4.615,15.207,15.207,0,0,0,4.615-4.615,15.2,15.2,0,0,0,4.615,4.615A15.2,15.2,0,0,0,406.774,335.712Z" transform="translate(-317.755 -259.586)"/><path d="M113.971,128.273h-3.785l-3.212-19.453a37.507,37.507,0,1,0-60.26-17.587,11.351,11.351,0,0,1-3.948,2.007l-.337.094a1.962,1.962,0,0,0,0,3.779l.337.094a11.463,11.463,0,0,1,7.908,7.908l.094.337a1.962,1.962,0,0,0,1.889,1.433h0a1.962,1.962,0,0,0,1.889-1.434l.057-.2a37.853,37.853,0,0,0,3.644,3.571l-3.212,19.453H51.253a1.962,1.962,0,1,0,0,3.924h62.718a1.962,1.962,0,1,0,0-3.924ZM54.117,98.086a15.463,15.463,0,0,0-1.458,1.942,15.5,15.5,0,0,0-4.334-4.488c-.155-.107-.31-.215-.469-.316.087-.055.17-.115.256-.172a15.6,15.6,0,0,0,4.548-4.631,15.5,15.5,0,0,0,4.8,4.8A15.491,15.491,0,0,0,54.117,98.086Zm2.36,3.308a11.447,11.447,0,0,1,6.073-4.186l.337-.094a1.962,1.962,0,0,0,0-3.779l-.338-.095a11.462,11.462,0,0,1-7.907-7.907L54.548,85a1.963,1.963,0,0,0-1.889-1.434h0a1.962,1.962,0,0,0-1.889,1.433l-.095.338a11.266,11.266,0,0,1-.875,2.2,33.6,33.6,0,1,1,54.38,18.515,94.353,94.353,0,0,1-43.136,0A33.9,33.9,0,0,1,56.477,101.394Zm2.538,26.88h0L61.784,111.5l.2-1.219q4.369.941,8.814,1.476a98.647,98.647,0,0,0,23.625,0q4.438-.536,8.814-1.476l.2,1.22,2.769,16.771Z" transform="translate(-32.952 -37.049)"/><path d="M296.5,114.117a22.655,22.655,0,0,1,13.138,20.515,1.962,1.962,0,0,0,3.924,0,26.59,26.59,0,0,0-15.42-24.079,1.962,1.962,0,0,0-1.643,3.564Z" transform="translate(-237.4 -91.374)"/><path d="M260.011,102.788a1.986,1.986,0,0,0,.181.338,1.878,1.878,0,0,0,.243.3,1.973,1.973,0,0,0,.3.245,2.087,2.087,0,0,0,.339.181,1.977,1.977,0,0,0,.367.112,1.93,1.93,0,0,0,.382.037,1.978,1.978,0,0,0,.385-.037,2.067,2.067,0,0,0,.367-.112,1.986,1.986,0,0,0,.338-.181,1.99,1.99,0,0,0,.544-.544,1.984,1.984,0,0,0,.181-.338,2.071,2.071,0,0,0,.112-.367,1.966,1.966,0,0,0,.037-.385,1.944,1.944,0,0,0-.037-.382,1.978,1.978,0,0,0-.112-.367,1.935,1.935,0,0,0-.181-.339,1.947,1.947,0,0,0-.544-.542,1.986,1.986,0,0,0-.338-.181,2.068,2.068,0,0,0-.367-.112,1.941,1.941,0,0,0-.767,0,1.973,1.973,0,0,0-.367.112,2.071,2.071,0,0,0-.339.181,1.969,1.969,0,0,0-.3.243,1.878,1.878,0,0,0-.243.3,2.01,2.01,0,0,0-.181.339,1.981,1.981,0,0,0-.112.367,1.932,1.932,0,0,0-.039.382,1.969,1.969,0,0,0,.039.385A2.074,2.074,0,0,0,260.011,102.788Z" transform="translate(-208.87 -83.097)"/><path d="M216.611,404.577a1.953,1.953,0,0,0-1.106-.342.821.821,0,0,1-.82-.82,1.962,1.962,0,0,0-1.753-1.951,2,2,0,0,0-.209-.012H199.208a1.937,1.937,0,0,0-.209.012,1.962,1.962,0,0,0-1.753,1.951.821.821,0,0,1-.82.82,1.963,1.963,0,0,0-1.962,1.962v4.869a1.962,1.962,0,0,0,1.962,1.962.821.821,0,0,1,.82.82,1.962,1.962,0,0,0,1.962,1.962h13.515a1.962,1.962,0,0,0,1.962-1.962.821.821,0,0,1,.82-.82,1.962,1.962,0,0,0,1.962-1.962V406.2A1.959,1.959,0,0,0,216.611,404.577Zm-5.425,7.309h-10.44a4.774,4.774,0,0,0-2.357-2.357v-1.795a4.775,4.775,0,0,0,2.178-2.007,37.562,37.562,0,0,0,10.8,0,4.775,4.775,0,0,0,2.178,2.007v1.795h0A4.774,4.774,0,0,0,211.186,411.886Z" transform="translate(-156.306 -325.338)"/></g></g></g></svg>