<svg xmlns="http://www.w3.org/2000/svg" width="62.357" height="72.75" viewBox="0 0 62.357 72.75"><path d="M55.393,2.25A11.485,11.485,0,0,0,46.77,21.3a11.349,11.349,0,0,0,6.2,3.654v7l-17.294,9-17.278-9v-7A11.472,11.472,0,1,0,7.342,21.3a11.349,11.349,0,0,0,6.2,3.654v9.321a1.136,1.136,0,0,0,.633,1.023l19.081,9.873V52.3A11.468,11.468,0,1,0,44.3,55.952,11.349,11.349,0,0,0,38.1,52.3V45.169L57.179,35.3a1.136,1.136,0,0,0,.633-1.023V24.952a11.482,11.482,0,0,0-2.42-22.7ZM9.339,13.731a6.625,6.625,0,1,1,6.625,6.625A6.632,6.632,0,0,1,9.339,13.731ZM42.3,63.519a6.625,6.625,0,1,1-6.625-6.625A6.632,6.632,0,0,1,42.3,63.519ZM55.393,20.373a6.625,6.625,0,1,1,6.625-6.625A6.632,6.632,0,0,1,55.393,20.373Z" transform="translate(-4.5 -2.25)"/></svg>