<svg xmlns="http://www.w3.org/2000/svg" width="101.18" height="114.844" viewBox="0 0 101.18 114.844"><g transform="translate(-0.36)"><path d="M194.239,175.063a1.793,1.793,0,0,0-.646-.022,4.283,4.283,0,0,1-3.788-4.247,1.884,1.884,0,1,0-3.768,0,8.059,8.059,0,0,0,5.925,7.76v1.884a1.884,1.884,0,1,0,3.768,0v-1.77a8.044,8.044,0,0,0-1.648-15.917,4.277,4.277,0,1,1,4.277-4.277,1.884,1.884,0,1,0,3.768,0,8.059,8.059,0,0,0-6.4-7.875v-1.715a1.884,1.884,0,1,0-3.768,0v1.829a8.044,8.044,0,0,0,2.119,15.8,4.274,4.274,0,0,1,.156,8.546Zm0,0" transform="translate(-141.956 -112.386)"/><path d="M104.2,133.809a27.317,27.317,0,1,0,27.317-27.317A27.316,27.316,0,0,0,104.2,133.809Zm27.317-23.549a23.549,23.549,0,1,1-23.549,23.549A23.549,23.549,0,0,1,131.512,110.26Zm0,0" transform="translate(-79.385 -81.416)"/><path d="M88.73,333.861l-14.757,6.972a12.019,12.019,0,0,0-10.247-6.323L50.1,334.136a14.387,14.387,0,0,1-6.191-1.6l-1.386-.718a24.45,24.45,0,0,0-22.647.024l.086-3.14a1.884,1.884,0,0,0-1.831-1.935L3.2,326.357a1.883,1.883,0,0,0-1.934,1.831l-.9,32.78A1.884,1.884,0,0,0,2.192,362.9l14.938.411h.052a1.884,1.884,0,0,0,1.884-1.832l.043-1.568,3.881-2.078a6.657,6.657,0,0,1,4.968-.544l23.174,6.5c.04.012.081.021.122.03a24.8,24.8,0,0,0,5.093.525,25.134,25.134,0,0,0,10.5-2.291,1.745,1.745,0,0,0,.234-.129l33.6-21.733a1.885,1.885,0,0,0,.617-2.509,9.516,9.516,0,0,0-12.566-3.828ZM4.179,359.189l.8-29.015,11.171.307-.8,29.016Zm60.97-.493a21.358,21.358,0,0,1-13.061,1.458l-23.111-6.487a10.416,10.416,0,0,0-7.765.849l-1.983,1.062.531-19.291a20.707,20.707,0,0,1,21.036-1.122l1.386.718A18.194,18.194,0,0,0,50,337.9l13.623.374a8.262,8.262,0,0,1,7.852,6.584l-20.292-.56a1.884,1.884,0,1,0-.1,3.767l22.394.616h.052a1.884,1.884,0,0,0,1.882-1.832,11.955,11.955,0,0,0-.182-2.444l15.135-7.152.044-.021a5.756,5.756,0,0,1,6.509.912Zm0,0" transform="translate(0 -249.508)"/><path d="M215.971,19.78V1.884a1.884,1.884,0,1,0-3.768,0v17.9a1.884,1.884,0,1,0,3.768,0Zm0,0" transform="translate(-161.96)"/><path d="M275.971,50.361V41.884a1.884,1.884,0,1,0-3.768,0v8.477a1.884,1.884,0,0,0,3.768,0Zm0,0" transform="translate(-207.832 -30.581)"/><path d="M155.971,50.361V41.884a1.884,1.884,0,1,0-3.768,0v8.477a1.884,1.884,0,0,0,3.768,0Zm0,0" transform="translate(-116.088 -30.581)"/></g></svg>