<svg xmlns="http://www.w3.org/2000/svg" width="107.712" height="107.677" viewBox="0 0 107.712 107.677"><g transform="translate(0 -0.082)"><path d="M82.659,57.077V40.2L108.107,28.95,54.257.082.509,28.946,25.857,40.2V57.077Zm-6.311-6.311H32.169V39.173L54.258,28.128,76.347,39.173ZM54.259,7.244,93.731,28.4l-13.167,5.82L54.258,21.072l-26.3,13.151-13.1-5.815Z" transform="translate(-0.402)"/><path d="M98.245,301.005c-1.729,0-18.706,3.189-44.6,3.154a315.951,315.951,0,0,1-44.179-3.154c-2.943,0-5.531,1.933-7.285,5.441a25.577,25.577,0,0,0,0,20.674c1.755,3.509,4.342,5.441,7.285,5.441a327.515,327.515,0,0,1,34.922-2.993v15.807l9.467-9.467,9.467,9.467V329.568a323.6,323.6,0,0,1,34.922,2.993c2.943,0,5.531-1.932,7.285-5.441a25.577,25.577,0,0,0,0-20.674C103.776,302.938,101.188,301.005,98.245,301.005ZM7.827,324.3a19.388,19.388,0,0,1,0-15.028c.7-1.4,1.34-1.842,1.567-1.933.7.1,1.4,1.3,1.714,1.933a17.51,17.51,0,0,1,1.516,7.514,17.513,17.513,0,0,1-1.515,7.514c-.317.633-1.014,1.834-1.714,1.933C9.166,326.139,8.528,325.7,7.827,324.3Zm9.744.887a25.281,25.281,0,0,0,1.363-8.4,25.282,25.282,0,0,0-1.361-8.4q13.374,1.541,26.817,1.94v12.926C35.407,323.522,26.428,324.169,17.571,325.184Zm36.285,1.8L50.7,330.139V310.455c1.052.01,5.259.01,6.311,0v19.684Zm9.467-16.656q13.431-.4,26.817-1.94a26.575,26.575,0,0,0,0,16.8c-8.857-1.015-17.836-1.662-26.818-1.93ZM99.885,324.3c-.7,1.4-1.339,1.841-1.566,1.933-.7-.1-1.4-1.3-1.714-1.933a19.388,19.388,0,0,1,0-15.028c.315-.629,1.013-1.834,1.714-1.933.227.091.865.53,1.567,1.933a19.389,19.389,0,0,1,0,15.028Z" transform="translate(0 -237.616)"/></g></svg>