<svg xmlns="http://www.w3.org/2000/svg" width="648.406" height="594.003" viewBox="0 0 648.406 594.003"><defs><style>.a{fill:#ffcf2d;}.b,.e,.i,.s,.v,.w,.y{fill:#fff;}.b,.c{stroke:#ffcf2d;}.b,.c,.d,.e,.g,.l,.n,.x,.z{stroke-linecap:round;}.aa,.b,.c,.d,.e,.f,.g,.i,.l,.n,.o,.p,.v,.x,.y,.z{stroke-miterlimit:10;}.aa,.b,.c,.d,.e,.f,.g,.i,.l,.p,.v,.x,.y,.z{stroke-width:6px;}.aa,.c,.d,.g,.l,.n,.o,.p,.x,.z{fill:none;}.d,.e,.i,.y{stroke:#3fb1b5;}.f,.q{fill:#66b0f0;}.f,.p,.v{stroke:#66b0f0;}.aa,.f,.p,.v,.x,.y{stroke-linejoin:round;}.g,.o,.x{stroke:#fff;}.h{fill:#3fb1b5;}.j{fill:#fe5244;}.k{fill:#e57281;}.l,.n{stroke:#9a3b82;}.m{fill:#9a3b82;}.n,.o{stroke-width:5px;}.r{fill:#d0f0e4;}.s{opacity:0.4;}.t{fill:#a0505a;}.u{fill:#73325a;}.z{stroke:#73325a;}.aa{stroke:#fe5244;}</style></defs><g transform="translate(-1009.643 -443.86)"><g transform="translate(1083.883 446.863)"><path class="a" d="M1918.927,519l44.814,43.251,45.04,243.815H1586.3Z" transform="translate(-1586.3 -502.665)"/><g transform="translate(332.877)"><path class="b" d="M3101.25,506.11,3056.3,462.723l7.518-7.812c11.073-11.5,31.023-10.19,42.527.86h0c11.5,11.073,13.519,31.023,2.446,42.527Z" transform="translate(-3056.3 -446.863)"/><line class="c" x1="44.972" y1="43.387" transform="translate(7.495 8.047)"/><path class="d" d="M3288.2,471.051l5.027-3.85a15.21,15.21,0,0,1,21.49,3.057l123.549,150.406L3375.02,761.718" transform="translate(-3235.687 -460.173)"/><circle class="b" cx="6.929" cy="6.929" r="6.929" transform="translate(193.635 154.309)"/><path class="b" d="M3533.9,1708.9h33.763a17.574,17.574,0,0,1,17.572,17.572v.5H3516.3v-.5A17.608,17.608,0,0,1,3533.9,1708.9Z" transform="translate(-3412.135 -1423.116)"/></g></g><g transform="translate(1087.546 520.716)"><g transform="translate(59.131)"><path class="e" d="M2091.881,951.576H1878.138a14.525,14.525,0,0,1-14.538-14.538v-149.5A14.525,14.525,0,0,1,1878.138,773h213.743a14.525,14.525,0,0,1,14.538,14.538V937.015A14.53,14.53,0,0,1,2091.881,951.576Z" transform="translate(-1863.6 -773)"/><path class="f" d="M2129.766,972.791H1918.084a5.687,5.687,0,0,1-5.684-5.684V824.084a5.687,5.687,0,0,1,5.684-5.684h211.682a5.687,5.687,0,0,1,5.684,5.684v143A5.678,5.678,0,0,1,2129.766,972.791Z" transform="translate(-1901.35 -808.119)"/><g transform="translate(18.976 16.304)"><path class="g" d="M1952.744,852.337h-3.351a2,2,0,0,1-1.993-1.993v-3.351a2,2,0,0,1,1.993-1.993h3.351a2,2,0,0,1,1.993,1.993v3.351A2.01,2.01,0,0,1,1952.744,852.337Z" transform="translate(-1947.4 -845)"/><path class="g" d="M2020.044,852.337h-3.351a2,2,0,0,1-1.993-1.993v-3.351a2,2,0,0,1,1.993-1.993h3.351a2,2,0,0,1,1.993,1.993v3.351A2,2,0,0,1,2020.044,852.337Z" transform="translate(-1999.46 -845)"/><path class="g" d="M2087.344,852.337h-3.351a2,2,0,0,1-1.993-1.993v-3.351a2,2,0,0,1,1.993-1.993h3.351a2,2,0,0,1,1.993,1.993v3.351A1.981,1.981,0,0,1,2087.344,852.337Z" transform="translate(-2051.52 -845)"/></g><g transform="translate(83.559 178.576)"><path class="e" d="M2315.57,1612.573H2232.6l16.281-50.973h50.384Z" transform="translate(-2232.6 -1561.6)"/><path class="h" d="M2261.4,1592.17l9.76-30.57h50.385Z" transform="translate(-2254.878 -1561.6)"/></g><g transform="translate(168.929 17.459)"><path class="g" d="M2656.769,889.819h-40.33a6.833,6.833,0,0,1-6.839-6.839V856.939a6.833,6.833,0,0,1,6.839-6.839h40.33a6.833,6.833,0,0,1,6.839,6.839V882.98A6.833,6.833,0,0,1,2656.769,889.819Z" transform="translate(-2609.6 -850.1)"/><line class="g" x2="30.774" transform="translate(11.526 9.284)"/><line class="g" x2="30.774" transform="translate(11.526 16.304)"/><line class="g" x2="30.774" transform="translate(11.526 23.324)"/><line class="g" x2="30.774" transform="translate(11.526 30.344)"/></g></g><g transform="translate(0 18.705)"><g transform="translate(15.449 54.845)"><path class="i" d="M1941.621,1188.922h-160.3l-9.4,13.474a26.993,26.993,0,0,1-43.976.43L1670.7,1124.09c2.4,2.989,13.383-.34,23.845-7.224,10.62-7,17.482-15.806,15.33-19.067l39.7,50.588,12.16-21.467a24.017,24.017,0,0,1,15.285-11.254l41.372-8.763h35.665l39.311,8.673a24.1,24.1,0,0,1,15.919,12.205Z" transform="translate(-1670.7 -1097.8)"/><line class="d" x1="11.39" y1="22.486" transform="translate(215.532 67.708)"/><line class="d" y1="22.26" x2="11.277" transform="translate(109.713 70.04)"/><line class="d" x2="25.838" y2="33.039" transform="translate(63.428 30.955)"/><path class="d" d="M2421.3,1163.8l9.511,11.571,21.286-18.07" transform="translate(-2251.329 -1143.826)"/><path class="d" d="M2277.731,1164.026l-9.239,11.8L2245.1,1157.3" transform="translate(-2115.029 -1143.826)"/><path class="d" d="M1743.592,1142.5c2.151,3.283-4.733,12.206-15.421,19.293-10.507,6.974-21.648,10.326-24.071,7.314" transform="translate(-1696.537 -1132.378)"/><circle class="d" cx="2.559" cy="2.559" r="2.559" transform="translate(37.386 10.734)"/><circle class="d" cx="2.559" cy="2.559" r="2.559" transform="translate(163.744 26.811)"/><circle class="d" cx="2.559" cy="2.559" r="2.559" transform="translate(163.744 47.418)"/><path class="h" d="M2114.1,1514.76l10.213-14.561v14.561Z" transform="translate(-2013.694 -1409.078)"/></g><path class="j" d="M1691.839,1109.7c-10.462,6.884-21.444,10.213-23.845,7.224a.958.958,0,0,1-.113-.159,3.314,3.314,0,0,1,0-3.012c1.563-4.1,8.016-10.439,16.214-15.829,6.522-4.3,12.953-7.292,17.414-8.22,2.582-.521,4.506-.362,5.435.634h0l.226.272h0C1709.3,1093.872,1702.459,1102.7,1691.839,1109.7Z" transform="translate(-1652.794 -1036.468)"/><path class="k" d="M1641.52,928.833c-5.956,3.918-12.092,6.7-16.712,7.79h0l-20.675-29.166a9.016,9.016,0,0,1,2.174-12.591l18.614-13.089-10.552-17.957a5.457,5.457,0,0,1,1.97-7.5,5.377,5.377,0,0,1,2.717-.725,5.448,5.448,0,0,1,4.6,2.514l32.993,51.313.226.362h0C1658.979,913,1652.14,921.836,1641.52,928.833Z" transform="translate(-1602.474 -855.6)"/><path class="l" d="M1673.939,972.1l11.526,17.867a3.618,3.618,0,0,1-1.087,4.982l-2.559,1.676a3.62,3.62,0,0,1-5.027-1.042l-10.892-16.3" transform="translate(-1651.538 -945.719)"/><path class="l" d="M1685.1,1075.6a3.66,3.66,0,0,1-1.087,5.072l-2.332,1.472a3.633,3.633,0,0,1-4.982-1.064" transform="translate(-1659.892 -1025.782)"/><path class="l" d="M1616.714,1029.2l10.666,15.851a3.627,3.627,0,0,1-1.109,5.072l-2.174,1.2a3.63,3.63,0,0,1-4.914-.974l-6.182-8.718" transform="translate(-1610.617 -989.889)"/><path class="k" d="M1715.106,1002.538l-5.412-8.4a5.9,5.9,0,0,0-8.265-1.7l-13.428,9.1s3.895,7,13.36,1.449l3.17,5.05h0a13.729,13.729,0,0,0-4.121,19.135Z" transform="translate(-1668.633 -960.668)"/><path class="l" d="M1714.4,1003.538l-5.412-8.4a5.9,5.9,0,0,0-8.265-1.7L1688,1002.315s3.895,7,13.36,1.449l3.17,5.05h0a13.729,13.729,0,0,0-4.121,19.135" transform="translate(-1668.633 -961.442)"/><path class="m" d="M1700.252,1109.778c-5.956,3.917-12.092,6.7-16.712,7.79h0l-5.14-7.246c2.876-3.759,8.016-8.288,14.108-12.3,6.522-4.3,12.953-7.292,17.414-8.22,2.582-.521,4.506-.362,5.435.634h0l.226.272h0c.023.045.045.068.068.113.023.023.023.045.045.091s.045.068.068.113C1717.3,1094.493,1710.533,1102.985,1700.252,1109.778Z" transform="translate(-1661.207 -1036.545)"/><g transform="translate(153.106 3.348)"><g transform="translate(9.918 40.673)"><path class="k" d="M2358.233,1050v19.9c0,5.774-8.016,10.439-17.866,10.439-9.873,0-17.866-4.665-17.866-10.439V1050Z" transform="translate(-2322.478 -1050)"/><path class="m" d="M2327.654,1077.287c-3.238-1.88-5.254-4.506-5.254-7.382V1050h35.756v5.525a14.062,14.062,0,0,1-8.786,13.021Z" transform="translate(-2322.4 -1050)"/></g><path class="k" d="M2334.238,971.467v.34a6.224,6.224,0,0,1-6.227,6.227h-4.1a12.806,12.806,0,0,1-12.432,9.715h-10.145a12.755,12.755,0,0,1-12.409-9.715h-4.1a6.224,6.224,0,0,1-6.227-6.227v-.34a6.224,6.224,0,0,1,6.227-6.227h3.714v-4.914A10.424,10.424,0,0,1,2297.463,950a12.279,12.279,0,0,0,11.3,6.046,35.522,35.522,0,0,0,8.673-1.449,5.369,5.369,0,0,1,6.68,3.782,10.864,10.864,0,0,1,.181,1.925v4.914h3.714A6.258,6.258,0,0,1,2334.238,971.467Z" transform="translate(-2278.6 -931.972)"/><path class="m" d="M2341.5,903.632h-2.853v-5.457a5.506,5.506,0,0,0-.181-1.381,5.369,5.369,0,0,0-6.68-3.782,35.339,35.339,0,0,1-8.673,1.449,12.279,12.279,0,0,1-11.3-6.046,10.424,10.424,0,0,0-8.922,10.326v4.914h-3.555s-4.076-14.742-1.019-18.908c3.012-4.1,6.635-2.31,6.635-2.31s-2.174-12.273,9.964-12.047c12.115.227,27.875,14.289,29.03,16.87C2345.757,891.223,2341.5,903.632,2341.5,903.632Z" transform="translate(-2292.972 -870.386)"/><g transform="translate(4.235 27.082)"><g transform="translate(0 9.198)"><path class="n" d="M2486.4,1034.97a4.373,4.373,0,0,1,4.37-4.37" transform="translate(-2443.579 -1030.6)"/><path class="n" d="M2301.671,1034.97a4.373,4.373,0,0,0-4.37-4.37" transform="translate(-2297.3 -1030.6)"/></g><g transform="translate(11.186)"><path class="n" d="M2430.114,991.254a7.852,7.852,0,0,0-7.314-.657" transform="translate(-2405.568 -989.982)"/><path class="n" d="M2346.7,991.254a7.853,7.853,0,0,1,7.314-.657" transform="translate(-2346.7 -989.982)"/><path class="n" d="M2402.088,1069.4s-1.744,3.759-7.088,1.789" transform="translate(-2384.063 -1051.416)"/><path class="n" d="M2393.9,1060.8c1.381.091,3.487,0,3.487,0" transform="translate(-2383.212 -1044.764)"/><ellipse class="m" cx="1.132" cy="1.902" rx="1.132" ry="1.902" transform="translate(19.769 6.911)"/><ellipse class="m" cx="1.132" cy="1.902" rx="1.132" ry="1.902" transform="translate(3.533 6.911)"/></g></g><g transform="translate(13.157 30.188)"><path class="o" d="M2346.324,1015.815h-7.133a2.484,2.484,0,0,1-2.491-2.491v-7.133a2.484,2.484,0,0,1,2.491-2.491h7.133a2.484,2.484,0,0,1,2.491,2.491v7.133A2.484,2.484,0,0,1,2346.324,1015.815Z" transform="translate(-2336.7 -1003.7)"/><path class="o" d="M2423.424,1015.815h-7.133a2.484,2.484,0,0,1-2.491-2.491v-7.133a2.484,2.484,0,0,1,2.491-2.491h7.133a2.484,2.484,0,0,1,2.491,2.491v7.133A2.5,2.5,0,0,1,2423.424,1015.815Z" transform="translate(-2396.341 -1003.7)"/><line class="o" x2="5.321" transform="translate(12.138 4.71)"/></g></g></g><g transform="translate(166.399 134.577)"><path class="p" d="M2366.127,1388.609h-24.751a4.073,4.073,0,0,1-4.076-4.076v-13.157a4.073,4.073,0,0,1,4.076-4.076h24.751a4.073,4.073,0,0,1,4.076,4.076v13.157A4.073,4.073,0,0,1,2366.127,1388.609Z" transform="translate(-2337.3 -1367.3)"/><g transform="translate(6.273 5.299)"><path class="q" d="M2375.8,1401.411h-8.378a2.426,2.426,0,0,1-2.423-2.423v-5.865a2.426,2.426,0,0,1,2.423-2.423h8.378a2.426,2.426,0,0,1,2.423,2.423v5.865A2.426,2.426,0,0,1,2375.8,1401.411Z" transform="translate(-2365 -1390.7)"/><path class="q" d="M2436.014,1401.349l-2.582-1.721a2.622,2.622,0,0,1-1.132-2.174v-2.582a2.622,2.622,0,0,1,1.132-2.174l2.582-1.721a.911.911,0,0,1,1.4.815v8.763A.9.9,0,0,1,2436.014,1401.349Z" transform="translate(-2417.06 -1390.796)"/></g></g></g><g transform="translate(1012.643 750.718)"><line class="d" x1="601.148" transform="translate(0 0)"/><g transform="translate(31.023 3.963)"><path class="e" d="M1571.221,1806.2v279.571h-15.783v-53.215a9,9,0,0,0-8.99-8.99H1433.473a9,9,0,0,0-8.99,8.99v53.215H1408.7V1806.2Z" transform="translate(-1408.7 -1806.2)"/><path class="r" d="M1571.7,1806.2v74.184l-163,134.215.023-208.4Z" transform="translate(-1408.7 -1806.2)"/><path class="d" d="M1609.432,1871.114v50.7a8.5,8.5,0,0,1-8.514,8.515h-113.9a8.5,8.5,0,0,1-8.515-8.515v-50.7a8.5,8.5,0,0,1,8.515-8.514h113.9A8.5,8.5,0,0,1,1609.432,1871.114Z" transform="translate(-1462.694 -1849.828)"/><path class="a" d="M1696,2276.455h-56.068L1637.6,2260.4h56.091Z" transform="translate(-1585.766 -2157.548)"/><g transform="translate(79.777 93.59)"><path class="e" d="M1821.371,2219.5a12.651,12.651,0,0,0-12.658,12.659v12.658H1761v-12.658a12.65,12.65,0,0,1,12.658-12.659Z" transform="translate(-1761 -2219.5)"/><path class="e" d="M1875.418,2228.762h-47.712a12.655,12.655,0,0,0-12.206-9.262h47.712A12.675,12.675,0,0,1,1875.418,2228.762Z" transform="translate(-1803.159 -2219.5)"/></g><path class="d" d="M1609.432,2339.814v50.7a8.5,8.5,0,0,1-8.514,8.514h-113.9a8.5,8.5,0,0,1-8.515-8.514v-50.7a8.5,8.5,0,0,1,8.515-8.514h113.9A8.5,8.5,0,0,1,1609.432,2339.814Z" transform="translate(-1462.694 -2212.393)"/><path class="d" d="M1664.6,1982.714a7.311,7.311,0,0,1,7.314-7.314h32.042a7.311,7.311,0,0,1,7.314,7.314" transform="translate(-1606.652 -1937.085)"/><path class="d" d="M1664.6,2451.414a7.311,7.311,0,0,1,7.314-7.314h32.042a7.311,7.311,0,0,1,7.314,7.314" transform="translate(-1606.652 -2299.65)"/></g><rect class="e" width="16.825" height="280.182" transform="translate(560.388 3.963)"/><line class="d" x2="351.128" transform="translate(291.278 284.145)"/></g><g transform="translate(1039.928 640.141)"><path class="e" d="M1446.037,1372.536H1435.87s-14.515-60.484-27.264-62.454-13.406,21.309-13.406,21.309.226-35.394,32.087-30.548C1459.171,1305.689,1446.037,1372.536,1446.037,1372.536Z" transform="translate(-1394.519 -1300.387)"/><path class="d" d="M1465.9,1307.558s29.053-10.734,30.366,69.247" transform="translate(-1449.209 -1305.563)"/><rect class="j" width="47.758" height="38.881" transform="translate(31.455 71.243)"/><path class="e" d="M1657.449,1535.282a12.617,12.617,0,0,1-10.032-.317,17.45,17.45,0,0,1-6.748-5.321,22.211,22.211,0,0,1-4.393-13.813h0c0-13.995-11.141-22.781-15.715-4.257-.317,1.291-.611,2.695-.86,4.257v-.136h0a.568.568,0,0,1,.022-.181v-.09a54.666,54.666,0,0,1,1.472-8.7,41.149,41.149,0,0,1,3.646-9.6,24.454,24.454,0,0,1,3.034-4.393,16.453,16.453,0,0,1,12.885-5.933c10.462,0,18.116,12.319,21.037,24.592C1664.355,1522.058,1663.314,1532.723,1657.449,1535.282Z" transform="translate(-1568.182 -1444.588)"/><path class="d" d="M1655.9,1507.1s20.969-14.923,27.128,42.979" transform="translate(-1596.184 -1458.957)"/><path class="h" d="M1392.195,1363.553c0,3.736-.43,18.025,13.2,18.682s14.991-19.927,14.991-19.927-6.7-18.206-14.108-20.063C1393.757,1339.1,1392.195,1363.553,1392.195,1363.553Z" transform="translate(-1392.193 -1332.55)"/><path class="h" d="M1636.276,1564.455H1619.7C1623.527,1540.474,1636.276,1549.487,1636.276,1564.455Z" transform="translate(-1568.182 -1493.212)"/></g><g transform="translate(1083.906 520.716)"><path class="s" d="M2116.575,787.538V937.015a14.54,14.54,0,0,1-14.538,14.538h-171.08a27.015,27.015,0,0,1-43.681,0l-.023-.023A14.486,14.486,0,0,1,1876.7,945.8l3.94-3.4,100.542-86.774L2076.924,773h25.113A14.554,14.554,0,0,1,2116.575,787.538Z" transform="translate(-1810.963 -773)"/><path class="s" d="M1631.689,1619.97a12.433,12.433,0,0,1-10.032-.317v19.067H1586.4l28.532-24.615,6.748-5.82,5.14-4.438,9.941-8.446C1639.66,1607.764,1638.053,1617.048,1631.689,1619.97Z" transform="translate(-1586.4 -1409.17)"/></g><g transform="translate(1197.152 544.951)"><g transform="translate(0 0)"><g transform="translate(84.78 216.658)"><g transform="translate(73.28 70.516)"><path class="t" d="M2858.729,2148.2v126.04h-29.121l-18.546-51.788L2784.5,2148.2Z" transform="translate(-2784.5 -2148.2)"/><path class="u" d="M2784.5,2148.2h74.229v40.466l-65.4-15.806Z" transform="translate(-2784.5 -2148.2)"/><g transform="translate(26.562 74.252)"><path class="g" d="M2949.467,2476.1v51.789h-29.121L2901.8,2476.1S2916.814,2484.388,2949.467,2476.1Z" transform="translate(-2901.8 -2476.1)"/><circle class="g" cx="3.306" cy="3.306" r="3.306" transform="translate(11.843 5.548)"/><circle class="g" cx="3.306" cy="3.306" r="3.306" transform="translate(27.604 16.214)"/><circle class="g" cx="3.306" cy="3.306" r="3.306" transform="translate(39.334 4.37)"/><circle class="g" cx="3.306" cy="3.306" r="3.306" transform="translate(34.692 28.623)"/><circle class="g" cx="3.306" cy="3.306" r="3.306" transform="translate(15.149 22.599)"/><circle class="g" cx="3.306" cy="3.306" r="3.306" transform="translate(20.539 40.715)"/></g><g transform="translate(17.16 115.103)"><path class="q" d="M2931.117,2690.943l-19.973,41.462a18.072,18.072,0,0,1-16.644,11.028h-25.476c-6.521,0-10.484-6.612-7.993-12.636l25.611-61.775a19.516,19.516,0,0,1,7.088-9.081,19.257,19.257,0,0,1,10.983-3.442c5.571,0,11.1,3.782,14.764,7.971l8.877,9.579A16.08,16.08,0,0,1,2931.117,2690.943Z" transform="translate(-2860.28 -2656.5)"/><path class="v" d="M2939.178,2748.34l-19.973,41.462a18.072,18.072,0,0,1-16.644,11.028h-27.083c-2.513,0-3.94-1.562-4.778-3.714h6.023a18.072,18.072,0,0,0,16.644-11.028l23.03-48.029a12.983,12.983,0,0,1,11.685-7.36,12.432,12.432,0,0,1,12.341,10.779A16.1,16.1,0,0,1,2939.178,2748.34Z" transform="translate(-2868.341 -2713.898)"/><g transform="translate(0.276 11.934)"><path class="w" d="M2927.464,2712.823a17.3,17.3,0,0,0-7.835-2.265,12.792,12.792,0,0,0-11.481,7.224L2884.3,2767.51a19.358,19.358,0,0,1-17.866,11.821h-4.393a8.924,8.924,0,0,1-.543-1.359h4.937a18.02,18.02,0,0,0,16.621-11.005l.023-.023,23.867-49.75a14.14,14.14,0,0,1,12.7-7.994,18.314,18.314,0,0,1,5.548,1.177Z" transform="translate(-2861.5 -2709.2)"/></g></g></g><path class="t" d="M2534.173,1907.315l-5.684,74.252-2.536,33.265s-16.553,18.433-35.394,7.065l-8.718-40.308-19.95-92.232a43.711,43.711,0,0,1,36.933-52.558Z" transform="translate(-2460.894 -1836.8)"/><g transform="translate(20.948 144.767)"><path class="g" d="M2600.048,2476.1l-2.536,34.171s-16.553,18.433-35.394,7.065l-8.718-41.214C2575.3,2482.69,2600.048,2476.1,2600.048,2476.1Z" transform="translate(-2553.4 -2476.1)"/><circle class="g" cx="3.306" cy="3.306" r="3.306" transform="translate(17.323 13.926)"/><circle class="g" cx="3.306" cy="3.306" r="3.306" transform="translate(38.337 8.854)"/><circle class="g" cx="3.306" cy="3.306" r="3.306" transform="translate(4.642 4.37)"/><circle class="g" cx="3.306" cy="3.306" r="3.306" transform="translate(14.017 31.929)"/><circle class="g" cx="3.306" cy="3.306" r="3.306" transform="translate(29.438 25.317)"/></g><g transform="translate(29.643 178.01)"><path class="q" d="M2649.046,2630.849l-21.829,87.3h-6.884c-.317,0-.611-.023-.928-.045-5.208-.475-9.6-4.868-10.711-10.054l-16.893-78.1c18.84,11.39,35.416-7.042,35.416-7.042Z" transform="translate(-2591.8 -2622.9)"/><path class="v" d="M2743.565,2704.088c4.6-24.275,5.865-42.821-2.061-44.315s-22.033,14.606-26.63,38.881-2.2,45.742,5.729,47.237C2728.529,2747.407,2738.969,2728.386,2743.565,2704.088Z" transform="translate(-2685.21 -2651.349)"/><g transform="translate(22.645 4.597)"><path class="w" d="M2695.652,2685.523c-2.378,12.591-3.08,24.751-1.948,34.262.815,6.839,2.536,11.707,4.891,14.062h-.906c-.317,0-.611-.023-.928-.045-2.128-2.808-3.646-7.518-4.416-13.859-1.155-9.624-.453-21.943,1.97-34.669,2.287-12.047,6.907-23.347,13.043-31.838,3.668-5.072,7.518-8.627,11.028-10.235l2.038.679C2712.341,2646.28,2700.067,2662.222,2695.652,2685.523Z" transform="translate(-2691.803 -2643.2)"/></g></g></g><g transform="translate(122.485 205.993)"><path class="j" d="M2628.4,1800.343l103.3-10.643,103.26,28.963-.883,13.723c-1.4,21.648-20.063,38.5-41.757,38.5H2663.771Z" transform="translate(-2628.173 -1789.7)"/><g transform="translate(0 9.103)"><path class="x" d="M2934.358,1913.2c0,19.656-19.61,43.7-41.3,43.7H2764.5" transform="translate(-2733.455 -1894.337)"/><path class="x" d="M2904.315,1895.9c-3.216,17.55-20.38,36.3-39.175,36.3H2741.5" transform="translate(-2715.662 -1880.955)"/><path class="x" d="M2867.956,1877.5c-5.435,14.9-20.176,28.917-36.141,28.917H2712.5" transform="translate(-2693.229 -1866.721)"/><path class="x" d="M2837.132,1864.6c-7.133,10.847-18.84,19.384-31.318,19.384H2686.5" transform="translate(-2673.117 -1856.742)"/><path class="x" d="M2805.837,1849.8c-6.861,6.907-15.738,11.413-25.022,11.413H2661.5" transform="translate(-2653.778 -1845.294)"/><path class="x" d="M2769.395,1829.9a31.724,31.724,0,0,1-15.58,4.37H2634.5" transform="translate(-2632.892 -1829.9)"/><line class="x" x1="35.348" y1="70.538" transform="translate(0 1.54)"/></g></g><g transform="translate(0 123.77)"><g transform="translate(314.473 2.235)"><path class="y" d="M3495.692,1450.9c-9.737,2.763-19.316,1.947-20.335-1.019-.951-2.831,3.352-7.677,12.07-10.892.43-.158.883-.317,1.335-.476a38.815,38.815,0,0,1,7.722-1.744c7.314-.928,13.27.385,14.017,2.6C3511.521,1442.341,3506,1447.979,3495.692,1450.9Z" transform="translate(-3475.227 -1436.469)"/><path class="t" d="M3491.291,1518.581h-3.737l-9.8-66.19v-.045l-.249-1.653c.476-3.012,5.186-7.269,13.5-10.032a40.327,40.327,0,0,1,11.775-2.061l3.578,9.805.34.929,11.322,31.046A28.436,28.436,0,0,1,3491.291,1518.581Z" transform="translate(-3476.985 -1438.118)"/><path class="u" d="M3506.576,1449.107a35.5,35.5,0,0,1-9.126,3.917c-8.424,2.378-16.96,1.4-19.7-.634v-.045l-.249-1.653c.476-3.012,5.186-7.269,13.5-10.032a40.327,40.327,0,0,1,11.775-2.061Z" transform="translate(-3476.985 -1438.118)"/></g><path class="t" d="M2293.993,1454.838l-11.889,29.574a38.575,38.575,0,0,1-35.8,24.184H2086.5v-14.628a8.482,8.482,0,0,1,5.48-7.948l16.417-6.227a13.068,13.068,0,0,1,4.642-.861h18.636l105.479-10.643,18.206-41.689Z" transform="translate(-2086.5 -1426.6)"/><path class="z" d="M2106.031,1701.2l-12.387,4.687a6.423,6.423,0,0,0-4.144,6" transform="translate(-2088.821 -1639.018)"/><path class="z" d="M2106.031,1734.2l-12.387,4.688a6.423,6.423,0,0,0-4.144,6" transform="translate(-2088.821 -1664.545)"/><line class="z" x1="12.387" y2="4.461" transform="translate(4.823 76.856)"/><path class="j" d="M2156.8,1573.177s11.594-29.6,15.308-29.1-10.281,27.2-10.281,27.2Z" transform="translate(-2140.881 -1517.471)"/><path class="u" d="M2823.072,1426.7l-2.672,6.092,34.216,39.741,7.088-17.618Z" transform="translate(-2654.211 -1426.677)"/></g><g transform="translate(159.622 68.789)"><path class="h" d="M2947.015,1255.312l14.04,94.655L2857.817,1321,2839.271,1267,2791.4,1232.01l16.8-20.018a78.9,78.9,0,0,1,60.439-28.193h33.174a78.933,78.933,0,0,1,69.247,41.078l10.756,18.614s-3.238-4.755-20.7.023C2945.747,1247.749,2947.015,1255.312,2947.015,1255.312Z" transform="translate(-2791.4 -1183.8)"/><line class="x" y1="23.279" x2="5.367" transform="translate(47.871 59.488)"/><line class="x" x1="17.459" y1="108.536" transform="translate(149.591 35.529)"/><line class="x" x2="103.033" y2="29.393" transform="translate(66.394 136.774)"/></g><g transform="translate(211.649)"><path class="t" d="M3109.2,1076.466v15.217l26.857-.226V1064.6Z" transform="translate(-3089.262 -1022.804)"/><g transform="translate(0 7.195)"><path class="t" d="M3070.122,941.714v.408a7.193,7.193,0,0,1-7.156,7.382h-1.585c-1.019,4.031-10.077,8.741-16.508,8.741h-7.5a13.313,13.313,0,0,1-13.134-15.466l.362-2.2-2.219-1.246a2.413,2.413,0,0,1-.747-3.555l4.8-6.34,1.042-6.25a15.253,15.253,0,0,1,8.7-11.39c1.766,19.9,19.339,22.26,23.981,22.531h2.582A7.383,7.383,0,0,1,3070.122,941.714Z" transform="translate(-3021.154 -911.8)"/><path class="z" d="M3184.9,1032.62a5.818,5.818,0,0,1,5.82-5.82" transform="translate(-3147.82 -1000.759)"/><ellipse class="u" cx="1.155" cy="2.672" rx="1.155" ry="2.672" transform="translate(11.378 17.391)"/><path class="z" d="M3068.7,963.884s3.193-.317,6.476,4.212" transform="translate(-3057.934 -952.086)"/></g><g transform="translate(15.046)"><path class="u" d="M3111.558,909.752h2.582a7.383,7.383,0,0,1,7.382,7.382v.408a7.193,7.193,0,0,1-7.156,7.382l-1.744,1.223c-7.337,4.71-17.481,23.233-14.991,36.345,2.808,14.742,15.647,18.025,27.513,15.761s20.516-9.171,17.708-23.935a29.5,29.5,0,0,0-1.495-5.208c.2.068.385.136.589.2,14.266,3.895,31.023,4.348,35.643-6.793s3.578-22.169-10.3-27.921c-8.062-3.351-19.022-3.329-27.514-1.019,4.28-14.878-3.329-31.431-17.3-33.084-21.943-2.6-34.533,6.454-34.873,6.7h0C3087.577,889.825,3089.366,908.461,3111.558,909.752Z" transform="translate(-3087.599 -880.025)"/><path class="x" d="M3281.281,1025.9a31.139,31.139,0,0,1-11.481,16.282s10.6,7,13.089,20" transform="translate(-3228.542 -992.867)"/><g transform="translate(19.267 20.85)"><g transform="translate(33.586)"><path class="aa" d="M3327.2,983.785h-6v-6a5.673,5.673,0,0,1,5.684-5.684h.317a5.673,5.673,0,0,1,5.684,5.684v.317A5.673,5.673,0,0,1,3327.2,983.785Z" transform="translate(-3321.155 -972.1)"/><path class="aa" d="M3324.85,1013.413,3321,1007.3l6.114-3.85a6.556,6.556,0,0,1,9.035,2.038l.362.566a6.555,6.555,0,0,1-2.038,9.035l-.566.362A6.573,6.573,0,0,1,3324.85,1013.413Z" transform="translate(-3321 -995.569)"/></g><g transform="translate(0 22.583)"><path class="aa" d="M3174.655,1085.1l4.28-4.1,4.189,4.733a5.673,5.673,0,0,1-.589,8.016l-.249.2a5.673,5.673,0,0,1-8.016-.589l-.2-.249A5.676,5.676,0,0,1,3174.655,1085.1Z" transform="translate(-3172.681 -1078.923)"/><path class="aa" d="M3202.425,1080.946l-1.925-6.952,6.952-1.925a6.539,6.539,0,0,1,8.062,4.552l.181.657a6.539,6.539,0,0,1-4.552,8.062l-.657.181A6.589,6.589,0,0,1,3202.425,1080.946Z" transform="translate(-3194.201 -1071.826)"/></g></g></g></g></g><g transform="translate(152.942 287.174)"><line class="c" x1="39.447" y2="184.622" transform="translate(0 17.414)"/><line class="c" x2="39.447" y2="184.622" transform="translate(140.397 17.414)"/><line class="c" x2="161.819" transform="translate(8.741 161.049)"/><path class="v" d="M2949.2,2165.614H2786.136a3.74,3.74,0,0,1-3.737-3.737v-9.941a3.74,3.74,0,0,1,3.737-3.736H2949.2a3.74,3.74,0,0,1,3.736,3.736v9.941A3.74,3.74,0,0,1,2949.2,2165.614Z" transform="translate(-2777.758 -2148.2)"/></g></g></g></svg>