<svg xmlns="http://www.w3.org/2000/svg" xmlns:xlink="http://www.w3.org/1999/xlink" width="888.296" height="693.787" viewBox="0 0 888.296 693.787"><defs><style>.a{fill:url(#a);}.b{fill:#555993;}.c{fill:url(#b);}.d{fill:url(#c);}.e{fill:#7879a9;}.f{fill:#212048;}.f,.g,.l{opacity:0.2;}.ah,.f,.g,.l,.n,.o{mix-blend-mode:multiply;isolation:isolate;}.ac,.g{fill:#ffc563;}.h{fill:#fffeff;}.i{fill:url(#d);}.j{fill:url(#e);}.ah,.k{fill:#ff791f;}.l{fill:#ffd176;}.m{fill:url(#f);}.n,.o,.q{fill:#ffbd77;}.ah,.n{opacity:0.4;}.o{opacity:0.7;}.p{fill:url(#g);}.r{fill:url(#h);}.s{fill:url(#i);}.t{fill:url(#j);}.u{fill:url(#k);}.v{fill:#4c506a;}.w{fill:url(#l);}.x{fill:url(#m);}.y{fill:url(#n);}.z{fill:url(#o);}.aa{fill:url(#p);}.ab{fill:#fff;}.ad{fill:#c95e06;}.ae{fill:none;stroke:#c95e06;stroke-linecap:round;stroke-linejoin:round;stroke-width:0.25px;}.af{fill:url(#q);}.ag{fill:url(#r);}.ai{fill:#fff1d1;}.aj{fill:#ffdc8a;}</style><linearGradient id="a" x1="0.222" y1="0.068" x2="0.672" y2="0.767" gradientUnits="objectBoundingBox"><stop offset="0" stop-color="#f5e9e4"/><stop offset="1" stop-color="#fff" stop-opacity="0"/></linearGradient><linearGradient id="b" x1="1.052" y1="0.161" x2="-0.03" y2="0.826" gradientUnits="objectBoundingBox"><stop offset="0" stop-color="#ded5ce"/><stop offset="1" stop-color="#fff"/></linearGradient><linearGradient id="c" x1="1.076" y1="-0.416" x2="0.371" y2="0.733" xlink:href="#b"/><linearGradient id="d" x1="-1.192" y1="1.774" x2="1.495" y2="-0.811" gradientUnits="objectBoundingBox"><stop offset="0" stop-color="#6270ca"/><stop offset="0.128" stop-color="#6772c6"/><stop offset="0.296" stop-color="#787bbd"/><stop offset="0.488" stop-color="#9388af"/><stop offset="0.697" stop-color="#ba9b9a"/><stop offset="0.917" stop-color="#eab380"/><stop offset="1" stop-color="#ffbe76"/></linearGradient><linearGradient id="e" x1="-0.542" y1="1.685" x2="0.717" y2="0.38" gradientUnits="objectBoundingBox"><stop offset="0" stop-color="#ffdc8a"/><stop offset="1" stop-color="#ffc15b"/></linearGradient><linearGradient id="f" x1="0.269" y1="0.802" x2="0.852" y2="0.039" xlink:href="#e"/><linearGradient id="g" x1="-0.13" y1="0.128" x2="0.602" y2="0.56" gradientUnits="objectBoundingBox"><stop offset="0" stop-color="#fff5de"/><stop offset="1" stop-color="#fff"/></linearGradient><linearGradient id="h" x1="1.5" y1="-6.463" x2="0.407" y2="1.145" xlink:href="#e"/><linearGradient id="i" x1="1.423" y1="-3.165" x2="0.33" y2="1.174" xlink:href="#e"/><linearGradient id="j" x1="1.417" y1="-3.739" x2="0.324" y2="1.313" xlink:href="#e"/><linearGradient id="k" x1="1.332" y1="-1.941" x2="0.239" y2="1.266" xlink:href="#e"/><linearGradient id="l" x1="-0.419" y1="-0.003" x2="1.056" y2="0.805" gradientUnits="objectBoundingBox"><stop offset="0" stop-color="#ffdc8a"/><stop offset="1" stop-color="#ffdc8a" stop-opacity="0"/></linearGradient><linearGradient id="m" x1="1.743" y1="0.657" x2="-1.813" y2="0.207" xlink:href="#d"/><linearGradient id="n" x1="-0.162" y1="0.015" x2="0.606" y2="0.578" xlink:href="#l"/><linearGradient id="o" x1="0.855" y1="-0.077" x2="0.31" y2="0.809" gradientUnits="objectBoundingBox"><stop offset="0" stop-color="#ff791f"/><stop offset="1" stop-color="#ffc15b"/></linearGradient><linearGradient id="p" x1="0.047" y1="0.861" x2="1.005" y2="0.077" gradientUnits="objectBoundingBox"><stop offset="0.405" stop-color="#ded5ce"/><stop offset="0.478" stop-color="#e1d9d3"/><stop offset="0.568" stop-color="#ebe6e2"/><stop offset="0.61" stop-color="#f2efec"/><stop offset="1" stop-color="#fff"/></linearGradient><linearGradient id="q" x1="0.237" y1="0.98" x2="0.963" y2="-0.474" xlink:href="#b"/><linearGradient id="r" x1="-0.061" y1="1.073" x2="1.103" y2="-0.115" gradientUnits="objectBoundingBox"><stop offset="0" stop-color="#ff791f"/><stop offset="0.998" stop-color="#ffa71f"/></linearGradient></defs><g transform="translate(-268.896 -108.432)"><path class="a" d="M1143.391,127.407c-18.681,26.382-37.948,53.771-65.777,70.218-52.776,31.194-126.185,17.15-172.961,56.778-44.886,38.023-46.02,109.811-87.907,151.117-37.583,37.061-97.471,39.738-141.213,69.276-47.6,32.142-69.29,90.877-109.418,131.967-46.841,47.963-114.278,67.947-175.361,95.579-48.5,21.939-97.7,54.407-121.859,99.876H1142.92a14.272,14.272,0,0,0,14.271-14.272V108.432C1152.453,114.683,1147.882,121.062,1143.391,127.407Z" transform="translate(0 0)"/><g transform="translate(404.808 320.365)"><path class="b" d="M8.833,0H510.9a8.833,8.833,0,0,1,8.833,8.833V335.244a0,0,0,0,1,0,0H0a0,0,0,0,1,0,0V8.833A8.833,8.833,0,0,1,8.833,0Z" transform="translate(39.747 0)"/><rect class="c" width="294.08" height="478.573" transform="translate(538.902 20.582) rotate(90)"/><path class="d" d="M832.058,222.477C734.251,320.51,646.791,418.6,548.906,516.558H419.043Q530.808,404.8,642.568,293.033q35.279-35.276,70.557-70.556Zm-157.164,0H638.057L365.15,495.386v21.173h16.237Q528.14,369.518,674.893,222.477ZM843.722,346.646V262.078L599.534,516.558h74.277ZM435.666,222.477,365.15,292.995V365.26L507.931,222.477ZM739.959,516.558h46.148q28.9-28.713,57.614-57.606V412.535Q791.806,464.512,739.959,516.558Z" transform="translate(-304.82 -201.896)"/><path class="e" d="M911.228,400.375H359.121a23.561,23.561,0,0,1-23.562-23.56h599.23A23.561,23.561,0,0,1,911.228,400.375Z" transform="translate(-335.559 -41.571)"/><path class="f" d="M466.9,382.605h85.984a5.79,5.79,0,0,0,5.79-5.79H461.113A5.79,5.79,0,0,0,466.9,382.605Z" transform="translate(-205.134 -41.571)"/></g><g transform="translate(675.138 413.395)"><path class="g" d="M4.461,0H163.647a4.461,4.461,0,0,1,4.461,4.461V163.646a4.46,4.46,0,0,1-4.46,4.46H4.461A4.461,4.461,0,0,1,0,163.646V4.461A4.461,4.461,0,0,1,4.461,0Z" transform="translate(0 4.919)"/><path class="h" d="M4.461,0H163.646a4.461,4.461,0,0,1,4.461,4.461V163.646a4.46,4.46,0,0,1-4.46,4.46H4.46A4.46,4.46,0,0,1,0,163.646V4.461A4.461,4.461,0,0,1,4.461,0Z" transform="translate(3.796)"/><g transform="translate(32.306 28.547)"><path class="i" d="M511.985,272.014A55.274,55.274,0,0,1,548.6,287.205l-36.619,36.619Z" transform="translate(-454.925 -272.014)"/><path class="j" d="M539.543,383.026a55.516,55.516,0,0,1-1.517-111.012v55.469a1.5,1.5,0,0,0,.228.752c.029.047.049.09.079.133s.041.084.073.12l36.774,41.538A55.261,55.261,0,0,1,539.543,383.026Z" transform="translate(-483.998 -272.014)"/><path class="k" d="M512.262,318.715l38.2-38.2a55.271,55.271,0,0,1-2.4,78.64Z" transform="translate(-454.637 -263.182)"/></g></g><g transform="translate(366.155 277.453)"><path class="l" d="M558.218,397.773a6.889,6.889,0,0,0,6.889-6.889v-178.5H373.065a18.01,18.01,0,0,0-18.011,18.011V397.773Z" transform="translate(-276.655 -169.47)"/><rect class="m" width="293.618" height="224.645" rx="3.379"/><g transform="translate(204.667 133.383)"><path class="h" d="M437.045,261.35H419.283a2.3,2.3,0,0,1,0-4.593h17.762a2.3,2.3,0,0,1,0,4.593Z" transform="translate(-416.987 -256.757)"/></g><g transform="translate(229.186 133.414)"><path class="h" d="M431.311,261.337a2.3,2.3,0,0,1-1.631-.689,2.231,2.231,0,0,1-.667-1.607,1.533,1.533,0,0,1,.047-.461,2.842,2.842,0,0,1,.116-.414,3.98,3.98,0,0,1,.228-.412,4.032,4.032,0,0,1,.275-.347,2.407,2.407,0,0,1,3.26,0c.092.116.186.232.277.347a1.729,1.729,0,0,1,.206.412,1.434,1.434,0,0,1,.139.414,3.163,3.163,0,0,1,.045.461,2.314,2.314,0,0,1-2.3,2.3Z" transform="translate(-429.013 -256.772)"/></g><g transform="translate(236.279 133.383)"><path class="h" d="M456.073,261.35H434.79a2.3,2.3,0,1,1,0-4.593h21.283a2.3,2.3,0,0,1,0,4.593Z" transform="translate(-432.492 -256.757)"/></g><g transform="translate(204.667 144.87)"><path class="h" d="M455.96,266.984H419.283a2.3,2.3,0,0,1,0-4.593H455.96a2.3,2.3,0,1,1,0,4.593Z" transform="translate(-416.987 -262.391)"/></g><g transform="translate(249.115 144.87)"><path class="h" d="M449.532,266.984h-8.447a2.3,2.3,0,1,1,0-4.593h8.447a2.3,2.3,0,0,1,0,4.593Z" transform="translate(-438.788 -262.391)"/></g><path class="n" d="M549.158,208.6a14.672,14.672,0,0,0-14.622,16.745L509.03,237.787a14.755,14.755,0,0,0-22.647,18.773L452.443,302.1a14.571,14.571,0,0,0-11.04.707l-31.238-32.384a14.77,14.77,0,1,0-26.131,0L352.8,302.8a14.771,14.771,0,1,0,6.683,6.432l31.234-32.382a14.582,14.582,0,0,0,12.769,0l31.236,32.384a14.773,14.773,0,1,0,25.155-1.594l33.942-45.538A14.742,14.742,0,0,0,513.244,248.1a15.052,15.052,0,0,0-.147-1.976l25.5-12.445A14.764,14.764,0,1,0,549.158,208.6Z" transform="translate(-300.976 -173.399)"/><circle class="k" cx="3.367" cy="3.367" r="3.367" transform="translate(12.462 10.052)"/><circle class="o" cx="3.367" cy="3.367" r="3.367" transform="translate(24.919 10.052)"/><circle class="h" cx="3.367" cy="3.367" r="3.367" transform="translate(37.376 10.052)"/></g><g transform="translate(414.959 451.089)"><path class="g" d="M355.054,430.076H481.5a6.889,6.889,0,0,0,6.889-6.889V285.511a6.889,6.889,0,0,0-6.889-6.889H355.054Z" transform="translate(-325.459 -274.297)"/><path class="g" d="M496.583,278.622H347.425a6.888,6.888,0,0,0-6.887,6.889v39.8H503.472v-39.8A6.89,6.89,0,0,0,496.583,278.622Z" transform="translate(-340.538 -274.297)"/><rect class="p" width="162.934" height="151.453" rx="3.379" transform="translate(4.325 0)"/><g transform="translate(22.121 16.169)"><g transform="translate(0 28.328)"><path class="q" d="M479.371,387.484H352.538a1.148,1.148,0,0,1-1.15-1.148V299.474a1.149,1.149,0,0,1,2.3,0v85.715H479.371a1.148,1.148,0,1,1,0,2.3Z" transform="translate(-351.388 -298.326)"/></g><rect class="r" width="14.363" height="18.387" transform="translate(11.837 87.263)"/><rect class="s" width="14.363" height="32.236" transform="translate(39.185 73.415)"/><rect class="t" width="14.363" height="27.686" transform="translate(66.532 77.965)"/><rect class="u" width="14.363" height="43.61" transform="translate(93.88 62.04)"/><rect class="k" width="14.363" height="11.38" transform="translate(11.837 75.883)"/><rect class="k" width="14.363" height="19.952" transform="translate(39.185 53.463)"/><rect class="k" width="14.363" height="17.135" transform="translate(66.532 60.829)"/><rect class="k" width="14.363" height="26.992" transform="translate(93.88 35.049)"/><rect class="q" width="13.759" height="5.405" transform="translate(1.149)"/><rect class="q" width="13.759" height="5.405" transform="translate(1.149 11.486)"/><g transform="translate(23.903 0.407)"><path class="q" d="M383.17,289.224H365.41a2.3,2.3,0,1,1,0-4.593h17.76a2.3,2.3,0,0,1,0,4.593Z" transform="translate(-363.112 -284.631)"/></g><g transform="translate(48.423 0.436)"><path class="q" d="M377.435,289.212a2.3,2.3,0,0,1-1.631-.691,2.223,2.223,0,0,1-.665-1.607,1.523,1.523,0,0,1,.047-.459,2.956,2.956,0,0,1,.114-.416,2.722,2.722,0,0,1,.5-.756,2.4,2.4,0,0,1,3.262,0c.092.116.183.23.275.345a1.728,1.728,0,0,1,.206.412,1.467,1.467,0,0,1,.139.416,3.135,3.135,0,0,1,.045.459,2.315,2.315,0,0,1-2.3,2.3Z" transform="translate(-375.139 -284.645)"/></g><g transform="translate(55.516 0.407)"><path class="q" d="M402.2,289.224H380.914a2.3,2.3,0,0,1,0-4.593H402.2a2.3,2.3,0,1,1,0,4.593Z" transform="translate(-378.618 -284.631)"/></g><g transform="translate(23.903 11.894)"><path class="q" d="M402.088,294.856H365.41a2.3,2.3,0,1,1,0-4.591h36.678a2.3,2.3,0,1,1,0,4.591Z" transform="translate(-363.112 -290.265)"/></g><g transform="translate(68.353 11.894)"><path class="q" d="M395.656,294.856H387.21a2.3,2.3,0,1,1,0-4.591h8.447a2.3,2.3,0,1,1,0,4.591Z" transform="translate(-384.914 -290.265)"/></g></g></g><path class="g" d="M756.866,313.944l-51.253-51.253a10.211,10.211,0,0,0-13.909-.471l-15.305-15.3,6.72-6.72-5.646-5.645a116.924,116.924,0,0,0,11.262-22.17H468.575A117.8,117.8,0,0,0,642.79,269.236l5.645,5.645,6.72-6.72,15.305,15.3a10.211,10.211,0,0,0,.469,13.911l29.177,29.177c-1.291,1.615-2.832,3.874-2.308,4.924.865,1.725,2.971,2.014,3.652,2.253s.942,2.846,3.1,3.625,2.995,2.891,4.871,3.221c1.166.206,2.206-.818,2.916-1.8l20.457,20.455,0,.018-6.343-6.357s-.546,6.826.705,8.7c2.288,3.435,11.425,6.072,14.981,6.989l14.728,14.728Z" transform="translate(207.425 107.982)"/><g transform="translate(675.499 155.707)"><rect class="v" width="30.044" height="46.788" transform="matrix(0.707, -0.707, 0.707, 0.707, 179.586, 200.83)"/><circle class="w" cx="94.51" cy="94.51" r="94.51" transform="translate(23.299 23.3)"/><rect class="k" width="49.051" height="15.768" transform="translate(176.447 211.132) rotate(-45)"/><rect class="x" width="49.051" height="165.93" rx="5.024" transform="matrix(0.707, -0.707, 0.707, 0.707, 202.848, 237.533)"/><circle class="y" cx="82.11" cy="82.11" r="82.11" transform="translate(35.586 28.681)"/><g transform="translate(161.616 59.508)"><path class="h" d="M554.848,175.3a6.8,6.8,0,0,1-1.4-.147,8.639,8.639,0,0,1-1.354-.41,7.829,7.829,0,0,1-1.256-.677,6.78,6.78,0,0,1-1.111-.893,6.57,6.57,0,0,1-.893-1.111,6.91,6.91,0,0,1-.679-1.256,8.923,8.923,0,0,1-.41-1.354,6.952,6.952,0,0,1-.145-1.4,7.238,7.238,0,0,1,2.127-5.121,6.825,6.825,0,0,1,1.111-.92,6.284,6.284,0,0,1,1.256-.652,5.48,5.48,0,0,1,1.354-.41,7.244,7.244,0,0,1,8.649,7.1,6.816,6.816,0,0,1-.147,1.4,5.334,5.334,0,0,1-.41,1.354,5.677,5.677,0,0,1-.65,1.256,7.023,7.023,0,0,1-.917,1.111A7.247,7.247,0,0,1,554.848,175.3Z" transform="translate(-547.6 -160.807)"/></g><g transform="translate(59.498 38.314)"><path class="h" d="M504.76,186.091a7.247,7.247,0,0,1-5.124-12.371,79.349,79.349,0,0,1,86.088-17.456,7.248,7.248,0,0,1-5.45,13.434,64.886,64.886,0,0,0-70.391,14.272A7.225,7.225,0,0,1,504.76,186.091Z" transform="translate(-497.512 -150.412)"/></g><path class="z" d="M669.443,166.125a117.81,117.81,0,1,0,0,166.608A117.81,117.81,0,0,0,669.443,166.125ZM651.567,314.857a92.529,92.529,0,1,1,0-130.856A92.528,92.528,0,0,1,651.567,314.857Z" transform="translate(-468.329 -131.619)"/><g transform="translate(265.493 233.038)"><path class="aa" d="M630.976,279.921l-.928,54.373,39.82.712,5.568-55.48a9.27,9.27,0,0,0-6.956-9.8l-16.143-4.088-9.126-1.411a35.635,35.635,0,0,0-18.847,2.2l-4.628,1.882Z" transform="translate(-576.542 -227.343)"/><g transform="translate(38.792 106.95)"><path class="b" d="M686.15,481.872,653.778,312.807a1.533,1.533,0,0,0-1.327-1.227,1.679,1.679,0,0,0-1.853,1.6l-6.147,168.7H617.577l9.782-6.445,4.932-177.049,39.82.712,30.143,176.337,9.02,6.445Z" transform="translate(-617.577 -298.379)"/></g><path class="ab" d="M643.229,263.762s2.5-.016,2.985,1.47c.689,2.114-.271,11.232-1.9,11.181-1.5-.047-5.582-6.449-5.582-6.449s-6.072,4.858-7.452,3.9c-1.27-.877,2.505-11.664,5.623-11.024A63.747,63.747,0,0,0,643.229,263.762Z" transform="translate(-564.809 -228.37)"/><g transform="translate(64.963)"><path class="ac" d="M640.037,286.809c1.342.141,2.5.2,3.48-.854,1.808-1.949,1.666-4.942,3.513-6.832a35.383,35.383,0,0,1,2.87-2.351,12.891,12.891,0,0,0,3.16-4.61c3.68-7.69,5.986-25.14-8.2-26.2-12.367-.922-14.314,12.84-14.437,19.2a22.243,22.243,0,0,0,.893,7.509,9.149,9.149,0,0,0,1.906,3.35c.966,1.03,2.273,1.45,3.321,2.357,1.415,1.225.642,3.429.5,5.015C636.857,285.445,638.011,286.6,640.037,286.809Z" transform="translate(-630.414 -245.921)"/></g><g transform="translate(87.333 17.993)"><path class="ac" d="M641.4,257.92a3.533,3.533,0,1,0,3.874-3.154A3.534,3.534,0,0,0,641.4,257.92Z" transform="translate(-641.386 -254.747)"/></g><g transform="translate(60.36 14.837)"><path class="ac" d="M628.174,256.372a3.532,3.532,0,1,0,3.872-3.154A3.531,3.531,0,0,0,628.174,256.372Z" transform="translate(-628.156 -253.199)"/></g><path class="ad" d="M635.968,254.79a1.241,1.241,0,1,0,1.386-1.077A1.243,1.243,0,0,0,635.968,254.79Z" transform="translate(-559.691 -237.837)"/><path class="ad" d="M632.705,254.523a1.241,1.241,0,1,0,1.384-1.078A1.241,1.241,0,0,0,632.705,254.523Z" transform="translate(-563.08 -238.116)"/><path class="ac" d="M615.8,287.77l-6.828-2.5s-3.729-6.553-4.667-6.353.712,6.353.712,6.353l-6.345-6.357s-.544,6.824.705,8.7c2.861,4.29,16.422,7.344,16.422,7.344Z" transform="translate(-598.55 -211.652)"/><path class="ae" d="M635.8,254.278a42.145,42.145,0,0,0-1.266,4.487c-.053.813,1.266.983,1.266.983" transform="translate(-561.172 -237.241)"/><path class="ae" d="M634.533,259.82a4.8,4.8,0,0,0,6.09-3.156" transform="translate(-561.171 -234.762)"/><path class="ae" d="M629.379,254.053a3.747,3.747,0,0,1,1.937,3.262" transform="translate(-566.525 -237.474)"/><path class="ae" d="M629.353,255.517a1.463,1.463,0,0,1,1.331-.667" transform="translate(-566.552 -236.651)"/><path class="ae" d="M642.423,257.963a1.7,1.7,0,0,1,3-1.556" transform="translate(-553.088 -235.809)"/><path class="ae" d="M632.694,252.034a4.218,4.218,0,0,1,4.088.683" transform="translate(-563.082 -239.836)"/><path class="ae" d="M636.315,252.5a4.848,4.848,0,0,1,4.96,1.49" transform="translate(-559.32 -239.279)"/></g><g transform="translate(236.854 272.133)"><path class="ac" d="M588.48,265.1s-4.736,5.015-3.872,6.742,2.971,2.016,3.652,2.255.942,2.846,3.1,3.625,2.995,2.891,4.871,3.221,3.419-2.506,3.8-3.246-3.291-2.932-3.291-2.932.7-1.947.241-2.485-3.431-2.7-3.431-2.7a12.765,12.765,0,0,0-.667-3.15,7.965,7.965,0,0,0-1.6-1.087l-1.207,1.219Z" transform="translate(-584.503 -265.097)"/></g><path class="af" d="M607.009,304s30.973,6.418,40.352,4.059c10.771-2.71,33.269-24.9,33.269-24.9L672.542,270.2l-29.034,23.713-36.5-1.857Z" transform="translate(-324.27 12.336)"/><path class="b" d="M632.736,264.655s-2.149-6.516-1.146-11.8c0,0-4.856-3.327-2.432-8.3l6.147,3.912s-3.955-2.707-1.537-6.012l4.437,3.113s16.745,2.864,20.049,5.906a5.67,5.67,0,0,1,1.537,6.591,3.121,3.121,0,0,1,2.663,2.149c.652,2.029-2.962,7.507-2.962,7.507a3.4,3.4,0,0,0-4.308,2.288l-1.812,2.328a28.792,28.792,0,0,1,.8-5.2s-4.12-4.43-3.468-7.906l-14.524-2.746A18.73,18.73,0,0,0,632.736,264.655Z" transform="translate(-301.966 -16.487)"/></g><g transform="translate(827.708 498.389)"><rect class="g" width="94.69" height="113.575" rx="2.065" transform="translate(0 6.269)"/><rect class="ag" width="94.69" height="113.575" rx="2.065" transform="translate(4.674 0)"/><rect class="ah" width="32.156" height="69.679" transform="translate(86.859 11.853) rotate(90)"/><path class="h" d="M619.914,327.461H552.6a1.48,1.48,0,0,1-1.48-1.48h0a1.48,1.48,0,0,1,1.48-1.48h67.315a1.482,1.482,0,0,1,1.482,1.48h0A1.482,1.482,0,0,1,619.914,327.461Z" transform="translate(-534.537 -273.938)"/><path class="h" d="M595.142,330.525H552.6a1.48,1.48,0,0,1-1.48-1.48h0a1.48,1.48,0,0,1,1.48-1.48h42.543a1.48,1.48,0,0,1,1.48,1.48h0A1.48,1.48,0,0,1,595.142,330.525Z" transform="translate(-534.537 -270.755)"/><path class="h" d="M594.935,330.525h-18.29a1.48,1.48,0,0,1-1.48-1.48h0a1.48,1.48,0,0,1,1.48-1.48h18.29a1.482,1.482,0,0,1,1.482,1.48h0A1.482,1.482,0,0,1,594.935,330.525Z" transform="translate(-509.558 -270.755)"/><path class="h" d="M606.884,333.589H552.6a1.48,1.48,0,0,1-1.48-1.48h0a1.48,1.48,0,0,1,1.48-1.48h54.285a1.481,1.481,0,0,1,1.482,1.48h0A1.48,1.48,0,0,1,606.884,333.589Z" transform="translate(-534.537 -267.572)"/><path class="h" d="M589.32,333.589h-7.268a1.482,1.482,0,0,1-1.482-1.48h0a1.482,1.482,0,0,1,1.482-1.48h7.268a1.482,1.482,0,0,1,1.482,1.48h0A1.482,1.482,0,0,1,589.32,333.589Z" transform="translate(-503.943 -267.572)"/><path class="h" d="M566.5,336.653H552.6a1.48,1.48,0,0,1-1.48-1.48h0a1.48,1.48,0,0,1,1.48-1.48h13.9a1.482,1.482,0,0,1,1.482,1.48h0A1.482,1.482,0,0,1,566.5,336.653Z" transform="translate(-534.537 -264.389)"/><path class="h" d="M569.707,345.845h8.963a1.48,1.48,0,0,0,1.48-1.48h0a1.48,1.48,0,0,0-1.48-1.48h-8.963a1.48,1.48,0,0,0-1.48,1.48h0A1.48,1.48,0,0,0,569.707,345.845Z" transform="translate(-516.765 -254.841)"/><path class="h" d="M552.6,345.845h29.12a1.48,1.48,0,0,0,1.48-1.48h0a1.48,1.48,0,0,0-1.48-1.48H552.6a1.48,1.48,0,0,0-1.48,1.48h0A1.48,1.48,0,0,0,552.6,345.845Z" transform="translate(-534.537 -254.841)"/><path class="h" d="M570.537,351.975h7.27a1.482,1.482,0,0,0,1.48-1.482h0a1.48,1.48,0,0,0-1.48-1.48h-7.27a1.48,1.48,0,0,0-1.48,1.48h0A1.482,1.482,0,0,0,570.537,351.975Z" transform="translate(-515.903 -248.475)"/><path class="h" d="M552.6,348.909h12.106a1.48,1.48,0,0,0,1.48-1.48h0a1.48,1.48,0,0,0-1.48-1.48H552.6a1.48,1.48,0,0,0-1.48,1.48h0A1.48,1.48,0,0,0,552.6,348.909Z" transform="translate(-534.537 -251.658)"/><path class="h" d="M561.562,342.781H552.6a1.48,1.48,0,0,1-1.48-1.48h0a1.48,1.48,0,0,1,1.48-1.48h8.963a1.48,1.48,0,0,1,1.48,1.48h0A1.48,1.48,0,0,1,561.562,342.781Z" transform="translate(-534.537 -258.024)"/><path class="h" d="M588.94,342.781H559.82a1.48,1.48,0,0,1-1.48-1.48h0a1.48,1.48,0,0,1,1.48-1.48h29.12a1.48,1.48,0,0,1,1.48,1.48h0A1.48,1.48,0,0,1,588.94,342.781Z" transform="translate(-527.036 -258.024)"/><rect class="ah" width="17.551" height="21.66" transform="translate(69.308 81.839)"/></g><path class="ai" d="M454.476,150.3a30.171,30.171,0,1,0,30.172,30.17A30.205,30.205,0,0,0,454.476,150.3Zm24.474,27.405h-7.527c-.361-7.346-2.139-13.86-4.871-18.69A24.665,24.665,0,0,1,478.95,177.709Zm-27.238-21.018v21.018h-8.649C443.644,167.03,447.528,159.179,451.712,156.691Zm0,26.549v21.018c-4.184-2.489-8.068-10.341-8.649-21.018Zm5.531,21.018V183.241h8.647C465.31,193.918,461.424,201.769,457.243,204.259Zm0-26.549V156.691c4.182,2.487,8.067,10.339,8.647,21.018ZM442.4,159.02c-2.732,4.83-4.51,11.344-4.871,18.69H430A24.662,24.662,0,0,1,442.4,159.02ZM430,183.241h7.529c.361,7.344,2.139,13.858,4.871,18.69A24.669,24.669,0,0,1,430,183.241Zm36.549,18.69c2.732-4.832,4.51-11.346,4.871-18.69h7.527A24.672,24.672,0,0,1,466.552,201.93Z" transform="translate(161.437 43.496)"/><g transform="translate(336.249 563.933)"><path class="ai" d="M329.174,347.754a11.943,11.943,0,0,0-.212-2.21l3.225-1.863a.979.979,0,0,0,.359-1.335l-2.938-5.087a.977.977,0,0,0-1.335-.357l-3.229,1.863a11.829,11.829,0,0,0-3.825-2.208v-3.729a.979.979,0,0,0-.979-.979h-5.872a.979.979,0,0,0-.979.979v3.729a11.828,11.828,0,0,0-3.825,2.208l-3.229-1.863a.979.979,0,0,0-1.337.357l-2.936,5.087a.977.977,0,0,0,.359,1.335l3.225,1.863a11.513,11.513,0,0,0,0,4.42l-3.225,1.863a.977.977,0,0,0-.359,1.335L305,358.249a.979.979,0,0,0,1.337.357l3.229-1.863a11.828,11.828,0,0,0,3.825,2.208v3.729a.979.979,0,0,0,.979.979h5.872a.979.979,0,0,0,.979-.979v-3.729a11.829,11.829,0,0,0,3.825-2.208l3.229,1.863a.977.977,0,0,0,1.335-.357l2.938-5.087a.979.979,0,0,0-.359-1.335l-3.225-1.863A11.96,11.96,0,0,0,329.174,347.754Zm-11.87,6.239a6.239,6.239,0,1,1,6.239-6.239A6.239,6.239,0,0,1,317.3,353.992Z" transform="translate(-301.932 -331.849)"/><path class="ai" d="M351.324,359.84v-6.687a.86.86,0,0,0-.858-.858H348.5a.858.858,0,0,1-.805-.585,14.358,14.358,0,0,0-.632-1.529.852.852,0,0,1,.157-.981l1.39-1.39a.859.859,0,0,0,0-1.213l-4.73-4.73a.856.856,0,0,0-1.211,0l-1.39,1.391a.855.855,0,0,1-.983.157,14.33,14.33,0,0,0-1.529-.632.856.856,0,0,1-.585-.805v-1.967a.856.856,0,0,0-.856-.856h-6.689a.856.856,0,0,0-.856.856v1.967a.855.855,0,0,1-.587.805,14.131,14.131,0,0,0-1.527.632.854.854,0,0,1-.983-.157l-1.39-1.391a.856.856,0,0,0-1.211,0l-4.73,4.73a.859.859,0,0,0,0,1.213l1.39,1.39a.855.855,0,0,1,.155.981,14.75,14.75,0,0,0-.632,1.529.854.854,0,0,1-.805.585H317.49a.858.858,0,0,0-.856.858v6.687a.858.858,0,0,0,.856.858h1.967a.854.854,0,0,1,.805.585,14.766,14.766,0,0,0,.632,1.529.855.855,0,0,1-.155.981l-1.39,1.39a.859.859,0,0,0,0,1.213l4.73,4.73a.856.856,0,0,0,1.211,0l1.39-1.39a.854.854,0,0,1,.983-.157,14.131,14.131,0,0,0,1.527.632.856.856,0,0,1,.587.805v1.967a.856.856,0,0,0,.856.856h6.689a.856.856,0,0,0,.856-.856v-1.967a.856.856,0,0,1,.585-.805,14.33,14.33,0,0,0,1.529-.632.855.855,0,0,1,.983.157l1.39,1.39a.856.856,0,0,0,1.211,0l4.73-4.73a.859.859,0,0,0,0-1.213l-1.39-1.39a.852.852,0,0,1-.157-.981,14.373,14.373,0,0,0,.632-1.529.858.858,0,0,1,.805-.585h1.967A.86.86,0,0,0,351.324,359.84Zm-15.762,3.4a6.935,6.935,0,0,1-8.326-8.324,6.925,6.925,0,1,1,8.326,8.324Z" transform="translate(-286.659 -324.263)"/></g><g transform="translate(934.607 261.786)"><path class="ai" d="M602.931,214.833v-1.69a10.053,10.053,0,0,1-4.479-1.729,8.133,8.133,0,0,1-2.771-3.176,2.425,2.425,0,0,1-.263-1.079,2.528,2.528,0,0,1,.1-.65,1.991,1.991,0,0,1,.956-1.06,1.843,1.843,0,0,1,.9-.263,2.62,2.62,0,0,1,1.872,1.221,6.118,6.118,0,0,0,5.454,2.809,5.761,5.761,0,0,0,3.342-.979,3.3,3.3,0,0,0,1.545-2.769,2.811,2.811,0,0,0-1.568-2.565,10.413,10.413,0,0,0-2.748-.956l-.528-.143a14.214,14.214,0,0,1-6.188-2.463,6.151,6.151,0,0,1-2.526-5.068,6.968,6.968,0,0,1,2.037-4.905,8.784,8.784,0,0,1,4.867-2.463v-1.527a1.727,1.727,0,0,1,.528-1.242,1.667,1.667,0,0,1,1.24-.487,1.591,1.591,0,0,1,1.181.487,1.776,1.776,0,0,1,.491,1.242v1.527a8.268,8.268,0,0,1,5.984,3.664,1.565,1.565,0,0,1,.224.773,3.582,3.582,0,0,1-.041.387,2.136,2.136,0,0,1-.55.956,1.919,1.919,0,0,1-1.323.489,1.878,1.878,0,0,1-1.2-.367,9.217,9.217,0,0,0-2.137-1.5,6.735,6.735,0,0,0-2.687-.489,5.482,5.482,0,0,0-3.176.915,2.942,2.942,0,0,0-1.362,2.5,2.674,2.674,0,0,0,1.77,2.483,17.553,17.553,0,0,0,4.131,1.2,13.789,13.789,0,0,1,5.254,2.343,6.1,6.1,0,0,1,2.361,4.987,7.494,7.494,0,0,1-2.057,5.17,9.087,9.087,0,0,1-5.189,2.685v1.731a1.684,1.684,0,0,1-1.692,1.731A1.72,1.72,0,0,1,602.931,214.833Z" transform="translate(-595.418 -183.65)"/><g transform="translate(24.525)"><path class="ai" d="M614.958,214.833v-1.69a10.045,10.045,0,0,1-4.477-1.729,8.134,8.134,0,0,1-2.771-3.176,2.259,2.259,0,0,1-.161-1.729,1.991,1.991,0,0,1,.956-1.06,1.843,1.843,0,0,1,.9-.263,2.623,2.623,0,0,1,1.873,1.221,6.118,6.118,0,0,0,5.454,2.809,5.75,5.75,0,0,0,3.34-.979,3.3,3.3,0,0,0,1.545-2.769,2.809,2.809,0,0,0-1.566-2.565,10.412,10.412,0,0,0-2.748-.956l-.528-.143a14.223,14.223,0,0,1-6.19-2.463,6.155,6.155,0,0,1-2.524-5.068,6.966,6.966,0,0,1,2.035-4.905,8.79,8.79,0,0,1,4.867-2.463v-1.527a1.729,1.729,0,0,1,.53-1.242,1.667,1.667,0,0,1,1.24-.487,1.594,1.594,0,0,1,1.18.487,1.773,1.773,0,0,1,.489,1.242v1.527a8.273,8.273,0,0,1,5.986,3.664,1.565,1.565,0,0,1,.224.773,3.221,3.221,0,0,1-.043.387,2.133,2.133,0,0,1-.549.956,1.919,1.919,0,0,1-1.323.489,1.884,1.884,0,0,1-1.2-.367,9.216,9.216,0,0,0-2.137-1.5,6.724,6.724,0,0,0-2.685-.489,5.478,5.478,0,0,0-3.176.915,2.944,2.944,0,0,0-1.364,2.5,2.677,2.677,0,0,0,1.77,2.483,17.574,17.574,0,0,0,4.133,1.2,13.79,13.79,0,0,1,5.254,2.343,6.1,6.1,0,0,1,2.359,4.987,7.492,7.492,0,0,1-2.055,5.17A9.086,9.086,0,0,1,618.4,213.1v1.731a1.683,1.683,0,0,1-1.69,1.731A1.722,1.722,0,0,1,614.958,214.833Z" transform="translate(-607.447 -183.65)"/></g><g transform="translate(49.049)"><path class="ai" d="M626.987,214.833v-1.69a10.062,10.062,0,0,1-4.479-1.729,8.143,8.143,0,0,1-2.769-3.176,2.4,2.4,0,0,1-.263-1.079,2.444,2.444,0,0,1,.1-.65,1.991,1.991,0,0,1,.956-1.06,1.837,1.837,0,0,1,.9-.263,2.623,2.623,0,0,1,1.874,1.221,6.118,6.118,0,0,0,5.454,2.809,5.754,5.754,0,0,0,3.34-.979,3.3,3.3,0,0,0,1.545-2.769,2.81,2.81,0,0,0-1.566-2.565,10.438,10.438,0,0,0-2.748-.956l-.53-.143a14.224,14.224,0,0,1-6.188-2.463,6.154,6.154,0,0,1-2.524-5.068,6.966,6.966,0,0,1,2.035-4.905,8.784,8.784,0,0,1,4.867-2.463v-1.527a1.729,1.729,0,0,1,.53-1.242,1.663,1.663,0,0,1,1.24-.487,1.594,1.594,0,0,1,1.18.487,1.773,1.773,0,0,1,.489,1.242v1.527a8.276,8.276,0,0,1,5.986,3.664,1.562,1.562,0,0,1,.222.773,3.6,3.6,0,0,1-.041.387,2.117,2.117,0,0,1-.55.956,1.912,1.912,0,0,1-1.323.489,1.883,1.883,0,0,1-1.2-.367,9.214,9.214,0,0,0-2.137-1.5,6.724,6.724,0,0,0-2.685-.489,5.478,5.478,0,0,0-3.177.915,2.94,2.94,0,0,0-1.364,2.5,2.677,2.677,0,0,0,1.77,2.483,17.576,17.576,0,0,0,4.133,1.2,13.792,13.792,0,0,1,5.252,2.343,6.1,6.1,0,0,1,2.361,4.987,7.492,7.492,0,0,1-2.055,5.17,9.092,9.092,0,0,1-5.191,2.685v1.731a1.683,1.683,0,0,1-1.69,1.731A1.722,1.722,0,0,1,626.987,214.833Z" transform="translate(-619.476 -183.65)"/></g></g><path class="ai" d="M403.865,166.221h-49.5a1.5,1.5,0,0,0-1.5,1.5v27.756a1.5,1.5,0,0,0,1.5,1.5h49.5a1.5,1.5,0,0,0,1.5-1.5V167.717A1.5,1.5,0,0,0,403.865,166.221Zm-40.107,20.573-6.072,6.072a.748.748,0,1,1-1.058-1.058l6.072-6.072a.748.748,0,0,1,1.058,1.058Zm30.718-1.058a.749.749,0,0,1,1.058,0l6.072,6.072a.749.749,0,0,1-.53,1.278.739.739,0,0,1-.528-.22l-6.072-6.072A.749.749,0,0,1,394.477,185.736Zm-39.014-16.749a.749.749,0,0,1,1.013-.308l22.641,12.068,22.643-12.068a.747.747,0,1,1,.7,1.319l-22.993,12.257a.749.749,0,0,1-.7,0L355.772,170A.748.748,0,0,1,355.462,168.988Z" transform="translate(87.235 60.031)"/><g transform="translate(376.255 179.578)"><g transform="translate(559.267 46.138)"><path class="aj" d="M601.6,177.42a5.731,5.731,0,1,1,5.729-5.731A5.738,5.738,0,0,1,601.6,177.42Zm0-9.423a3.692,3.692,0,1,0,3.69,3.692A3.7,3.7,0,0,0,601.6,168Z" transform="translate(-595.867 -165.958)"/></g><g transform="translate(154.543 56.32)"><path class="aj" d="M403.086,182.41a5.729,5.729,0,1,1,5.731-5.729A5.737,5.737,0,0,1,403.086,182.41Zm0-9.419a3.69,3.69,0,1,0,3.692,3.69A3.7,3.7,0,0,0,403.086,172.991Z" transform="translate(-397.355 -170.952)"/></g><g transform="translate(616.26 150.928)"><path class="aj" d="M629.552,228.816a5.73,5.73,0,1,1,5.729-5.729A5.736,5.736,0,0,1,629.552,228.816Zm0-9.421a3.691,3.691,0,1,0,3.69,3.692A3.7,3.7,0,0,0,629.552,219.395Z" transform="translate(-623.821 -217.356)"/></g><g transform="translate(0 351.347)"><path class="aj" d="M327.283,327.119a5.73,5.73,0,1,1,5.731-5.729A5.734,5.734,0,0,1,327.283,327.119Zm0-9.421a3.691,3.691,0,1,0,3.692,3.692A3.7,3.7,0,0,0,327.283,317.7Z" transform="translate(-321.554 -315.659)"/></g><g transform="translate(681.319 310.141)"><path class="aj" d="M661.463,306.908a5.73,5.73,0,1,1,5.729-5.729A5.736,5.736,0,0,1,661.463,306.908Zm0-9.421a3.691,3.691,0,1,0,3.69,3.692A3.7,3.7,0,0,0,661.463,297.487Z" transform="translate(-655.732 -295.448)"/></g><g transform="translate(171.03 57.37)"><g transform="translate(3.792)"><path class="aj" d="M408.321,181.088a1.018,1.018,0,0,1-1.019-1.019v-7.582a1.019,1.019,0,1,1,2.039,0v7.582A1.02,1.02,0,0,1,408.321,181.088Z" transform="translate(-407.302 -171.467)"/></g><g transform="translate(0 3.792)"><path class="aj" d="M414.044,175.366h-7.582a1.019,1.019,0,0,1,0-2.039h7.582a1.019,1.019,0,0,1,0,2.039Z" transform="translate(-405.442 -173.327)"/></g></g><g transform="translate(33.893 446.599)"><g transform="translate(3.792)"><path class="aj" d="M341.057,372a1.018,1.018,0,0,1-1.019-1.019V363.4a1.019,1.019,0,1,1,2.039,0v7.582A1.02,1.02,0,0,1,341.057,372Z" transform="translate(-340.038 -362.379)"/></g><g transform="translate(0 3.79)"><path class="aj" d="M346.78,366.277H339.2a1.019,1.019,0,1,1,0-2.039h7.582a1.019,1.019,0,1,1,0,2.039Z" transform="translate(-338.178 -364.238)"/></g></g><g transform="translate(617.179 135.977)"><g transform="translate(3.792)"><path class="aj" d="M627.151,219.644a1.018,1.018,0,0,1-1.019-1.019v-7.582a1.019,1.019,0,0,1,2.039,0v7.582A1.02,1.02,0,0,1,627.151,219.644Z" transform="translate(-626.132 -210.023)"/></g><g transform="translate(0 3.79)"><path class="aj" d="M632.874,213.921h-7.582a1.019,1.019,0,0,1,0-2.039h7.582a1.019,1.019,0,0,1,0,2.039Z" transform="translate(-624.272 -211.882)"/></g></g><g transform="translate(294.073)"><g transform="translate(3.79)"><path class="aj" d="M468.671,152.947a1.018,1.018,0,0,1-1.019-1.019v-7.58a1.019,1.019,0,1,1,2.039,0v7.58A1.017,1.017,0,0,1,468.671,152.947Z" transform="translate(-467.652 -143.328)"/></g><g transform="translate(0 3.79)"><path class="aj" d="M474.395,147.226h-7.582a1.019,1.019,0,1,1,0-2.039h7.582a1.019,1.019,0,1,1,0,2.039Z" transform="translate(-465.793 -145.187)"/></g></g></g></g></svg>