<svg xmlns="http://www.w3.org/2000/svg" width="91.883" height="80.756" viewBox="0 0 91.883 80.756"><defs><style>.a{fill:#fabe2c;}.b{fill:#6aa9ff;}.c{fill:#ff435b;}.d{fill:#fed843;}.e{fill:#ff7b4a;}.f{fill:#7ed8f6;}.g{fill:#61729b;}</style></defs><g transform="translate(-578 -1606)"><g transform="translate(578 1606)"><g transform="translate(59.221 16.151)"><path class="a" d="M335.384,123.692v10.767a2.692,2.692,0,1,1-5.384,0V123.692a2.692,2.692,0,1,1,5.384,0Z" transform="translate(-330 -121)"/></g><g transform="translate(69.989 10.767)"><path class="b" d="M395.384,93.692v16.151a2.692,2.692,0,1,1-5.384,0V93.692a2.692,2.692,0,0,1,5.384,0Z" transform="translate(-390 -91)"/></g><g transform="translate(80.756 5.384)"><path class="c" d="M455.384,63.692V85.227a2.692,2.692,0,1,1-5.384,0V63.692a2.692,2.692,0,1,1,5.384,0Z" transform="translate(-450 -61)"/></g><path class="d" d="M86.855,33.692V68.686L64.064,67.251,46.8,56.038A40.327,40.327,0,0,1,84.163,31,2.693,2.693,0,0,1,86.855,33.692Z" transform="translate(-38.401 -31)"/><path class="e" d="M207.728,243.692a40.354,40.354,0,0,1-37.686,40.288q-1.335.089-2.692.09a40.29,40.29,0,0,1-19.17-4.833l5.366-21.906L170.042,241h34.994A2.693,2.693,0,0,1,207.728,243.692Z" transform="translate(-121.588 -203.314)"/><path class="c" d="M307.686,243.692A40.354,40.354,0,0,1,270,283.98V241h34.994A2.693,2.693,0,0,1,307.686,243.692Z" transform="translate(-221.546 -203.314)"/><path class="f" d="M48.454,178.7l-23.24,40.647a2.692,2.692,0,0,1-3.711.854A45.827,45.827,0,0,1,2.337,166.919a2.7,2.7,0,0,1,3.406-1.7Z" transform="translate(0 -141.016)"/><g transform="translate(53.837 26.919)"><path class="g" d="M338.045,183.692a2.693,2.693,0,0,1-2.692,2.692H302.692a2.692,2.692,0,1,1,0-5.384h32.661A2.693,2.693,0,0,1,338.045,183.692Z" transform="translate(-300 -181)"/></g></g></g></svg>