<svg xmlns="http://www.w3.org/2000/svg" width="371.5" height="777.033" viewBox="0 0 371.5 777.033"><defs><style>.a,.k{fill:#fff;}.a,.b{stroke:#d8baa3;}.a,.b,.h,.l,.m{stroke-miterlimit:10;}.a,.b,.l{stroke-width:6px;}.b,.h,.l,.m{fill:none;}.c{fill:#b65a18;}.d{fill:#642648;}.e{fill:#c36f0b;}.f{fill:#722d54;}.g{fill:#3f4d90;}.h,.j{stroke:#fff;}.h{stroke-width:4px;}.i,.j{fill:#f0e1d4;}.j,.k{stroke-linejoin:round;stroke-width:5px;}.k{stroke:#3f4d79;}.l,.m{stroke:#722d54;}.m{stroke-width:3px;}</style></defs><g transform="translate(0 0)"><g transform="translate(0 0)"><g transform="translate(45.739 478.151)"><rect class="a" width="216.368" height="46.369" rx="23.185"/><path class="b" d="M101.046,1145.862h0a1.416,1.416,0,0,1-1.434-1.586L134.5,896.35H248.188l-145.878,248.8A1.457,1.457,0,0,1,101.046,1145.862Z" transform="translate(-87.055 -849.981)"/><path class="b" d="M313.2,1145.862h0a1.4,1.4,0,0,0,1.422-1.6l-40.7-247.908H160.24l151.724,248.827a1.457,1.457,0,0,0,1.241.685Z" transform="translate(-112.209 -849.981)"/></g><g transform="translate(65.973 348.722)"><g transform="translate(210.206 332.009)"><path class="c" d="M486.07,1163.3c7.888.784,20.657,2.341,35.889.9-3.909,15.086-5.705,29.51-8.549,42.325-1.837,8.251,9.363,19.422,12.757,27.5a2.7,2.7,0,0,0-.263-.123c-15.53-2.475-36.328,12.213-34.186-10.714C493.771,1200.236,488.6,1183.4,486.07,1163.3Z" transform="translate(-477.813 -1163.3)"/><path class="d" d="M486.332,1236.8c-5.343,0-15.179,9.65-14.319,25.1a121.131,121.131,0,0,0,4.494,26.918h62.321c2.926-22.078-18.778-24.46-18.778-24.46-15.536-2.475-35.549,12.213-33.407-10.709Z" transform="translate(-471.96 -1193.79)"/></g><g transform="translate(173.334 332.595)"><path class="e" d="M412.07,1164.3a229.144,229.144,0,0,0,39.985.31c-3.909,15.086-6.209,42.326-6.209,42.326-1.837,8.251,9.363,19.422,12.757,27.5a2.686,2.686,0,0,0-.263-.123c-15.531-2.475-36.328,12.213-34.186-10.714C426.208,1200.651,412.07,1164.3,412.07,1164.3Z" transform="translate(-410.243 -1164.3)"/><path class="f" d="M422.157,1236.8c-5.343,0-14.009,9.65-13.149,25.1a121.127,121.127,0,0,0,4.494,26.918h62.321c2.926-22.078-18.778-24.46-18.778-24.46-15.536-2.475-35.549,12.213-33.407-10.709Z" transform="translate(-408.948 -1194.375)"/></g><path class="g" d="M162.672,595.93s-53.549,64.808-49.74,108.029,48.2,56,129.908,55.047c0,0,2.393,64.831,44.824,169.7a140.945,140.945,0,0,0,43.888,0s20.481,2.066,35.7-.1c0,0,32.442-212.037,28.5-233.542-5.226-28.5-108.491-54.2-135.222-60.378L238.177,595.93S193.306,601.63,162.672,595.93Z" transform="translate(-112.739 -595.93)"/><path class="h" d="M300.64,705s85.646,22.471,96.1,50.015,10.99,221.277,10.99,221.277" transform="translate(-190.685 -641.175)"/></g><g transform="translate(48.916 162.994)"><path class="i" d="M253.9,383.169s-3.324,46.3-28.03,81.21c0,0-40.377,6.888-75.487,0,0,0-34.788-36.585-44.76-76.236,0,0-33.127-67.19-18.14-78.589s52.273-31.014,52.273-31.014l75.844,3.722c9.363,5.688,29.323,14.986,49.272,25.432Z" transform="translate(-83.589 -278.54)"/><ellipse class="j" cx="5.471" cy="5.471" rx="5.471" ry="5.471" transform="translate(103.377 78.314)"/><ellipse class="j" cx="5.471" cy="5.471" rx="5.471" ry="5.471" transform="translate(103.377 100.457)"/><ellipse class="j" cx="5.471" cy="5.471" rx="5.471" ry="5.471" transform="translate(103.377 122.594)"/></g><g transform="translate(144.188 192.142)"><path class="i" d="M385.555,328.35C405.5,338.8,464.179,473.3,439.76,487.517c-50.711,29.569-65.13-83.68-65.13-83.68Z" transform="translate(-299.593 -328.35)"/><path class="c" d="M441.535,577.506c6.846,2.926,24.513-2.464,44.145-15.326s-2.639-21.353-2.639-21.353-26.1-10.475-42.021-2.926S428.421,571.859,441.535,577.506Z" transform="translate(-322.704 -414.143)"/><path class="k" d="M471.212,495.39H364.02L246.4,572.381H353.586Z" transform="translate(-246.4 -397.643)"/><path class="e" d="M543.415,539.441c0-2.8-17.778-19.252-24.577-13.038-2.85,2.6-3.014,24.911-2.75,28.937C516.918,568.156,543.268,553.79,543.415,539.441Z" transform="translate(-358.237 -409.931)"/></g><g transform="translate(0 190.778)"><path class="i" d="M52.758,329.25c-6.092,4.834-70.765,103.295-47.879,148.634,25.818,51.179,130.7,8.684,130.7,8.684s-13.307-4.1-4.757-21.195c0,0-43.4-23.091-78.3-16.2,0,0,27.07-44.883,29.92-62.455S74.608,311.917,52.758,329.25Z" transform="translate(0.002 -326.019)"/><line class="l" x2="19.112" y2="42.688" transform="translate(158.255 109.393)"/><g transform="translate(126.841 130.205)"><path class="e" d="M220.773,556.305s19.235-10.966,26.918-6.858c8.421,4.494,18.521,18.726,19.445,21.119s.661,4.88.515,7.443-17.555,2.417-20.9,2.224S225.436,582.17,222.3,579.1C210.789,567.827,220.773,556.305,220.773,556.305Z" transform="translate(-216.756 -548.526)"/><path class="c" d="M268,580.9c3.371.193,18.761.386,20.721-1.44,3.891-3.611,1.662-9.006-.287-11.118-1.785-1.943-11.282-13.734-19.492-18.211,0,0,9.521,16.566-.942,30.786" transform="translate(-238.013 -549.192)"/></g></g><g transform="translate(42.65)"><path class="f" d="M155.419,39.657s-8.549-13.775,0-20.9S167.485.076,182.963,0c15.987-.076,22.365,12.388,29.686,11.159,9.948-1.668,16.923-4.874,29.557,1.791,10.112,5.337,10.533,25.344,20.785,24.331,8.157-.8,17.216-.287,21.845,8.778,3.511,6.864-.234,25.408,4.986,30.394s17.555,6.612,18.527,19.469c1.287,17.374-16.853,19.931-12.113,33.723,6.238,18.14-2.563,29.528-18.047,31.6-10.89,1.445-30.025-14.746-37.041-3.564-5.986,9.532-18.527,13.775-33.94,7.607s-24.934-4.278-34.432-.24-21.136,9.731-28.972,2.844-17.292-7.081-27.725-2.768c-14.477,5.986-30.013-3.856-28.088-16.935,1.6-10.808-13.237-12.172-14.957-24.46-2.247-16.051,21.371-20.183,14.483-27.07s-6.642-27.023,13.763-29.692c19.357-2.516,15.214-14.577,20.674-22.822C126.558,37.252,140.936,28.5,155.419,39.657Z" transform="translate(-72.881 0.001)"/><path class="m" d="M81.42,115.518c-6.437-7.291-4.383-29.727,16.145-31.125C117.04,83.07,113.634,70.776,119.6,62.905c5.021-6.618,21.85-14.518,37.779-.7" transform="translate(-75.078 -22.639)"/><g transform="translate(62.384 98.83)"><path class="e" d="M202.405,168.913c-.146,12.289.62,46.176-22.915,64.135,0,0,42.261,21.224,51.8,68.243,0,0,6.712-49.558,24.045-64.521,0,0-20.54-11.645-16.028-67.88Z" transform="translate(-179.49 -168.89)"/><path class="c" d="M259.382,217.628a14.545,14.545,0,0,1-9.807,4.155c-14.828,0-29.592-22.588-31.014-46.738.047-2.376.047-4.447.07-6.115h36.9C253.676,191.793,255.988,207.294,259.382,217.628Z" transform="translate(-195.697 -168.907)"/></g><path class="e" d="M216.359,123.479c.164-6.179,2.341-38.469,28.492-37.281s30.394,27.544,28.053,48.681-15.214,35.38-24.22,34.432S215.645,149.6,216.359,123.479Z" transform="translate(-132.393 -35.743)"/></g></g></g></svg>