<svg xmlns="http://www.w3.org/2000/svg" width="27" height="31.5" viewBox="0 0 27 31.5"><defs><style>.a{fill:#fff;}</style></defs><path class="a" d="M26.536,2.25A4.973,4.973,0,0,0,22.8,10.5a4.914,4.914,0,0,0,2.686,1.582v3.03L18,19.005l-7.481-3.9V12.08A4.967,4.967,0,1,0,5.73,10.5,4.914,4.914,0,0,0,8.416,12.08v4.036a.492.492,0,0,0,.274.443l8.262,4.275V23.92A4.965,4.965,0,1,0,21.734,25.5a4.914,4.914,0,0,0-2.686-1.582V20.834l8.262-4.275a.492.492,0,0,0,.274-.443V12.08a4.971,4.971,0,0,0-1.048-9.83ZM6.6,7.221A2.869,2.869,0,1,1,9.464,10.09,2.872,2.872,0,0,1,6.6,7.221ZM20.869,28.779A2.869,2.869,0,1,1,18,25.91,2.872,2.872,0,0,1,20.869,28.779ZM26.536,10.1A2.869,2.869,0,1,1,29.4,7.228,2.872,2.872,0,0,1,26.536,10.1Z" transform="translate(-4.5 -2.25)"/></svg>