<svg xmlns="http://www.w3.org/2000/svg" width="70" height="112.841" viewBox="0 0 70 112.841"><defs><style>.a{fill:#86dcff;}.b{fill:#56caed;}.c{fill:#e4eef9;}.d{fill:#d5e0f2;}.e{fill:#ffc4ad;}.f{fill:#ffb69f;}.g{fill:#ffe0cc;}.h{fill:#ffceb3;}.i{fill:#2d4456;}.j{fill:#253847;}.k{fill:#e6485d;}.l{fill:#ff5876;}.m{fill:#ffcf4d;}.n{fill:#ffb629;}</style></defs><g transform="translate(-97.192 0.001)"><g transform="translate(98.91 1.763)"><path class="a" d="M171.551,350.511H104.988V332.787a25.667,25.667,0,0,1,25.667-25.667h15.23a25.667,25.667,0,0,1,25.667,25.667Z" transform="translate(-104.988 -241.197)"/><path class="b" d="M104.988,486h66.564v3.967H104.988Z" transform="translate(-104.988 -380.653)"/><path class="c" d="M188.538,330.8l19.071-20.985a25.559,25.559,0,0,0-11.456-2.694h-15.23a25.559,25.559,0,0,0-11.456,2.694Z" transform="translate(-155.256 -241.196)"/><path class="d" d="M172.056,314.269a25.546,25.546,0,0,0-2.589,1.118l19.071,20.985,19.071-20.985a25.568,25.568,0,0,0-2.589-1.118l-15.667,17.239a1.1,1.1,0,0,1-1.631,0Z" transform="translate(-155.256 -246.77)"/><g transform="translate(4.786 36.706)"><path class="e" d="M134.367,182.936v-8.349a7.026,7.026,0,0,0-.718-.037,6.946,6.946,0,1,0,1.416,13.747,20.857,20.857,0,0,1-.7-5.361Z" transform="translate(-126.703 -174.55)"/><path class="e" d="M348.77,174.549a7.026,7.026,0,0,0-.718.037v8.349a20.857,20.857,0,0,1-.7,5.361,6.946,6.946,0,1,0,1.416-13.747Z" transform="translate(-298.724 -174.549)"/></g><path class="f" d="M133.649,202.03a6.948,6.948,0,0,1-6.657-4.963,6.949,6.949,0,0,0,8.073,8.785,20.821,20.821,0,0,1-.643-3.866A7,7,0,0,1,133.649,202.03Z" transform="translate(-121.917 -155.399)"/><path class="f" d="M348.771,202.03a6.994,6.994,0,0,1-.773-.044,20.827,20.827,0,0,1-.643,3.866,6.947,6.947,0,0,0,8.073-8.785A6.949,6.949,0,0,1,348.771,202.03Z" transform="translate(-293.939 -155.399)"/><path class="g" d="M161.479,77.674V107.41a20.832,20.832,0,1,0,41.663,0V77.674Z" transform="translate(-149.029 -62.319)"/><path class="h" d="M182.311,215.431A20.832,20.832,0,0,1,161.479,194.6v3.967a20.832,20.832,0,1,0,41.663,0V194.6A20.832,20.832,0,0,1,182.311,215.431Z" transform="translate(-149.029 -153.475)"/><path class="i" d="M164.093,38.657c-4.128-2.366-7.956-9.247-7.956-9.247-3.982,7.594-12.628,8.412-12.628,8.412.8-3.856-2.162-7.477-2.162-7.477a24.581,24.581,0,0,1-18.357,8.631,3.92,3.92,0,0,1-1.049-.171c-5.453-1.669-10.547-8.348-10.547-8.348,7.893.244,10.519-4.874,10.519-4.874-8.065.244-8.617-8.077-8.617-8.077,12.163,1.586,14.6-5.606,25.322-8.774s18.32,5.013,18.32,5.013,10.87-1.05,11.8,10.032c.891,10.592-4.648,14.88-4.648,14.88" transform="translate(-109.982 -8.002)"/><g transform="translate(1.412 16.013)"><path class="j" d="M269.282,90.841c-2.626-1.859-5.037-5.3-6.288-7.265a1.1,1.1,0,0,0-1.81-.067c-4.5,5.815-13.879,3.48-13.879,3.48s2.958,3.622,2.162,7.477c0,0,8.646-.818,12.628-8.412,0,0,3.828,6.882,7.956,9.247,0,0,5.451-4.227,4.664-14.642a16.41,16.41,0,0,1-3.988,10.031A1.1,1.1,0,0,1,269.282,90.841Z" transform="translate(-217.351 -80.659)"/><path class="j" d="M141.58,99a1.1,1.1,0,0,0-1.853-.947,24.5,24.5,0,0,1-16.738,6.917,3.92,3.92,0,0,1-1.049-.171,19.636,19.636,0,0,1-7.145-4.636,15.418,15.418,0,0,1-3.4.255s5.094,6.679,10.547,8.348a3.908,3.908,0,0,0,1.049.171,24.58,24.58,0,0,0,18.357-8.631c.1-.494.178-.927.233-1.306Z" transform="translate(-111.394 -93.979)"/></g><path class="k" d="M240.244,314.581h-7.722l-1.684-7.461h11.091Z" transform="translate(-203.101 -241.197)"/><path class="l" d="M235.908,357.191l5.68-6.25-1.819-9.968h-7.722l-1.819,9.968Z" transform="translate(-202.626 -267.589)"/><path class="k" d="M241.588,374.515l-.6-3.3-4.262,4.689a1.1,1.1,0,0,1-1.631,0l-4.262-4.689-.6,3.3,5.68,6.25Z" transform="translate(-202.626 -291.163)"/><path class="m" d="M148.98,319.344a25.721,25.721,0,0,0-5.791,3.964l22.416,24.665a3.306,3.306,0,0,0,4.893,0l22.416-24.665a25.712,25.712,0,0,0-5.791-3.964l-19.071,20.985Z" transform="translate(-134.77 -250.727)"/><path class="n" d="M170.5,352.052a3.306,3.306,0,0,1-4.893,0l-20.347-22.388a25.729,25.729,0,0,0-2.069,1.69l22.416,24.665a3.306,3.306,0,0,0,4.893,0l22.416-24.665a25.692,25.692,0,0,0-2.069-1.69Z" transform="translate(-134.77 -258.772)"/></g><g transform="translate(97.192 -0.001)"><g transform="translate(0 0)"><path d="M143.518,66.307a22.644,22.644,0,0,0,10.031-12.3c.078,0,.155.006.233.006a8.615,8.615,0,0,0,.936-17.178V33.1c1.581-1.592,5.43-6.482,4.648-15.769A12.187,12.187,0,0,0,155.232,8.6a13.806,13.806,0,0,0-8.689-2.868c-2.054-1.92-9.461-7.886-19.475-4.929a32.014,32.014,0,0,0-5.66,2.285,1.656,1.656,0,1,0,1.518,2.944,28.716,28.716,0,0,1,5.08-2.052c9.6-2.834,16.39,4.261,16.671,4.561a1.669,1.669,0,0,0,1.367.522,10.8,10.8,0,0,1,7.085,2.1,9.026,9.026,0,0,1,2.936,6.445c.6,7.126-1.868,11.059-3.21,12.637-3.3-2.564-6.288-7.879-6.32-7.937a1.668,1.668,0,0,0-2.914.036A14.89,14.89,0,0,1,134.2,29.5,12.978,12.978,0,0,0,131.554,23a1.667,1.667,0,0,0-2.536-.034,22.957,22.957,0,0,1-17.1,8.073,2.276,2.276,0,0,1-.608-.1c-2.882-.882-5.738-3.415-7.6-5.354,6.186-1.066,8.456-5.342,8.564-5.553a1.668,1.668,0,0,0-1.523-2.411,5.921,5.921,0,0,1-5.8-3.022,8.553,8.553,0,0,1-.694-1.562c5.939.294,9.58-1.561,13.055-3.672a1.656,1.656,0,1,0-1.72-2.83c-3.507,2.131-6.922,3.829-13.207,3.009a1.667,1.667,0,0,0-1.867,1.752,12.655,12.655,0,0,0,1.494,4.836,8.993,8.993,0,0,0,5.426,4.406,11.02,11.02,0,0,1-7.122,1.968,1.667,1.667,0,0,0-1.368,2.659c.213.279,5.1,6.615,10.719,8.71v2.961a8.615,8.615,0,0,0,.936,17.178c.078,0,.155,0,.233-.006a22.642,22.642,0,0,0,10.031,12.3,27.411,27.411,0,0,0-23.673,27.12v3.44a1.656,1.656,0,0,0,3.312,0v-3.44a23.975,23.975,0,0,1,6.713-16.654l21.3,23.436a5,5,0,0,0,7.353,0l6.961-7.659a1.656,1.656,0,1,0-2.451-2.227l-6.961,7.659a1.663,1.663,0,0,1-2.451,0l-21.3-23.435a24.127,24.127,0,0,1,3.063-2.061L130.967,92.55a1.666,1.666,0,0,0,2.451,0l18.235-20.064a24.174,24.174,0,0,1,3.063,2.061l-9.879,10.871a1.656,1.656,0,1,0,2.451,2.228l9.88-10.872a23.974,23.974,0,0,1,6.713,16.654v16.1h-9.861V96.606a1.656,1.656,0,1,0-3.312,0v12.922H113.677V96.606a1.656,1.656,0,1,0-3.312,0v12.922H100.5v-6.037a1.656,1.656,0,0,0-3.312,0v7.693a1.656,1.656,0,0,0,1.656,1.656h66.688a1.656,1.656,0,0,0,1.656-1.656V93.427a27.412,27.412,0,0,0-23.674-27.121Zm-8.782,7.224h-5.089l-.94-4.163h6.969ZM159.085,45.4a5.31,5.31,0,0,1-4.693,5.267,22.577,22.577,0,0,0,.326-3.824V40.181A5.311,5.311,0,0,1,159.085,45.4Zm-53.786,0a5.311,5.311,0,0,1,4.367-5.219v6.661a22.579,22.579,0,0,0,.326,3.824A5.31,5.31,0,0,1,105.3,45.4Zm7.678,1.442V34.33a26.614,26.614,0,0,0,17.034-7.579,7.059,7.059,0,0,1,.8,4.455,1.656,1.656,0,0,0,1.778,1.984c.35-.033,7.8-.811,12.473-6.963a27.7,27.7,0,0,0,6.339,7.054V46.842a19.214,19.214,0,0,1-38.429,0Zm11.585,22.526h.75l1.321,5.854-1.16,6.358L115.857,71a23.936,23.936,0,0,1,8.706-1.631Zm7.63,19.6-3.914-4.307,1.427-7.823h4.974l1.427,7.823Zm6.718-7.392-1.16-6.358,1.321-5.854h.75A23.934,23.934,0,0,1,148.527,71Z" transform="translate(-97.192 0.001)"/><path d="M228.185,237.383c5.876,0,7.653-4.129,7.73-4.317h0a1.653,1.653,0,1,0-3.051-1.275c-.084.177-1.156,2.287-4.68,2.287s-4.6-2.109-4.68-2.287a1.653,1.653,0,1,0-3.05,1.275h0C220.532,233.254,222.309,237.383,228.185,237.383Z" transform="translate(-193.185 -179.91)"/><path d="M204.352,176.049A1.653,1.653,0,0,0,202.7,177.7v4.67a1.653,1.653,0,1,0,3.306,0V177.7A1.653,1.653,0,0,0,204.352,176.049Z" transform="translate(-179.446 -137.249)"/><path d="M295.954,184.026a1.653,1.653,0,0,0,1.653-1.653V177.7a1.653,1.653,0,0,0-3.306,0v4.67A1.653,1.653,0,0,0,295.954,184.026Z" transform="translate(-250.86 -137.25)"/></g></g></g></svg>