<svg xmlns="http://www.w3.org/2000/svg" xmlns:xlink="http://www.w3.org/1999/xlink" width="634.596" height="551.143" viewBox="0 0 634.596 551.143"><defs><style>.a,.b{fill:#6c63ff;}.a,.g,.l{opacity:0.1;}.c{opacity:0.03;}.d,.n{fill:#fff;}.d,.o{opacity:0.15;}.e{fill:url(#a);}.f{fill:#53517c;}.h{fill:#b3d7f7;}.i{fill:#c37871;}.j{fill:#e6eaed;}.k{fill:#4b3e3c;}.m{opacity:0.25;}.n{opacity:0.2;}.p{fill:#3acc6c;}.q{fill:#ff748e;}.r{fill:#5e5a6b;}</style><linearGradient id="a" x1="0.5" y1="1" x2="0.5" gradientUnits="objectBoundingBox"><stop offset="0" stop-color="gray" stop-opacity="0.251"/><stop offset="0.54" stop-color="gray" stop-opacity="0.122"/><stop offset="1" stop-color="gray" stop-opacity="0.102"/></linearGradient></defs><g transform="translate(-27.858 -0.01)"><path class="a" d="M335.359,53.374c21.528-19.185,55.331-23.081,86.092-21.57,96.632,4.805,183.856,51.449,259.3,104.214,27.312,19.1,54.205,39.685,71.935,65.99,36.09,53.555,25.389,127.735-24.8,171.847-17.073,15.01-37.769,26.522-59.024,36.72-37.769,18.136-78.552,32.691-121.433,36.838-30.586,2.952-61.549.553-91.946-3.574-84.938-11.519-168.315-36.992-238.194-80.573-30.649-19.115-59.542-42.874-72.173-73.8s-4.546-70.11,26.746-88.414c12.946-7.568,28.424-10.988,43.574-14.2,22.3-4.728,44.966-9.386,65.088-18.989,20.787-9.925,45.406-29.117,41.266-51.058C317.4,93.234,313.852,72.538,335.359,53.374Z" transform="translate(-111.552 -31.5)"/><ellipse class="a" cx="104.018" cy="18.416" rx="104.018" ry="18.416" transform="translate(171.162 514.321)"/><ellipse class="a" cx="52.869" cy="11.645" rx="52.869" ry="11.645" transform="translate(501.638 517.448)"/><path class="b" d="M410.628,468.99l-4.308-1.28.2,3.133,9.645,3.686-1.749-5.19Z" transform="translate(-122.132 -140.581)"/><path class="c" d="M410.628,468.99l-4.308-1.28.2,3.133,9.645,3.686-1.749-5.19Z" transform="translate(-122.132 -140.581)"/><path class="b" d="M647.484,640.524a198.279,198.279,0,0,0,57.206-139.618V499.22H506.18Z" transform="translate(-221.796 -172.085)"/><path class="c" d="M647.484,640.524a198.279,198.279,0,0,0,57.206-139.618V499.22H506.18Z" transform="translate(-221.796 -172.085)"/><path class="b" d="M647.484,644.994a198.279,198.279,0,0,0,57.205-139.618c0-.566,0-1.126,0-1.686H506.18Z" transform="translate(-221.796 -173.428)"/><path class="d" d="M647.484,644.994a198.279,198.279,0,0,0,57.205-139.618c0-.566,0-1.126,0-1.686H506.18Z" transform="translate(-221.796 -173.428)"/><path class="e" d="M873.935,385.475l-3.063-27.648s-5.546-24.892-6.337-37.335S857.75,307.14,857.7,307.14h0s-7.393-4.322-8.05-5.763c-.511-1.105-4.616-3.455-6.477-4.49l-.909-.483s-2.308-9.617-5.057-8.239l-.224-.65a24.067,24.067,0,0,1-1.294-6.414v-.8a23.473,23.473,0,0,0,6.295-10.722,23.177,23.177,0,0,0,.7-4.378c0-.273,0-.553,0-.832,1.35-.944,1.574-2.945,1.93-4.616.657-3.063,2.378-5.805,3.2-8.827.07-.259.126-.525.175-.8v-.175a10.337,10.337,0,0,0,.161-1.679c0-.042,0-.077,0-.119,0-2.28-.7-4.518-2.588-5.735a5.6,5.6,0,0,1-1.2-.839,3.6,3.6,0,0,1-.615-1.112l-1.4-3.329a3.448,3.448,0,0,0-.7-1.182,5.071,5.071,0,0,0-1.867-.888c-2.1-.8-3.5-2.756-4.525-4.7a21.3,21.3,0,0,0-3.574-5.6c-2.6-2.483-6.463-3.008-10.044-3.4a10.834,10.834,0,0,0-.252,3.42c-5.686-1.245-11.89-2.441-17.129.07a3.966,3.966,0,0,0-2.1,2.028h0a2.825,2.825,0,0,0-.084.329h0a2.171,2.171,0,0,0,0,.427,3.847,3.847,0,0,1,.091.93,1.4,1.4,0,0,1-.874.937c-1.721.762-3.8-.224-5.6.385-1.644.56-2.553,2.287-3.063,3.938s-.839,3.42-1.951,4.742c-.56.7-1.294,1.168-1.874,1.819a5.6,5.6,0,0,0-1.322,4.448.788.788,0,0,0,0,.126,2.529,2.529,0,0,0,.133.629,5.687,5.687,0,0,0,.266.7c.1.2.2.4.315.595h0c.783,1.322,1.951,2.469,2.245,3.966v.056c.343,1.923-.881,3.756-1.189,5.672h0c0,.154-.042.3-.049.455v.518c.1,2.8,2.672,4.651,4.2,6.707a12.6,12.6,0,0,0,1.972,2.728c.042.3.091.595.154.881a22.821,22.821,0,0,0,2.28,6.5,23.78,23.78,0,0,0,12.219,10.932c0,.273.056.553.084.832,0,.518.07,1.049.07,1.567v.755l-.231-1.777a6.876,6.876,0,0,0-2.63-.035,201.664,201.664,0,0,0-138.331-54.939V328.3c-5.777-1.735-10.491-1.93-10.142,2.154.322,4.2,4.9,8.449,10.142,11.967v91.687H769.868c.1,2.336.315,4.434.7,4.945,1.084,1.315.986,17.066.986,17.066s.532,2.889.664,3.406,1.714,13.89,1.714,14.541,1.455,5.246,1.322,7.078S777.632,489,777.632,489L778.023,500s4.092,6.162,4.357,6.554.133,8.12,4.616,11.792a5.217,5.217,0,0,1,1.455,2.483c.336,1.329,11.6,20.241,15.08,26.074l-.42,1.979-2.8,13.086-.133,5.5s-1.721,4.714-1.189,6.679a7.169,7.169,0,0,1,.266,3.147s-1.846,2.875-.657,4.714.525,2.882-1.189,7.6c-.755,2.1-.1,3.336.86,4.106a5.79,5.79,0,0,1-.084.7c-.245,2.1-.518,4.5-.518,5.134s-.245,3.5-.259,6.015c0,1.993.126,3.784.657,4.078,1.189.651,7.792,1.4,7.917,3.665s2.644,5.5,7.917,5.5,14.387-1.832,16.625-1.574c.371.049.588-.2.7-.63a2.09,2.09,0,0,0,.049-.224,4.994,4.994,0,0,0,3.078,1.644c7.917,1.448,17.548-2.1,19.4-5.63a6.464,6.464,0,0,0,.532-1.4c.881-3.5-.532-7.9-.532-7.9a13.47,13.47,0,0,1-.168-5.414,4.609,4.609,0,0,1,1.084-2.175c1.266-1.329,2.49-4.98,3.315-7.917.636-2.287,1.042-4.148,1.042-4.148s-.832-1.273-2.1-3.021h0c-2.539-3.56-6.826-9.092-9.505-10.037a3.072,3.072,0,0,1-.28-.825c-.126-1.308-2.9-5.6-2.9-5.6s-3.826-6.162-3.826-6.679-5.274-8.519-5.274-8.519-2.028-4.4-3.364-6.784c.154-.42.308-.951.469-1.581,1.4-5.511,2.8-18.094,2.5-19.8a8.647,8.647,0,0,1,1.315-7.337c2.014-3.014,1.853-7.854,1.853-7.854s-.133-14.814,1.315-17.821,5.539-27.116,5.414-27.648a19.912,19.912,0,0,1,1.049-3.826l.245-9.505v-.581s.923-8.253,2.1-10.093a4.393,4.393,0,0,0,.364-1.8h21.773c0-1.315-.049-2.623-.084-3.931h.084a199.936,199.936,0,0,0-2.1-27.4c2.042-2.476,4.511-4.2,4.588-4.728a29.122,29.122,0,0,1,1.448-4.721C874.991,390.713,873.935,385.475,873.935,385.475ZM829.99,590.5s.56-.336,1.469-.8c.056.224.112.462.168.7.588,2.532,1.294,6.043,1.133,7.694-.273,2.749-.7,7.078-.7,7.078a22.945,22.945,0,0,0-1.672,4.9c-.42-1.728-.832-3.091-.832-3.091s-8.981-6.015-8.981-9.036a23.68,23.68,0,0,0-.615-4.5h0c-.077-.378-.161-.741-.245-1.1a7.856,7.856,0,0,1,.993,1.546s2.679-6.5,3.322-9.092a2.1,2.1,0,0,0,.112-.993,8.494,8.494,0,0,1-.161-2.686c.63.7,1.112,1.4.951,1.9C824.57,584.208,829.99,590.5,829.99,590.5Z" transform="translate(-267.678 -88.568)"/><path class="f" d="M890.547,775.485c-2.21-.259-11.191,1.56-16.408,1.56s-7.694-3.245-7.812-5.469-6.637-2.987-7.812-3.637c-.518-.294-.65-2.1-.643-4.057,0-2.5.252-5.323.252-5.98s.266-3.021.511-5.1c.21-1.8.406-3.357.406-3.357,6.12-7.421,20.059-1.958,20.059-1.958s.594,2.063,1.077,4.371h0a23.936,23.936,0,0,1,.609,4.469c0,3,8.862,8.987,8.862,8.987a59.125,59.125,0,0,1,1.469,6.176C891.47,773.695,891.533,775.6,890.547,775.485Z" transform="translate(-327.507 -246.127)"/><path class="g" d="M890.547,783.356c-2.21-.252-11.191,1.567-16.4,1.567s-7.694-3.252-7.812-5.469-6.644-2.994-7.82-3.644c-.518-.287-.65-2.1-.643-4.05,2.49.755,5.959,1.993,7.162,3.273,1.951,2.1,2.469,4.42,3.777,4.686s2.6,2.1,8.848.518c3.9-.979,9.666-.986,13.457-.853C891.47,781.573,891.533,783.475,890.547,783.356Z" transform="translate(-327.507 -254.005)"/><path class="f" d="M928.26,746.649c-2.21,2.343-.9,7.547-.9,7.547s1.818,5.735,0,9.253-11.331,6.994-19.143,5.6a4.6,4.6,0,0,1-3.553-2.434c-1.909-3.763,1.336-10.33,1.336-10.33s.392-4.294.657-7.029c.154-1.651-.546-5.141-1.119-7.659-.385-1.651-.7-2.889-.7-2.889s11.89-17.059,15.5-17.185a1.634,1.634,0,0,1,.51.056c2.616.643,7.071,6.421,9.666,10.079,1.238,1.749,2.063,3.015,2.063,3.015S930.484,744.306,928.26,746.649Z" transform="translate(-341.391 -238.903)"/><path class="g" d="M928.518,751.006c-2.21,2.343-.9,7.547-.9,7.547s1.818,5.735,0,9.246-11.331,7.036-19.143,5.6a4.6,4.6,0,0,1-3.553-2.427c2.252-.476,5.8-1.084,11.366-1.735,13.408-1.567,9.89-10.414,9.89-10.414s-1.56-6.253.392-9.379c1.4-2.217,3.238-9.442,4.2-13.429,1.245,1.742,2.063,3.008,2.063,3.008S930.743,748.662,928.518,751.006Z" transform="translate(-341.649 -243.259)"/><path class="g" d="M880.5,751.859c-1.867-2.553-7.393-7.47-18.535,2.14a6.3,6.3,0,0,1-3.007-1.2c.21-1.8.406-3.357.406-3.357,6.12-7.421,20.059-1.958,20.059-1.958S880.02,749.551,880.5,751.859Z" transform="translate(-327.835 -246.127)"/><path class="h" d="M905.646,538.643v.574l-.266,9.463s-1.175,3.259-1.042,3.777-3.9,24.48-5.344,27.473-1.308,17.716-1.308,17.716.126,4.812-1.833,7.813a8.8,8.8,0,0,0-1.273,7.323c.322,1.693-1.084,14.205-2.462,19.682a6.851,6.851,0,0,1-.93,2.455,1.936,1.936,0,0,0-.315.6C889,640.352,884.16,670.2,884.16,670.2s-.049.573-.1,1.357a15.09,15.09,0,0,0,.1,4.113,2.1,2.1,0,0,1-.112.986c-.63,2.581-3.273,9.043-3.273,9.043s-5.078-11.331-19.276.909c0,0-5.469-.525-3.77-5.211s2.343-5.728,1.168-7.547.65-4.686.65-4.686a7.127,7.127,0,0,0-.259-3.126c-.525-1.951,1.175-6.638,1.175-6.638l.133-5.469,2.742-13.009.825-3.917.853-4.05,4.546-78.93.175-2.938,1.273-22.165,30.725-5.078,1.049,8.064,1.665,3.959Z" transform="translate(-327.366 -179.488)"/><path class="g" d="M894.012,537.425,875.19,549.818l.7,10.848s1.951,17.451,1.951,19.269-.916,16.667-.916,16.667,4.693,6.994,4.2,8.729,4.029,6.5,4.029,6.5l7.75,14.828s1.308,4.84,2.1,5.749a6.849,6.849,0,0,1-.93,2.455c-1.56,1.56-7.029,35.286-7.029,35.286s-.049.574-.1,1.357c-.4-.357-.7-.574-.7-.574s-3.777-6.253-3.777-6.9-4.036-5.861-4.036-5.861l-9.2-17.576-2.154-3.644.853-4.05,5.994-104.032,30.725-5.078,1.049,8.064-27.977,7.127Z" transform="translate(-330.273 -179.473)"/><path class="g" d="M909.37,538.628,875,551.042l1.273-22.165L907,523.8l1.049,8.064,1.665,3.959C909.5,537.425,909.37,538.628,909.37,538.628Z" transform="translate(-332.656 -179.473)"/><path class="g" d="M886.7,688.608a2.1,2.1,0,0,1-.112.986,3.4,3.4,0,0,1-.7-1.763c.392-1.175-3.126-3.91-3.126-3.91s-3.77-6.253-3.77-6.9-4.043-5.861-4.043-5.861l-9.092-17.3.825-3.917.853-4.05L872.106,567l.273,6.666s1.972,17.416,1.972,19.213-.909,16.667-.909,16.667,4.686,6.994,4.2,8.729,4.036,6.5,4.036,6.5l7.813,14.849s1.4,5.344,2.217,5.861a13.691,13.691,0,0,1,1.763,2.945c-1.874,4.833-6.714,34.684-6.714,34.684s-.049.573-.1,1.357A13.791,13.791,0,0,0,886.7,688.608Z" transform="translate(-329.909 -192.458)"/><path class="g" d="M924.824,727.891s-5.861,10.547-10.289,10.813c-2.987.175-6.623,1.825-8.666,2.889-.385-1.651-.7-2.889-.7-2.889s11.89-17.059,15.5-17.185a1.636,1.636,0,0,1,.511.056v.063C921.306,722.946,924.824,727.891,924.824,727.891Z" transform="translate(-341.725 -238.903)"/><path class="h" d="M898.9,662.246s-5.861,10.547-10.289,10.813-10.281,3.777-10.281,3.777-5.344-6.253-4.959-7.421-3.119-3.91-3.119-3.91-3.777-6.253-3.777-6.9-4.043-5.861-4.043-5.861l-9.239-17.576s-15.492-26.053-15.884-27.613a5.156,5.156,0,0,0-1.441-2.469c-4.42-3.651-4.294-11.331-4.553-11.722l-4.294-6.512-.392-10.939s-2.476-5.987-2.343-7.812-1.308-6.379-1.308-7.036-1.56-13.925-1.686-14.45-.657-3.385-.657-3.385.133-15.625-.9-16.933c-.574-.7-.755-4.385-.8-7.589-.042-2.679,0-5.036,0-5.036l76.691-7.945s.476,4.371.748,8.75c.245,3.91.329,7.841-.224,8.7-1.175,1.825-2.1,10.03-2.1,10.03l-34.635,12.5.385,9.505s1.958,17.451,1.958,19.269-.916,16.667-.916,16.667,4.686,6.994,4.2,8.729,4.029,6.5,4.029,6.5l7.813,14.849s1.441,5.344,2.217,5.861,4.308,8.218,4.308,8.218,5.2,7.952,5.2,8.47,3.777,6.644,3.777,6.644,2.735,4.294,2.861,5.6S898.9,662.246,898.9,662.246Z" transform="translate(-315.798 -174.041)"/><path class="g" d="M866.25,635.68s6.379,7.295,9.631,7.428S866.25,635.68,866.25,635.68Z" transform="translate(-330.026 -213.102)"/><path class="g" d="M901.06,735.271s19.269-9.9,16.786-5.337-9.505,6.994-9.505,6.994Z" transform="translate(-340.489 -241.072)"/><path class="g" d="M865.13,734.92s11.848.776,13.408,2.735C878.538,737.655,865.913,735.046,865.13,734.92Z" transform="translate(-329.689 -242.931)"/><path class="g" d="M865.31,740.69s10.813.392,14.324,1.951C879.634,742.641,868.178,742.25,865.31,740.69Z" transform="translate(-329.743 -244.666)"/><path class="i" d="M697.766,404.006l-3.427-1.567-5.427-2.476s-25.781-10.288-26.578-20.57,30.075,6.77,30.075,6.77a29.671,29.671,0,0,0,2.861,3.847,5.917,5.917,0,0,0,3,2.14C700.648,392.409,697.766,404.006,697.766,404.006Z" transform="translate(-268.728 -135.076)"/><path class="i" d="M903.341,325.881l-8.463,9.792-20.57-6.763-5.078-4.043,3.245-4.294c1.112-1.469,1.448-3.707,1.4-6.015a11.745,11.745,0,0,0-.07-1.567,39.991,39.991,0,0,0-1.455-7.652s29.292-7.428,27.207-1.308a10.89,10.89,0,0,0-.49,3.938,23.853,23.853,0,0,0,1.28,6.379,37.082,37.082,0,0,0,2.2,5.309Z" transform="translate(-330.922 -112.688)"/><path class="g" d="M900.907,303.965a10.887,10.887,0,0,0-.49,3.938,23.438,23.438,0,0,1-25.263,5.022,39.973,39.973,0,0,0-1.455-7.652S902.992,297.866,900.907,303.965Z" transform="translate(-332.265 -112.671)"/><path class="i" d="M901.762,275.6a14.769,14.769,0,0,1-.063,1.672,23.438,23.438,0,0,1-44.147,9.2A22.991,22.991,0,0,1,855.307,280a22.379,22.379,0,0,1-.427-4.406,23.194,23.194,0,0,1,.322-3.84,23.431,23.431,0,0,1,46.533,3.036C901.755,275.057,901.762,275.33,901.762,275.6Z" transform="translate(-326.608 -97.822)"/><path class="g" d="M903.341,331.356l-8.463,9.792-20.57-6.763-5.078-4.043,3.245-4.294c1.112-1.469,1.448-3.707,1.4-6.015l.937,7.183.224.224,1.343,1.343h1.693l3.259,4.427s4.686-3.77,5.078-2.868,6.77-1.56,6.77-1.56h.245c5.777-.245,6.784-8.848,6.784-8.848a1.377,1.377,0,0,1,.14-.1,37.052,37.052,0,0,0,2.2,5.309Z" transform="translate(-330.922 -118.163)"/><path class="g" d="M896.395,514.48c-.147.567-.308,1.119-.483,1.672-5.078,16.143-41.671,16.534-41.671,16.534L853.2,522.663l-3.5,6.77s-22.647-6.253-30.74-10.722c-.042-2.679,0-5.036,0-5.036l76.691-7.945S896.122,510.115,896.395,514.48Z" transform="translate(-315.807 -174.041)"/><path class="g" d="M711.527,409.985l-3.427-1.567c.79-3.721.93-11.107.951-12.429a5.917,5.917,0,0,0,3,2.14C714.409,398.389,711.527,409.985,711.527,409.985Z" transform="translate(-282.489 -141.056)"/><path class="f" d="M862.238,421.545s5.735,20.577.657,36.727-41.671,16.506-41.671,16.506l-1.042-10.023-3.5,6.777s-27.34-7.561-32.677-11.988S781.4,448.48,781.4,448.48s1.825-8.589,3.385-10.421,1.826-8.2,1.3-9.092,1.826-9.512,2.609-10.813-.133-36.069-.133-36.069-11.589,5.2-12.24,6.77S762,397.947,762,397.947s-12.89,1.567-15.233,1.567-15.24-1.567-15.24-1.567-3.5-.133-4.553-.909a13.436,13.436,0,0,0-3.392-1.434s-3.637-.783-4.686-2.21-9.792-6.253-9.792-6.253c1.693-1.042,1.826-14.688,1.826-14.688l16.534,4.036s1.049-2.21,2.609-1.3,11.072,1.672,11.072,1.672,7.945-1.56,8.337-.916,1.56.525,1.56.525,1.567-.133,1.567-.643,1.4.119,1.4.119l2.609.392s-.392-3.378.783-3.637a1.721,1.721,0,0,0,1.294-1.434s3.5-4.686,5.211-4.686,2.868-4.686,2.868-4.686l6.253-6.379s-.783-3.259,0-3.392.9-1.56.9-1.56.266-2.861,1.7-3.5,2.21-4.42,2.21-4.42,6.638-7.421,7.162-10.03a4.25,4.25,0,0,1,3.259-3.126,16.086,16.086,0,0,1,4.812-2.1c2.217-.392,8.078-1.049,8.078-1.049s10.673-.9,11.722-2.1,2.861-1.049,4.029-1.049a1.335,1.335,0,0,0,.7-.259c1.056-.657,2.315-2.49,3.574-3.644,1.56-1.434,4.294-.783,4.294-.783l1.175,8.988.217.217,1.343,1.343h1.693l3.259,4.434s4.686-3.777,5.078-2.868,6.77-1.567,6.77-1.567h.245c5.777-.245,6.784-8.841,6.784-8.841,2.868-2.483,5.344,7.945,5.344,7.945l.9.483c1.832,1.021,5.889,3.357,6.386,4.462.65,1.4,7.945,5.721,7.945,5.721Z" transform="translate(-282.79 -117.721)"/><path class="i" d="M919.965,506.876l-3.847,3.1-4.357,3.5s-8.078,18.884-19.143,13.548,14.828-25.088,14.828-25.088l3.581-1.735,3.966-1.916Z" transform="translate(-337.125 -171.802)"/><path class="g" d="M872.431,329.988a49.686,49.686,0,0,0-9.092,5.644l-.189-10.414c1.056-.664,2.315-2.49,3.574-3.651,1.56-1.4,4.294-.776,4.294-.776l1.175,8.981Z" transform="translate(-329.094 -118.411)"/><path class="j" d="M873.56,327.776a49.689,49.689,0,0,0-9.092,5.644l-.168-10.386c1.056-.657,2.315-2.49,3.574-3.644,1.56-1.434,4.294-.783,4.294-.783l1.175,8.988Z" transform="translate(-329.44 -117.751)"/><path class="g" d="M916.86,332.665c-2,5.358-4.49,11.289-4.938,9.016-.539-2.693-5.232-6.5-8.092-8.6,5.777-.238,6.784-8.841,6.784-8.841,2.868-2.476,5.344,7.945,5.344,7.945Z" transform="translate(-341.322 -119.374)"/><path class="j" d="M916.86,329.314c-2,5.358-4.49,11.289-4.938,9.016-.539-2.693-5.232-6.5-8.092-8.6,5.777-.245,6.784-8.841,6.784-8.841,2.868-2.483,5.344,7.945,5.344,7.945Z" transform="translate(-341.322 -118.366)"/><path class="g" d="M884.49,626.825s14.842-2.1,14.191,1.042S884.49,626.825,884.49,626.825Z" transform="translate(-335.509 -210.234)"/><path class="g" d="M850.23,553.081s5.861-3.126,11.072-1.818Z" transform="translate(-325.211 -187.631)"/><path class="g" d="M836.64,541.592s9.379-1.434,12.89.133Z" transform="translate(-321.126 -184.641)"/><path class="g" d="M891.974,572.57s-8.2,8.722-7.694,11.065Z" transform="translate(-335.439 -194.132)"/><path class="g" d="M780.756,405.2s-1.3,4.686,6.645,6.637Z" transform="translate(-304.304 -143.824)"/><path class="g" d="M777.44,416.74s9.792,8.722,5.211,8.988S777.44,416.74,777.44,416.74Z" transform="translate(-303.331 -147.293)"/><path class="g" d="M808.53,366.66s11.981,8.33,11.191,10.288S808.53,366.66,808.53,366.66Z" transform="translate(-312.676 -132.24)"/><path class="g" d="M929.068,506.87l-3.847,3.1c-.8-2.756-2.469-7.372-5.071-9.792l3.966-1.916Z" transform="translate(-346.227 -171.796)"/><path class="f" d="M930.248,350.922l5.211-3.252s5.987.909,6.77,13.289,6.253,37.111,6.253,37.111l2.993,27.466s1.042,5.211.133,7.813a28.534,28.534,0,0,0-1.4,4.686c-.133.916-7.295,5.344-7.162,11.072s-9.092,11.065-9.092,11.065-5.994,3.5-7.945,5.994c0,0-2.217-10.421-7.029-13.023s10.156-23.3,10.156-23.3Z" transform="translate(-345.589 -126.532)"/><path class="g" d="M916.431,465.65s-15.625,6.512-14.324,8.6S916.431,465.65,916.431,465.65Z" transform="translate(-340.781 -161.994)"/><path class="g" d="M920.045,477.56s-6.5,2.875-5.959,3.791S920.045,477.56,920.045,477.56Z" transform="translate(-344.395 -165.574)"/><path class="g" d="M914.835,485.38s-6.5,2.875-5.959,3.791S914.835,485.38,914.835,485.38Z" transform="translate(-342.829 -167.924)"/><path class="b" d="M676.68,246.08V443.316H875.2C874.294,334.382,785.81,246.3,676.68,246.08Z" transform="translate(-273.045 -95.996)"/><path class="g" d="M676.68,246.08V443.316H875.2C874.294,334.382,785.81,246.3,676.68,246.08Z" transform="translate(-273.045 -95.996)"/><path class="b" d="M676.68,240.5V437.736H875.2C874.294,328.795,785.81,240.717,676.68,240.5Z" transform="translate(-273.045 -94.318)"/><path class="i" d="M895.236,528.13a5.134,5.134,0,0,1,.923-3.021,4.93,4.93,0,0,1,2.224-1.245c.741-.245,1.49-.476,2.238-.7a5.7,5.7,0,0,1,1.8-.294,6.321,6.321,0,0,1,3.322,1.553,1.4,1.4,0,0,1,.476.5c.224.518-.259,1.056-.7,1.4a33.325,33.325,0,0,1-4.973,3.658,9.989,9.989,0,0,1-4.357,1.5C894.4,531.529,895.117,529.431,895.236,528.13Z" transform="translate(-338.666 -179.193)"/><path class="g" d="M901.762,275.59a14.77,14.77,0,0,1-.063,1.672,3.238,3.238,0,0,1-.308.182,9.027,9.027,0,0,0-1.154.511c-1.14.776-.881,2.469-.776,3.84a10.345,10.345,0,0,1-1.189,5.728,2.049,2.049,0,0,1-1.812-1.707,13.7,13.7,0,0,1-.112-2.679c-.112-2.392-1.4-4.525-2.238-6.777-1.553-4.315-1.21-9.092-2.245-13.548a5.62,5.62,0,0,0-1.909-3.5c-1.483-1.021-3.539-.574-5.134.259s-3.022,2.049-4.749,2.574c-2.665.8-5.5-.168-8.148-.993s-5.651-1.525-8.127-.259c-2.6,1.336-3.77,4.378-4.567,7.2a7.065,7.065,0,0,0-.371,2.406,21.57,21.57,0,0,1,.3,2.168c0,1.567-1.336,2.8-1.853,4.28-.322.916-.245,3.175-1.574,3.161a.847.847,0,0,1-.427-.133,22.379,22.379,0,0,1-.427-4.406,23.187,23.187,0,0,1,.322-3.84,23.431,23.431,0,0,1,46.532,3.036C901.755,275.051,901.762,275.324,901.762,275.59Z" transform="translate(-326.608 -97.816)"/><path class="k" d="M845.783,261.823c-.084-2.259,1.63-4.371,1.238-6.6-.308-1.742-1.818-3.007-2.553-4.616a5.6,5.6,0,0,1,.888-5.9c.573-.643,1.294-1.147,1.846-1.8,1.1-1.315,1.4-3.084,1.923-4.721s1.4-3.35,3.029-3.91c1.755-.6,3.812.378,5.5-.385a1.4,1.4,0,0,0,.86-.923,3.26,3.26,0,0,0-.091-.93c-.119-1.245,1.063-2.217,2.2-2.763,5.176-2.5,11.289-1.308,16.9-.07a11.115,11.115,0,0,1,.245-3.4c3.539.392,7.351.909,9.911,3.371,1.588,1.532,2.476,3.616,3.5,5.546s2.42,3.868,4.469,4.672a4.966,4.966,0,0,1,1.846.881,3.5,3.5,0,0,1,.7,1.175l1.343,3.308a3.679,3.679,0,0,0,.615,1.112,5.7,5.7,0,0,0,1.182.832c2.6,1.7,2.987,5.441,2.175,8.449s-2.5,5.728-3.147,8.778c-.378,1.8-.594,3.994-2.238,4.812a9.5,9.5,0,0,0-1.154.518c-1.14.769-.888,2.462-.776,3.833a10.372,10.372,0,0,1-1.182,5.728,2.042,2.042,0,0,1-1.812-1.707,13.663,13.663,0,0,1-.119-2.679c-.112-2.392-1.4-4.525-2.238-6.777-1.553-4.315-1.21-9.092-2.238-13.548a5.652,5.652,0,0,0-1.923-3.5c-1.483-1.028-3.539-.588-5.134.259s-3.015,2.042-4.742,2.567c-2.665.8-5.5-.161-8.155-1s-5.644-1.518-8.12-.252c-2.6,1.336-3.763,4.385-4.56,7.2a7.1,7.1,0,0,0-.385,2.406,21.819,21.819,0,0,1,.308,2.168c0,1.574-1.336,2.8-1.853,4.287-.322.916-.245,3.168-1.574,3.161-1.007,0-2.028-2.28-2.525-2.945C848.42,266.453,845.888,264.586,845.783,261.823Z" transform="translate(-323.338 -89.903)"/><g class="l" transform="translate(520.661 137.586)"><path d="M847.021,263.03c-.308-1.742-1.818-3-2.553-4.609a5.222,5.222,0,0,1-.413-1.441,5.448,5.448,0,0,0,.413,3c.7,1.595,2.2,2.847,2.539,4.553a4.519,4.519,0,0,0,.014-1.5Z" transform="translate(-843.998 -236.858)"/><path d="M864.724,233.762a.571.571,0,0,0,0-.112,1.734,1.734,0,0,0-.084.329.8.8,0,0,0,.084-.217Z" transform="translate(-850.203 -229.845)"/><path d="M891.929,228.371a1.241,1.241,0,0,1,0-.161c0,.049,0,.1,0,.154Z" transform="translate(-858.404 -228.21)"/><path d="M925.893,264.649c-.8,3.007-2.5,5.735-3.147,8.778-.378,1.8-.594,3.994-2.238,4.819a10.678,10.678,0,0,0-1.154.511c-.944.643-.93,1.916-.832,3.119a2.042,2.042,0,0,1,.832-1.553,9.5,9.5,0,0,1,1.154-.518c1.644-.818,1.86-3.014,2.238-4.812.643-3.049,2.343-5.77,3.147-8.778a10.629,10.629,0,0,0,.35-3.616,11.01,11.01,0,0,1-.35,2.049Z" transform="translate(-866.385 -238.547)"/><path d="M899.986,287a2.042,2.042,0,0,1-1.812-1.707,13.754,13.754,0,0,1-.119-2.686c-.112-2.385-1.4-4.525-2.238-6.77-1.553-4.315-1.21-9.092-2.238-13.548a5.652,5.652,0,0,0-1.923-3.5c-1.483-1.021-3.539-.581-5.134.259s-3.015,2.049-4.742,2.567c-2.665.8-5.5-.161-8.155-.993s-5.644-1.525-8.12-.252c-2.6,1.336-3.763,4.385-4.56,7.2a7.142,7.142,0,0,0-.385,2.413,2.951,2.951,0,0,0,.07.49,10.619,10.619,0,0,1,.315-1.336c.8-2.8,1.958-5.868,4.56-7.2,2.476-1.266,5.469-.581,8.12.252s5.49,1.8,8.155,1c1.728-.525,3.147-1.728,4.742-2.567s3.651-1.287,5.134-.259a5.543,5.543,0,0,1,1.923,3.5c1.028,4.469.7,9.232,2.238,13.548.8,2.252,2.1,4.385,2.238,6.777a13.649,13.649,0,0,0,.119,2.679,2.042,2.042,0,0,0,1.812,1.707,10.407,10.407,0,0,0,1.189-5.679A10.49,10.49,0,0,1,899.986,287Z" transform="translate(-848.976 -237.225)"/><path d="M854.8,281.774c-.322.916-.245,3.168-1.574,3.161-1.007,0-2.028-2.273-2.525-2.938-1.4-1.9-3.679-3.637-4.092-6.078a4.981,4.981,0,0,0-.063.965c.1,2.763,2.637,4.63,4.155,6.672.5.7,1.518,2.938,2.525,2.945,1.329,0,1.252-2.245,1.574-3.161.518-1.483,1.818-2.714,1.854-4.287a4.283,4.283,0,0,0-.1-.9C856.257,279.424,855.257,280.508,854.8,281.774Z" transform="translate(-844.764 -242.551)"/></g><rect class="b" width="2.35" height="2.392" transform="translate(69.767 312.364)"/><rect class="m" width="2.35" height="2.392" transform="translate(69.767 312.364)"/><rect class="b" width="2.294" height="2.665" transform="translate(268.892 115.365)"/><rect class="m" width="2.294" height="2.665" transform="translate(268.892 115.365)"/><path class="n" d="M401.672,396.766h0V199.53h-.413c-109.326,0-198.041,88.183-198.929,197.3Z" transform="translate(-130.465 -82.004)"/><path class="b" d="M401.672,396.766h0V199.53h-.413c-109.326,0-198.041,88.183-198.929,197.3Z" transform="translate(-130.465 -82.004)"/><path class="m" d="M401.672,396.766h0V199.53h-.413c-109.326,0-198.041,88.183-198.929,197.3Z" transform="translate(-130.465 -82.004)"/><path class="b" d="M398.672,393.766h0V196.53h-.413c-109.326,0-198.041,88.183-198.929,197.3Z" transform="translate(-129.563 -81.102)"/><path class="o" d="M398.672,393.766h0V196.53h-.413c-109.326,0-198.041,88.183-198.929,197.3Z" transform="translate(-129.563 -81.102)"/><path class="b" d="M594.1,677.37l2.931,1.839v3.5l-3.98-.616Z" transform="translate(-178.259 -203.601)"/><path class="g" d="M594.1,677.37l2.931,1.839v3.5l-3.98-.616Z" transform="translate(-178.259 -203.601)"/><path class="b" d="M194.448,679.2l-1.1.329v3.5l3.721-.811-.916-3.406Z" transform="translate(-58.117 -204.034)"/><path class="g" d="M194.448,679.2l-1.1.329v3.5l3.721-.811-.916-3.406Z" transform="translate(-58.117 -204.034)"/><path class="b" d="M437.248,517.46,292.93,656.561a198.9,198.9,0,0,0,283.531.112Z" transform="translate(-157.697 -177.567)"/><path class="b" d="M437.248,512.46,292.93,651.561a198.9,198.9,0,0,0,283.531.112Z" transform="translate(-157.697 -176.064)"/><path class="g" d="M437.248,512.46,292.93,651.561a198.9,198.9,0,0,0,283.531.112Z" transform="translate(-157.697 -176.064)"/><path class="b" d="M437.248,517.46,292.93,656.561a198.9,198.9,0,0,0,283.531.112Z" transform="translate(-157.697 -177.567)"/><path class="p" d="M382.99,473.647l4.8-3.287.7,1.4-5.483,4.008Z" transform="translate(-115.119 -141.378)"/><path class="g" d="M382.99,473.647l4.8-3.287.7,1.4-5.483,4.008Z" transform="translate(-115.119 -141.378)"/><path class="q" d="M376.872,467.227l5.071-1.867.7,1.4-8.652,2.917Z" transform="translate(-112.414 -139.875)"/><path class="g" d="M376.872,467.227l5.071-1.867.7,1.4-8.652,2.917Z" transform="translate(-112.414 -139.875)"/><path class="r" d="M375.634,459.154l5.358-.294v1.4l-9,.944.8-1.811Z" transform="translate(-111.813 -137.921)"/><path class="g" d="M375.634,459.154l5.358-.294v1.4l-9,.944.8-1.811Z" transform="translate(-111.813 -137.921)"/><path class="r" d="M399.117,490.36,205.133,534.535a199.61,199.61,0,0,1-4.553-42.49c0-.567,0-1.126,0-1.686Z" transform="translate(-129.939 -169.421)"/><path class="g" d="M399.117,490.36,205.133,534.535a199.61,199.61,0,0,1-4.553-42.49c0-.567,0-1.126,0-1.686Z" transform="translate(-129.939 -169.421)"/><path class="r" d="M399.117,492.36,205.133,536.535a199.609,199.609,0,0,1-4.553-42.49c0-.567,0-1.126,0-1.686Z" transform="translate(-129.939 -170.022)"/><path class="q" d="M207.59,541.021a197.061,197.061,0,0,0,20.227,53.694L401.574,496.86Z" transform="translate(-132.046 -171.375)"/><path class="g" d="M207.59,541.021a197.061,197.061,0,0,0,20.227,53.694L401.574,496.86Z" transform="translate(-132.046 -171.375)"/><path class="q" d="M208.59,543.021a197.06,197.06,0,0,0,20.227,53.694L402.574,498.86Z" transform="translate(-132.346 -171.976)"/><path class="p" d="M414.346,501.88l-173.456,97.7.084.154a198.891,198.891,0,0,0,32.453,43.427L414.71,501.88Z" transform="translate(-142.055 -172.884)"/><path class="g" d="M414.346,501.88l-173.456,97.7.084.154a198.891,198.891,0,0,0,32.453,43.427L414.71,501.88Z" transform="translate(-142.055 -172.884)"/><path class="p" d="M415.346,503.88l-173.456,97.7.084.154a198.893,198.893,0,0,0,32.453,43.427L415.71,503.88Z" transform="translate(-142.356 -173.485)"/></g></svg>