<svg xmlns="http://www.w3.org/2000/svg" xmlns:xlink="http://www.w3.org/1999/xlink" width="767" height="573.704" viewBox="0 0 767 573.704"><defs><style>.a,.d,.f,.g{fill:#6c63ff;}.a,.i,.u{opacity:0.1;}.b{fill:#e8e9ed;}.c,.e{fill:#3acc6c;}.c,.d,.m{opacity:0.5;}.e,.f,.l{opacity:0.8;}.h{fill:#f3f5f7;}.j{fill:none;stroke:#535461;stroke-miterlimit:10;stroke-width:2px;}.k{opacity:0.25;}.n{fill:#fff;}.o{fill:#ffd037;}.p{fill:#65617d;}.q{fill:#9d9cb5;}.r{fill:url(#a);}.s{fill:url(#b);}.t{fill:url(#c);}.v{fill:url(#d);}.w{fill:url(#e);}.x{fill:url(#f);}.y{fill:url(#g);}.z{fill:url(#h);}.aa{fill:url(#i);}.ab{fill:url(#j);}.ac{fill:url(#k);}.ad{fill:url(#l);}.ae{fill:url(#m);}.af{fill:url(#n);}.ag{fill:url(#o);}.ah{fill:url(#p);}.ai{fill:url(#q);}.aj{fill:url(#r);}.ak{fill:url(#s);}.al{fill:url(#t);}.am{fill:url(#u);}.an{fill:url(#v);}.ao{fill:url(#w);}.ap{fill:url(#x);}.aq{fill:url(#y);}.ar{fill:url(#z);}.as{fill:url(#aa);}.at{fill:url(#ab);}.au{fill:url(#ac);}.av{fill:url(#ad);}.aw{fill:url(#ae);}.ax{fill:url(#af);}.ay{fill:url(#ag);}.az{fill:url(#ah);}.ba{fill:url(#ai);}.bb{fill:#efb7b9;}.bc{fill:#444053;}.bd{fill:#e3787d;}</style><linearGradient id="a" x1="0.5" y1="1" x2="0.5" gradientUnits="objectBoundingBox"><stop offset="0" stop-color="gray" stop-opacity="0.251"/><stop offset="0.54" stop-color="gray" stop-opacity="0.122"/><stop offset="1" stop-color="gray" stop-opacity="0.102"/></linearGradient><linearGradient id="b" x1="0.5" y1="1" x2="0.5" y2="-0.001" xlink:href="#a"/><linearGradient id="c" x1="0.499" y1="1" x2="0.499" y2="-0.001" xlink:href="#a"/><linearGradient id="d" x1="0.5" y1="1" x2="0.5" y2="0" xlink:href="#a"/><linearGradient id="e" x1="0.5" y1="1" x2="0.5" y2="0" xlink:href="#a"/><linearGradient id="f" x1="0.5" y1="1" x2="0.5" y2="0" xlink:href="#a"/><linearGradient id="g" x1="0.5" y1="0.995" x2="0.5" y2="0" xlink:href="#a"/><linearGradient id="h" x1="0.5" y1="0.999" x2="0.5" y2="0.001" xlink:href="#a"/><linearGradient id="i" x1="0.5" y1="0.998" x2="0.5" y2="0" xlink:href="#a"/><linearGradient id="j" x1="0.5" y1="1" x2="0.5" y2="0" xlink:href="#a"/><linearGradient id="k" x1="0.5" y1="1" x2="0.5" y2="0" xlink:href="#a"/><linearGradient id="l" x1="0.5" y1="1" x2="0.5" y2="0" xlink:href="#a"/><linearGradient id="m" x1="0.5" y1="0.999" x2="0.5" y2="-0.001" xlink:href="#a"/><linearGradient id="n" x1="0.5" y1="1" x2="0.5" y2="0" xlink:href="#a"/><linearGradient id="o" x1="0.5" y1="1" x2="0.5" y2="-0.002" xlink:href="#a"/><linearGradient id="p" x1="0.5" y1="0.998" x2="0.5" y2="-0.002" xlink:href="#a"/><linearGradient id="q" x1="0.498" y1="1" x2="0.498" y2="0" xlink:href="#a"/><linearGradient id="r" x1="0.499" y1="0.999" x2="0.499" y2="-0.002" xlink:href="#a"/><linearGradient id="s" x1="0.5" y1="1" x2="0.5" y2="0.001" xlink:href="#a"/><linearGradient id="t" x1="0.5" y1="1" x2="0.5" y2="0" xlink:href="#a"/><linearGradient id="u" x1="0.498" y1="1.001" x2="0.498" y2="0" xlink:href="#a"/><linearGradient id="v" x1="0.498" y1="1" x2="0.498" y2="0" xlink:href="#a"/><linearGradient id="w" x1="0.511" y1="1.001" x2="0.511" y2="0" xlink:href="#a"/><linearGradient id="x" x1="0.5" y1="1.001" x2="0.5" y2="0.006" xlink:href="#a"/><linearGradient id="y" x1="0.5" y1="1" x2="0.5" y2="0" xlink:href="#a"/><linearGradient id="z" x1="0.5" y1="0.984" x2="0.5" y2="0" xlink:href="#a"/><linearGradient id="aa" x1="0.5" y1="1" x2="0.5" y2="0" xlink:href="#a"/><linearGradient id="ab" x1="0.5" y1="1" x2="0.5" y2="0" xlink:href="#a"/><linearGradient id="ac" x1="0.497" y1="1" x2="0.497" y2="0" xlink:href="#a"/><linearGradient id="ad" x1="0.499" y1="1" x2="0.499" y2="0" xlink:href="#a"/><linearGradient id="ae" x1="0.5" y1="0.999" x2="0.5" y2="-0.001" xlink:href="#a"/><linearGradient id="af" x1="0.501" y1="1" x2="0.501" y2="0" xlink:href="#a"/><linearGradient id="ag" x1="0.501" y1="1" x2="0.501" y2="0" xlink:href="#a"/><linearGradient id="ah" x1="0.5" y1="1.001" x2="0.5" y2="0" xlink:href="#a"/><linearGradient id="ai" x1="0.5" y1="1.001" x2="0.5" y2="0.001" xlink:href="#a"/></defs><g transform="translate(0 -0.001)"><path class="a" d="M511.938,133.276c-46.742-1.618-91.26-16.712-133.77-33.222S293.553,65.228,247.93,56.511c-29.344-5.633-62.906-6.428-86.544,9.309-22.743,15.138-30.109,41.3-34.06,65.52-2.976,18.243-4.723,37.447,3.423,54.528,5.662,11.859,15.7,21.826,22.649,33.179,24.173,39.527,7.085,88.263-19.1,126.851-12.278,18.1-26.542,35.389-36.024,54.636S84.4,441.881,92.7,461.54c8.219,19.5,27.813,34.118,49.039,44.409,43.109,20.908,93.889,26.888,143.441,30.283,109.655,7.5,219.888,4.254,329.832,1,40.69-1.2,81.553-2.419,121.579-8.71,22.23-3.5,45.175-9.042,61.317-22.432,20.482-16.994,25.559-45.767,11.83-67.08-23.024-35.743-86.667-44.619-102.779-82.976-8.854-21.118.238-44.633,13.115-64.213,27.618-42.012,73.9-78.867,76.339-126.88,1.676-32.977-20.576-66-54.983-81.611-36.061-16.358-86.074-14.3-112.667,12.769C601.357,123.981,553.2,134.713,511.938,133.276Z" transform="translate(-74.366 -52.82)"/><rect class="b" width="187.424" height="187.424" transform="translate(0 89.18)"/><rect class="b" width="187.424" height="187.424" transform="translate(579.576 89.18)"/><path class="c" d="M205.657,84.064l-1.871-1.914a.39.39,0,0,0-.3-.13.376.376,0,0,0-.3.13l-12.928,13-4.709-4.7a.4.4,0,0,0-.592,0l-1.885,1.885a.419.419,0,0,0,0,.607l5.937,5.929a1.856,1.856,0,0,0,1.235.607,1.964,1.964,0,0,0,1.235-.585h0L205.664,84.67a.455.455,0,0,0,0-.607Z" transform="translate(-100.653 -60.931)"/><path class="d" d="M190.269,66.558a19.059,19.059,0,1,1-13.491,5.583,19.059,19.059,0,0,1,13.491-5.583m0-2.968a22.035,22.035,0,1,0,15.595,6.453,22.049,22.049,0,0,0-15.595-6.453Z" transform="translate(-96.561 -55.811)"/><path class="e" d="M403.826,169.191l-2.354-2.412a.491.491,0,0,0-.368-.159.477.477,0,0,0-.376.159l-16.272,16.394-5.929-5.922a.505.505,0,0,0-.368-.159.52.52,0,0,0-.376.159l-2.376,2.376a.52.52,0,0,0,0,.758l7.468,7.453a2.34,2.34,0,0,0,1.56.758,2.477,2.477,0,0,0,1.546-.722h0l17.839-17.94a.571.571,0,0,0,0-.722Z" transform="translate(-154.067 -84.431)"/><path class="f" d="M384.445,147.144a24.014,24.014,0,1,1-16.987,7.034,24.012,24.012,0,0,1,16.987-7.034m0-3.734A27.755,27.755,0,1,0,412.2,171.165a27.755,27.755,0,0,0-27.755-27.755Z" transform="translate(-148.914 -77.984)"/><path class="d" d="M992.759,66.558a19.059,19.059,0,1,1-13.491,5.583,19.059,19.059,0,0,1,13.491-5.583m0-2.968a22.035,22.035,0,1,0,15.595,6.453,22.049,22.049,0,0,0-15.595-6.453Z" transform="translate(-319.475 -55.811)"/><path class="f" d="M792.809,147.144a24.008,24.008,0,1,0,.036,0m0-3.734a27.809,27.809,0,1,1-.036,0Z" transform="translate(-262.358 -77.984)"/><path class="g" d="M584.216,207.66a31.734,31.734,0,1,1-22.461,9.295,31.734,31.734,0,0,1,22.461-9.295m0-4.94a36.7,36.7,0,1,1-.007,0Z" transform="translate(-201.922 -94.459)"/><rect class="h" width="208.867" height="208.867" transform="translate(131.098 138.306)"/><rect class="h" width="208.867" height="208.867" transform="translate(426.017 138.306)"/><rect class="i" width="69.666" height="7.742" transform="translate(18.727 122.453)"/><rect class="i" width="69.666" height="7.742" transform="translate(613.304 122.453)"/><path class="j" d="M770.19,641.444s18.1-32.059,45.356-41.3A55.777,55.777,0,0,0,843.8,579.015,94.35,94.35,0,0,0,852.133,564" transform="translate(-263.775 -194.814)"/><path class="g" d="M900.622,550.652c-3.106,3.012-17.572,6.132-17.572,6.132s3.553-14.365,6.659-17.384a7.837,7.837,0,0,1,10.913,11.252Z" transform="translate(-295.125 -187.366)"/><path class="g" d="M889.106,585.853c-4.247.845-18.056-4.4-18.056-4.4s10.783-10.111,15.029-10.971a7.836,7.836,0,0,1,3.048,15.369Z" transform="translate(-291.792 -196.583)"/><path class="g" d="M849.653,624.927C845.565,623.483,836.27,612,836.27,612s14.444-3.3,18.511-1.885a7.838,7.838,0,1,1-5.128,14.813Z" transform="translate(-282.13 -207.526)"/><path class="g" d="M811.083,647.22C806.808,646.5,795.7,636.74,795.7,636.74s13.664-5.684,17.933-4.983a7.836,7.836,0,1,1-2.549,15.463Z" transform="translate(-270.861 -213.619)"/><path class="g" d="M854.314,567.169c0,4.333,7.829,16.878,7.829,16.878s7.829-12.545,7.829-16.871a7.836,7.836,0,1,0-15.672,0Z" transform="translate(-287.139 -193.52)"/><path class="g" d="M810.252,593.085c1.293,4.131,12.523,13.766,12.523,13.766s3.727-14.314,2.434-18.446a7.836,7.836,0,0,0-14.957,4.68Z" transform="translate(-274.803 -200.066)"/><path class="g" d="M771.243,625.474c.578,4.29,10.01,15.68,10.01,15.68s6.1-13.477,5.525-17.767a7.837,7.837,0,0,0-15.535,2.087Z" transform="translate(-264.048 -209.423)"/><path class="k" d="M900.622,550.652c-3.106,3.012-17.572,6.132-17.572,6.132s3.553-14.365,6.659-17.384a7.837,7.837,0,0,1,10.913,11.252Z" transform="translate(-295.125 -187.366)"/><path class="k" d="M889.106,585.853c-4.247.845-18.056-4.4-18.056-4.4s10.783-10.111,15.029-10.971a7.836,7.836,0,0,1,3.048,15.369Z" transform="translate(-291.792 -196.583)"/><path class="k" d="M849.653,624.927C845.565,623.483,836.27,612,836.27,612s14.444-3.3,18.511-1.885a7.838,7.838,0,1,1-5.128,14.813Z" transform="translate(-282.13 -207.526)"/><path class="k" d="M811.083,647.22C806.808,646.5,795.7,636.74,795.7,636.74s13.664-5.684,17.933-4.983a7.836,7.836,0,1,1-2.549,15.463Z" transform="translate(-270.861 -213.619)"/><path class="k" d="M854.314,567.169c0,4.333,7.829,16.878,7.829,16.878s7.829-12.545,7.829-16.871a7.836,7.836,0,1,0-15.672,0Z" transform="translate(-287.139 -193.52)"/><path class="k" d="M810.252,593.085c1.293,4.131,12.523,13.766,12.523,13.766s3.727-14.314,2.434-18.446a7.836,7.836,0,0,0-14.957,4.68Z" transform="translate(-274.803 -200.066)"/><path class="k" d="M771.243,625.474c.578,4.29,10.01,15.68,10.01,15.68s6.1-13.477,5.525-17.767a7.837,7.837,0,0,0-15.535,2.087Z" transform="translate(-264.048 -209.423)"/><path class="j" d="M771.63,630.347s3.561-36.638,24.729-56.131a55.842,55.842,0,0,0,17.268-30.788,94.1,94.1,0,0,0,1.538-17.088" transform="translate(-264.175 -184.353)"/><path class="g" d="M844.493,505.109c-1.618,4.016-13.578,12.726-13.578,12.726s-2.578-14.567-.961-18.583a7.837,7.837,0,0,1,14.538,5.857Z" transform="translate(-280.228 -175.464)"/><path class="g" d="M847.468,541.315c-3.539,2.492-18.308,3.308-18.308,3.308s5.778-13.636,9.3-16.12a7.836,7.836,0,0,1,9.013,12.812Z" transform="translate(-280.156 -184.594)"/><path class="g" d="M825.861,593.044c-4.333.361-17.471-6.392-17.471-6.392s11.844-8.862,16.156-9.223a7.836,7.836,0,1,1,1.315,15.616Z" transform="translate(-274.386 -198.537)"/><path class="g" d="M800.038,628.976c-4.2,1.083-18.308-3.351-18.308-3.351S791.913,614.893,796.1,613.8a7.835,7.835,0,1,1,3.936,15.168Z" transform="translate(-266.981 -208.578)"/><path class="g" d="M807.331,539.652c1.755,3.958,14,12.278,14,12.278s2.087-14.647.339-18.6a7.839,7.839,0,0,0-14.336,6.348Z" transform="translate(-273.905 -184.997)"/><path class="g" d="M777.541,581.177c2.889,3.25,17.03,7.511,17.03,7.511s-2.4-14.6-5.251-17.853a7.838,7.838,0,0,0-11.779,10.342Z" transform="translate(-265.276 -195.972)"/><path class="g" d="M755.008,626.608c2.261,3.691,15.506,10.284,15.506,10.284s.116-14.8-2.167-18.489a7.836,7.836,0,0,0-13.354,8.2Z" transform="translate(-259.231 -208.889)"/><rect class="i" width="69.666" height="7.742" transform="translate(158.058 182.889)"/><rect class="i" width="41.593" height="7.742" transform="translate(286.433 250.944)"/><rect class="i" width="61.591" height="7.742" transform="translate(286.433 302.9)"/><rect class="i" width="69.666" height="7.742" transform="translate(158.058 210.174)"/><rect class="i" width="69.666" height="7.742" transform="translate(471.553 182.889)"/><rect class="i" width="69.666" height="7.742" transform="translate(471.553 210.174)"/><path class="g" d="M584.66,259.692l1.95-2.557a10.111,10.111,0,0,0,7.02,2.889c3.293,0,5.734-1.611,5.734-4.218,0-2.831-2.34-4.694-8.826-4.694v-2.939c5.778,0,7.944-1.9,7.944-4.406,0-2.268-1.943-3.683-4.824-3.683a9.288,9.288,0,0,0-6.038,2.47l-2.073-2.47a12.631,12.631,0,0,1,8.269-3.214c4.991,0,8.667,2.4,8.667,6.6,0,2.961-2.167,4.9-5.287,5.966v.159c3.344.722,6.146,2.939,6.146,6.4,0,4.564-4.333,7.3-9.447,7.3A12.527,12.527,0,0,1,584.66,259.692Z" transform="translate(-212.239 -103.945)"/><g class="l" transform="translate(520.527 81.019)"><path class="g" d="M801.957,173.176c0-1.387.123-3.156.2-4.543h-.181c-.794,1.228-1.7,2.448-2.506,3.669l-5.778,7.41h15.34v2.983h-19.3v-2.528L801.249,165h4.239v24.115h-3.532Z" transform="translate(-789.73 -165)"/></g><g class="m" transform="translate(665.781 22.064)"><path class="g" d="M990.85,98.775l1.307-1.784a6.8,6.8,0,0,0,4.73,1.943c2.326,0,4.153-1.387,4.153-3.662s-1.611-3.5-4-3.5a6.117,6.117,0,0,0-3.409,1l-1.358-.874.549-8.529h10.111v2.347H995.2l-.426,4.673a7.107,7.107,0,0,1,3-.636c3.315,0,6.016,1.7,6.016,5.474s-3.163,5.973-6.579,5.973a8.876,8.876,0,0,1-6.363-2.427Z" transform="translate(-990.85 -83.37)"/></g><rect class="a" width="258.187" height="258.187" transform="translate(250.727 204.62)"/><rect class="n" width="258.187" height="258.187" transform="translate(259.393 192.342)"/><rect class="d" width="204.1" height="7.742" transform="translate(286.433 220.942)"/><rect class="i" width="129.964" height="7.742" transform="translate(286.433 276.922)"/><rect class="i" width="126.1" height="7.742" transform="translate(286.433 328.886)"/><rect class="i" width="171.896" height="7.742" transform="translate(286.433 354.864)"/><path class="c" d="M692.358,436.825l-.888-.917a.217.217,0,0,0-.144-.058.2.2,0,0,0-.137.058l-6.161,6.211-2.246-2.246a.231.231,0,0,0-.144-.058.21.21,0,0,0-.137.058l-.9.9a.2.2,0,0,0,0,.289l2.831,2.824a.75.75,0,0,0,1.177.007h0l6.753-6.782a.231.231,0,0,0,0-.289Z" transform="translate(-239.149 -159.217)"/><path class="c" d="M685.026,428.458a9.1,9.1,0,1,1-6.428,2.665,9.1,9.1,0,0,1,6.428-2.665m0-1.408a10.5,10.5,0,1,1,0,.014Z" transform="translate(-237.197 -156.773)"/><path class="c" d="M692.358,508.768l-.888-.91a.188.188,0,0,0-.144-.058.173.173,0,0,0-.137.058l-6.161,6.2-2.246-2.239a.2.2,0,0,0-.144-.065.188.188,0,0,0-.137.065l-.9.9a.2.2,0,0,0,0,.289l2.831,2.831a.9.9,0,0,0,.592.289.946.946,0,0,0,.585-.282h0l6.753-6.789a.231.231,0,0,0,0-.289Z" transform="translate(-239.149 -179.203)"/><path class="c" d="M685.026,500.444a9.1,9.1,0,1,1-6.428,2.665,9.1,9.1,0,0,1,6.428-2.665m0-1.444a10.508,10.508,0,1,0,10.5,10.506A10.508,10.508,0,0,0,685.026,499Z" transform="translate(-237.197 -176.759)"/><ellipse class="a" cx="51.574" cy="8.652" rx="51.574" ry="8.652" transform="translate(318.572 556.4)"/><path class="g" d="M197.063,746.19s2.687,3.517-1.242,8.833-7.179,9.793-5.864,13.108c0,0,5.929-9.865,10.761-10S202.371,752.127,197.063,746.19Z" transform="translate(-102.516 -245.422)"/><path class="i" d="M197.121,746.19a4.4,4.4,0,0,1,.549,1.105c4.709,5.539,7.222,10.7,2.694,10.833-4.218.123-9.281,7.663-10.494,9.569a3.383,3.383,0,0,0,.144.433s5.929-9.865,10.761-10S202.429,752.127,197.121,746.19Z" transform="translate(-102.575 -245.422)"/><path class="o" d="M206.591,752.094c0,1.242-.137,2.246-.311,2.246s-.311-1-.311-2.246.173-.657.347-.657S206.591,750.859,206.591,752.094Z" transform="translate(-107.047 -246.842)"/><path class="o" d="M208.394,754.117c-1.091.592-2.037.953-2.116.8s.722-.722,1.82-1.351.657-.159.722,0S209.477,753.524,208.394,754.117Z" transform="translate(-107.131 -247.384)"/><path class="g" d="M177.909,746.19s-2.694,3.517,1.242,8.833,7.172,9.793,5.864,13.108c0,0-5.937-9.865-10.761-10S172.593,752.127,177.909,746.19Z" transform="translate(-97.576 -245.422)"/><path class="i" d="M177.909,746.19a4.4,4.4,0,0,0-.549,1.105c-4.716,5.539-7.222,10.7-2.694,10.833,4.218.123,9.281,7.663,10.494,9.569-.043.145-.087.289-.144.433,0,0-5.937-9.865-10.761-10S172.593,752.127,177.909,746.19Z" transform="translate(-97.576 -245.422)"/><path class="o" d="M173.3,752.094c0,1.242.137,2.246.311,2.246s.311-1,.311-2.246-.173-.657-.347-.657S173.3,750.859,173.3,752.094Z" transform="translate(-97.972 -246.842)"/><path class="o" d="M170.68,754.117c1.083.592,2.029.953,2.116.8s-.722-.722-1.82-1.351-.657-.159-.722,0S169.59,753.524,170.68,754.117Z" transform="translate(-97.064 -247.384)"/><ellipse class="a" cx="28.131" cy="4.319" rx="28.131" ry="4.319" transform="translate(59.309 540.988)"/><path class="p" d="M198.973,769.369l-.137,1.105-.188,1.546-.079.65-.188,1.553-.079.65-.2,1.546L195.94,794.07c-.188,1.574-2.766,2.8-5.872,2.8H178.9c-3.106,0-5.677-1.228-5.864-2.8l-2.167-17.651-.188-1.546-.079-.65-.188-1.553-.079-.65-.188-1.546L170,769.369c-.108-.888,1.286-1.639,3.041-1.639h22.88C197.688,767.73,199.082,768.481,198.973,769.369Z" transform="translate(-97.053 -251.406)"/><path class="q" d="M129.894,718.7l-.188,1.553H101.4l-.2-1.553Z" transform="translate(-28.111 -199.639)"/><path class="q" d="M129.732,721.75l-.188,1.553H101.768l-.188-1.553Z" transform="translate(-28.217 -200.486)"/><path class="q" d="M129.568,724.79l-.2,1.553H102.138l-.188-1.553Z" transform="translate(-28.319 -201.33)"/><path class="i" d="M623.9,493.222c-.484-.989-4.333-13.722-4.333-13.722l-7.417-18.828s-4.5-24.779-11.216-18.6,3.611,21.017,3.611,21.017,4.24,10.833,4.023,13,2.362,10.111,2.362,10.111l-.838,4.564c-1.091-.072-1.8-.072-1.8-.072s-.664.953-1.3,1.018a.6.6,0,0,1-.318-.043,17.675,17.675,0,0,0-4.333-.26,9.707,9.707,0,0,1-3.243-1.04c-.419-.838-2.788-1.336-4.89-1.618-1.6-3.972-3.842-7.836-4.153-11.982a5.178,5.178,0,0,1,.635-3.264,4.084,4.084,0,0,1,.477-.592c.585-.592,1.3-1.112,1.95-1.661.325-.274.621-.556.9-.845,5.511-5.344,4.637-13.621-.361-19.348-5.778-6.623-31.836-20.872-39.722-8.667-1.1,1.7-1.134,3.676-1.444,5.568a23.212,23.212,0,0,1-6.226,12.278c-2.615,2.781-6.045,5.344-7.547,8.493l-.051-.116a8.409,8.409,0,0,0-.78,2.167c-.758,3.835,1.827,7.526,3.185,11.259a20.222,20.222,0,0,1,1,3.914l.087-.823a25.434,25.434,0,0,1,.339,5.778c-9.461,1.936-9.468,18.243-9.468,18.243s-1.163,6.5-.968,8.818.195,7.388.195,8.623-1.17,8.818-1.3,9.728c-.166,1-1.943,5.814,2.347,6.9.3.079.614.144.939.2.181,3.893.52,12.061.224,13.867,0,0,1.56,10.963,2.853,13.722a32.556,32.556,0,0,0,2.889,4.658,5.055,5.055,0,0,1-.657,1.885c-.657.961-.318,1.748.787,2.087q-.051.5-.13,1.127c-.469,4.232-1.177,12.632,0,16.893a42.93,42.93,0,0,1,1.748,7.778,5.778,5.778,0,0,0,.679,2.723c.722.975,1.95,10.017,1.95,11.476s3.308,14.589,2.333,17.7-.195,7.489-.195,7.489-.585,7.684-1.264,9.338-.975,28.3.094,35.208,1.755,12.646,1.755,12.646-.722,6.319-.1,7.222,1.654,6.132.874,6.421-1.163,2.434-1.163,2.434a21.38,21.38,0,0,0,1.329,1.813,7.342,7.342,0,0,1-.881-.376c.311.441.773,1.047,1.336,1.712l-.527,6.991a1.17,1.17,0,0,0,.867,1.228,9.707,9.707,0,0,0,9.663-2.737c4.861-4.962,6.5-4.276,7.4-7.294.087-.325.173-.636.238-.939a3.156,3.156,0,0,0-4.471-3.539,22.946,22.946,0,0,0,.318-5.908,88.651,88.651,0,0,1-.39-10.212l-.679-35.389s1.264-7,2.723-9.721,1.264-12.278,1.264-12.278l1.654-31.323,1.647-15.167s1.553-5.251,3.5.585c0,0-1.069,11.765-.578,14.589s1.163,16.532.679,19.551-2.629,19.551-1.264,23.732,2.817,9.237,2.528,10.891S572,701.865,572,701.865s2.622,6.9.679,9.143-.094,11.187-.094,11.187.231.166.636.4l-.058.722-.607,8.046a1.177,1.177,0,0,0,.867,1.228,9.721,9.721,0,0,0,9.663-2.737c4.861-4.962,6.5-4.283,7.4-7.294.087-.325.173-.643.246-.946a3.163,3.163,0,0,0-5.1-3.142.674.674,0,0,1-.108.094c-.123.108-.253.2-.383.3l-.188.123c.484-2.224,1.192-6.016.859-7.807-.484-2.629.484-10.6.484-10.6s2.824-9.533,2.889-13.325.78-30.333.78-30.333-.094-12.35.3-15.362,3.5-29.084,6.608-36.833c2.391-5.966,3.459-21.168,2.824-28.889-.036-.39-.072-.722-.108-1.1a11.564,11.564,0,0,0,4.211-7.569s-3.5-6.746-6.875-9.6-4.153-7.778-4.023-9.858a5.121,5.121,0,0,0-1.163-3.5s-1.56-5.056-2.6-5.576a.722.722,0,0,1-.224-.173c-.722-.766-.166-2.939-.166-2.939v-.065c.115-.506.874-3.77.628-4.608a33.216,33.216,0,0,1,.13-5.186s2.47-7.388,2.08-13.224,5.056-5.323,5.056-5.323l16.82-.173h1.914a14.1,14.1,0,0,0,2.167-2.318,4.636,4.636,0,0,0,3.719-.91C624.823,500.459,624.383,494.226,623.9,493.222Zm-78.224,50.556.123-2.961.657.563a4.739,4.739,0,0,1,0,2.369,2.528,2.528,0,0,1-1.444,1.647,1.612,1.612,0,0,0-.238.145l-.166-1.69c.686-.043,1.069-.08,1.069-.08Z" transform="translate(-197.181 -159.707)"/><path class="r" d="M635.149,499.385s9.577,6.161,13.2,2.889,3.178-9.584,2.687-10.581-4.391-13.816-4.391-13.816l-7.533-18.98s-4.579-24.982-11.411-18.778,3.683,21.183,3.683,21.183,4.333,10.927,4.088,13.116,2.4,10.205,2.4,10.205Z" transform="translate(-223.554 -160.128)"/><path class="s" d="M607.066,829.233c-.072.311-.152.628-.253.953-.888,3.041-2.571,2.354-7.511,7.352a9.916,9.916,0,0,1-9.822,2.759,1.184,1.184,0,0,1-.881-1.235l.621-8.11.3-3.907s7.865,2.21,11.873-.585c.13-.094.26-.188.383-.3l.115-.094a3.214,3.214,0,0,1,5.178,3.163Z" transform="translate(-213.332 -267.409)"/><path class="t" d="M572.9,824.992c-.065.311-.152.628-.246.953-.888,3.041-2.571,2.354-7.511,7.352a9.945,9.945,0,0,1-9.822,2.766,1.177,1.177,0,0,1-.881-1.242l.614-8.111.3-3.907s7.865,2.21,11.866-.585c.137-.094.26-.188.39-.3l.116-.094a3.207,3.207,0,0,1,5.171,3.163Z" transform="translate(-203.843 -266.23)"/><g class="u" transform="translate(349.751 559.816)"><path class="v" d="M564.428,828.116l.325,4.211c-4.521,4.478-9.894-2.167-11.483-4.377C557.408,830.073,564.428,828.116,564.428,828.116Z" transform="translate(-553.27 -827.95)"/></g><g class="u" transform="translate(375.888 559.051)"><path class="w" d="M601.023,829.533l.6-.39c-4.131,6.226-10.256,3.351-12.162,2.239l.3-3.907s7.865,2.21,11.873-.585C601.312,828.414,601.023,829.533,601.023,829.533Z" transform="translate(-589.46 -826.89)"/></g><path class="x" d="M600.461,654.465c-3.163,7.843-6.327,34.125-6.724,37.166s-.3,15.492-.3,15.492l-.823,30.593c-.094,3.828-2.961,13.433-2.961,13.433s-.989,8.046-.5,10.689-1.286,9.613-1.286,9.613l.6-.39c-4.947,7.446-12.754,1.856-12.754,1.856s-1.878-9.021.094-11.274-.686-9.216-.686-9.216.982-36.183,1.286-37.852-1.127-6.767-2.571-10.985.787-20.887,1.286-23.927-.2-16.864-.722-19.709.592-14.712.592-14.712c-1.979-5.879-3.561-.585-3.561-.585l-1.582,15.4-1.625,31.612s.2,9.606-1.286,12.35-2.766,9.808-2.766,9.808l.722,35.692a87.307,87.307,0,0,0,.4,10.3c.5,2.846-1.091,10.2-1.091,10.2-5.532,12.942-14.444-1.076-14.444-1.076s.39-2.167,1.184-2.456-.3-5.59-.888-6.5.094-7.222.094-7.222-.686-5.778-1.777-12.754-.787-33.829-.1-35.5,1.286-9.389,1.286-9.389-.787-4.413.2-7.554-2.376-16.373-2.376-17.846-1.286-10.588-1.979-11.556a5.777,5.777,0,0,1-.722-2.744,43.373,43.373,0,0,0-1.784-7.843c-1.228-4.333-.506-12.769,0-17.03.173-1.582.318-2.586.318-2.586s56.745-9.122,59.02-7.056c.534.477.888,2.167,1.091,4.521C603.971,633.123,602.88,648.456,600.461,654.465Z" transform="translate(-200.451 -210.536)"/><g class="u" transform="translate(378.553 487.861)"><path class="y" d="M593.15,728.479c.267,0,6.5.527,8.833.065S593.15,728.479,593.15,728.479Z" transform="translate(-593.15 -728.32)"/></g><g class="u" transform="translate(379.015 491.681)"><path class="z" d="M593.79,733.61s8.667,1.5,9.1.722S593.79,733.61,593.79,733.61Z" transform="translate(-593.79 -733.609)"/></g><g class="u" transform="translate(352.589 490.115)"><path class="aa" d="M557.2,731.44s4.478.2,6.919,1.307S557.2,731.44,557.2,731.44Z" transform="translate(-557.2 -731.44)"/></g><path class="ab" d="M534.66,579.137s.722,13.664.332,16.077c0,0,1.582,11.05,2.889,13.859a39.805,39.805,0,0,0,4.153,6.341l3.885-27.127-.9-9.288Z" transform="translate(-198.35 -198.981)"/><ellipse class="ac" cx="15.224" cy="15.102" rx="15.224" ry="15.102" transform="translate(361.949 287.712)"/><path class="ad" d="M576.462,481.683s-4.745,9.216-9.49,13.534,28.47,9.216,29.257,9.216-5.929-19.608-4.745-21.963S576.462,481.683,576.462,481.683Z" transform="translate(-207.197 -171.807)"/><g class="u" transform="translate(342.449 410.005)"><path class="ae" d="M603.588,625.33a9.87,9.87,0,0,1-2.441,1.358c-6.059,2.354-12.653,5.626-17.138,4.333s-13.968,0-13.968,0-19.117-1.574-22.938-.657a7.409,7.409,0,0,1-3.943.1c.173-1.582.318-2.586.318-2.586s56.745-9.122,59.02-7.056C603.032,621.285,603.386,622.953,603.588,625.33Z" transform="translate(-543.16 -620.518)"/></g><path class="af" d="M604.961,582.242s-.527,6.5-6.594,8.891-12.653,5.626-17.138,4.333-13.968,0-13.968,0-19.117-1.574-22.938-.657-5.778-.26-4.615-1.964,1.062-7.316,1.062-9.671-1.322-11.9-.137-13.6,2.239-8.233,4.615-9.281a2.564,2.564,0,0,0,1.481-1.661,4.673,4.673,0,0,0,0-2.391s-.4-.325-.953-.816c-1.394-1.235-3.763-3.532-3-4.283,1.054-1.047,0-7.851,0-7.851s-2.506-5.229-1.582-7.186-8.038-12.278-8.038-12.278,0-17.781,10.833-18.568c0,0,7.641.267,8.566-3.134s6.984-5.366,6.984-5.366l13.838,3.012s12.278,2.614,14.5,1.047,3.958,2.087,3.958,2.087,7.641.4,8.436,1.964-2.506,16.864-2.506,16.864-5.539-.52-5.142,5.366-2.109,13.332-2.109,13.332a31.057,31.057,0,0,0-.13,5.229c.267.9-.52,4.131-.643,4.644v.065s-.549,2.167.166,2.968a1.075,1.075,0,0,0,.231.173c1.055.52,2.636,5.619,2.636,5.619a5.15,5.15,0,0,1,1.192,3.532c-.13,2.094.657,7.056,4.081,9.938S604.961,582.242,604.961,582.242Z" transform="translate(-197.931 -176.136)"/><path class="ag" d="M545.137,562v.556l-.246,6.117s-8.1.65-12.523-.462-2.549-5.944-2.376-6.955h0c.13-.917,1.314-8.566,1.314-9.808s0-6.341-.2-8.667.989-8.891.989-8.891l.852-1.047,9.3,3.532Z" transform="translate(-196.903 -186.159)"/><g class="u" transform="translate(332.535 375.108)"><path class="ah" d="M545.117,573.5l-.246,6.117s-8.1.65-12.523-.462-2.549-5.944-2.376-6.955Z" transform="translate(-529.432 -572.2)"/></g><g class="u" transform="translate(347.88 374.14)"><path class="ai" d="M551.633,579.2a4.673,4.673,0,0,0,0-2.391s-.4-.325-.953-.816c6.984-.961,34.623-4.731,43.94-5.135v.065s-.549,2.167.166,2.968Z" transform="translate(-550.68 -570.86)"/></g><g class="u" transform="translate(388.115 387.241)"><path class="aj" d="M611.07,589s1.712,9.613-4.68,13A29.21,29.21,0,0,0,611.07,589Z" transform="translate(-606.39 -589)"/></g><g class="u" transform="translate(350.942 399.127)"><path class="ak" d="M554.92,606.817s15.419-2.614,18.453-.592S554.92,606.817,554.92,606.817Z" transform="translate(-554.92 -605.458)"/></g><g class="u" transform="translate(386.198 340.932)"><path class="al" d="M604.988,524.88s-2.369,9.671-.592,11.895S604.988,524.88,604.988,524.88Z" transform="translate(-603.735 -524.88)"/></g><g class="u" transform="translate(342.693 333.017)"><path class="am" d="M543.572,513.92s2.167,3.611.859,7.323S543.572,513.92,543.572,513.92Z" transform="translate(-543.497 -513.92)"/></g><path class="an" d="M537.4,557.55s2.766,1.639,1.842,4.189S537.4,557.55,537.4,557.55Z" transform="translate(-199.111 -193.023)"/><g class="u" transform="translate(338 357.074)"><path class="ao" d="M537,547.23s2.571,1.379,2.889,3.4S537,547.23,537,547.23Z" transform="translate(-537 -547.23)"/></g><g class="u" transform="translate(376.119 433.095)"><path class="ap" d="M589.78,654.657s16.149,1.64,19.377-2.167C609.157,652.5,594.59,655.379,589.78,654.657Z" transform="translate(-589.78 -652.49)"/></g><g class="u" transform="translate(348.241 434.352)"><path class="aq" d="M551.18,654.23s17.333,4.052,20.757.845C571.937,655.075,557.044,656.187,551.18,654.23Z" transform="translate(-551.18 -654.23)"/></g><g class="u" transform="translate(377.368 440.563)"><path class="ar" d="M591.51,662.83s7.222,0,10.609.2S591.51,662.83,591.51,662.83Z" transform="translate(-591.51 -662.83)"/></g><g class="u" transform="translate(349.426 443.632)"><path class="as" d="M552.82,667.08s3.561,3.987,7.576,3.272S552.82,667.08,552.82,667.08Z" transform="translate(-552.82 -667.08)"/></g><path class="at" d="M556.257,439.142c-1.119,1.719-1.156,3.7-1.444,5.612a23.342,23.342,0,0,1-6.327,12.415c-3.163,3.337-7.5,6.356-8.32,10.429-.773,3.871,1.856,7.591,3.235,11.353,3.611,9.931-1.444,20.338-2.925,30.586-.4,2.831.087,6.449,3.611,7.388a20.824,20.824,0,0,1,3.337.722,3.977,3.977,0,0,1,1.979,3.113,47.433,47.433,0,0,1,.9,12.8c-.159,2.412-.332,5.178,1.957,6.832a11.65,11.65,0,0,0,3.8,1.5c3.611.968,8.284,1.741,10.718-.52,1.026-.946,1.444-2.289,2.679-3.041,1.907-1.119,4.615-.361,7.02-.246a12.747,12.747,0,0,0,11.418-6.081c1.943-3.474,1.777-7.432,1.055-11.173s-1.964-7.439-2.058-11.223a6.5,6.5,0,0,1,.852-3.806c1.444-2.253,4.889-3.279,7.222-5.056,4.377-3.322,4.333-8.768,2.773-13.325s-4.449-8.912-4.8-13.621a5.171,5.171,0,0,1,.65-3.293,12.843,12.843,0,0,1,2.658-2.47c6.392-5.352,5.641-14.148.354-20.164C590.736,441.186,564.238,426.814,556.257,439.142Z" transform="translate(-199.841 -158.79)"/><g class="u" transform="translate(339.989 295.772)"><path class="au" d="M544.135,495.088a24.606,24.606,0,0,0-1-11.787c-.722-1.9-1.712-3.792-2.441-5.691a8.079,8.079,0,0,0-.794,2.167c-.78,3.864,1.856,7.583,3.236,11.353A20.528,20.528,0,0,1,544.135,495.088Z" transform="translate(-539.754 -466.589)"/><path class="av" d="M550.175,553.738a47.16,47.16,0,0,0-.91-12.8,3.986,3.986,0,0,0-1.972-3.113,19.6,19.6,0,0,0-3.344-.722,4.558,4.558,0,0,1-3.077-2.528c-.195,1-.375,1.993-.52,2.983-.412,2.831.079,6.449,3.611,7.388a21.079,21.079,0,0,1,3.344.722,3.986,3.986,0,0,1,1.972,3.113,47.039,47.039,0,0,1,.852,5.915C550.117,554.381,550.175,554.056,550.175,553.738Z" transform="translate(-539.886 -482.411)"/><path class="aw" d="M591.512,557.889A12.74,12.74,0,0,1,580.1,563.97c-2.4-.115-5.113-.874-7.02.246-1.271.722-1.661,2.094-2.679,3.041-2.434,2.261-7.107,1.488-10.718.52a11.557,11.557,0,0,1-3.8-1.5,4.666,4.666,0,0,1-1.871-3.019c0,1.343,0,2.694-.087,4.037-.159,2.405-.332,5.171,1.957,6.825a11.557,11.557,0,0,0,3.8,1.5c3.611.975,8.284,1.741,10.718-.52,1.018-.946,1.444-2.282,2.679-3.033,1.907-1.127,4.615-.368,7.02-.246a12.725,12.725,0,0,0,11.411-6.088c1.871-3.337,1.791-7.121,1.141-10.732a11.687,11.687,0,0,1-1.141,2.889Z" transform="translate(-543.668 -488.086)"/><path class="ax" d="M616.3,468.164a12.885,12.885,0,0,0-2.665,2.47,5.178,5.178,0,0,0-.643,3.293,17.021,17.021,0,0,0,.9,4.2,18.049,18.049,0,0,1,2.405-2.116,12.617,12.617,0,0,0,3.972-13.657A12.545,12.545,0,0,1,616.3,468.164Z" transform="translate(-560.084 -462.35)"/><path class="ay" d="M612.705,514.046c-2.34,1.769-5.778,2.795-7.222,5.056a6.451,6.451,0,0,0-.852,3.806,26.217,26.217,0,0,0,.563,4.55,5.164,5.164,0,0,1,.289-.513c1.444-2.246,4.882-3.279,7.222-5.056,3.994-3.033,4.333-7.836,3.149-12.119a9.151,9.151,0,0,1-3.149,4.276Z" transform="translate(-557.769 -475.522)"/></g><path class="az" d="M647.021,515.116c-2.7,6.8-6.2,9.476-6.2,9.476h-1.943l-17.1.173-1.979-5.359,2.773-11.556,1.7.108a9.892,9.892,0,0,0,3.293,1.047,18.253,18.253,0,0,1,4.413.26.57.57,0,0,0,.325.043c.643-.065,1.329-1.026,1.329-1.026S649.722,508.312,647.021,515.116Z" transform="translate(-222 -179.217)"/><g class="u" transform="translate(410.316 329.009)"><path class="ba" d="M651.834,515.26c-2.7,6.8-6.2,9.476-6.2,9.476h-1.943a89.654,89.654,0,0,1,3.987-9.5c.838-1.271-6.363-4.218-10.552-5.843.643-.065,1.329-1.026,1.329-1.026S654.536,508.457,651.834,515.26Z" transform="translate(-637.13 -508.37)"/></g><path class="bb" d="M634.51,502.205s9.389,6.11,13,2.846,3.127-9.5,2.643-10.494-4.333-13.722-4.333-13.722L638.4,462.006s-4.5-24.779-11.216-18.6,3.611,21.017,3.611,21.017,4.239,10.833,4.023,13,2.362,10.111,2.362,10.111Z" transform="translate(-223.421 -161.042)"/><path class="g" d="M606.88,829.373c-.072.3-.159.621-.246.946-.881,3.012-2.535,2.333-7.4,7.294a9.721,9.721,0,0,1-9.663,2.737,1.177,1.177,0,0,1-.867-1.228l.607-8.046.3-3.871s7.742,2.167,11.678-.585c.13-.094.26-.188.383-.3a.67.67,0,0,0,.108-.094,3.163,3.163,0,0,1,5.1,3.142Z" transform="translate(-213.363 -267.455)"/><path class="g" d="M573.232,825.172c-.065.3-.152.614-.238.939-.881,3.019-2.535,2.333-7.4,7.294a9.707,9.707,0,0,1-9.663,2.737,1.17,1.17,0,0,1-.867-1.228l.607-8.046.3-3.871s7.742,2.167,11.678-.585a4.46,4.46,0,0,0,.383-.289l.108-.1a3.163,3.163,0,0,1,5.092,3.149Z" transform="translate(-204.018 -266.288)"/><path class="i" d="M564.928,828.272l.318,4.182c-4.442,4.434-9.736-2.167-11.3-4.333C558.038,830.2,564.928,828.272,564.928,828.272Z" transform="translate(-203.708 -268.181)"/><path class="i" d="M600.932,829.672l.585-.383c-4.059,6.168-10.111,3.322-11.967,2.217l.3-3.871s7.742,2.167,11.678-.585C601.214,828.559,600.932,829.672,600.932,829.672Z" transform="translate(-213.597 -267.884)"/><path class="bc" d="M600.388,656.02c-3.113,7.778-6.226,33.843-6.608,36.833s-.3,15.362-.3,15.362l-.78,30.333c-.094,3.792-2.889,13.325-2.889,13.325s-.968,7.944-.484,10.6-1.264,9.533-1.264,9.533l.585-.39c-4.861,7.388-12.545,1.849-12.545,1.849s-1.849-8.948.094-11.187-.679-9.143-.679-9.143.975-35.887,1.264-37.556-1.17-6.709-2.528-10.891.78-20.721,1.264-23.732-.2-16.734-.679-19.551.578-14.589.578-14.589c-1.943-5.836-3.5-.585-3.5-.585l-1.56,15.268-1.683,31.352s.2,9.526-1.264,12.278-2.716,9.692-2.716,9.692l.679,35.389a88.665,88.665,0,0,0,.39,10.212c.484,2.817-1.069,10.111-1.069,10.111-5.445,12.834-14.2-1.069-14.2-1.069s.39-2.167,1.163-2.434-.289-5.547-.874-6.421.1-7.222.1-7.222-.722-5.742-1.755-12.646-.773-33.555-.094-35.208,1.264-9.338,1.264-9.338-.78-4.377.195-7.489-2.333-16.243-2.333-17.7-1.264-10.5-1.95-11.476a5.778,5.778,0,0,1-.679-2.723,42.922,42.922,0,0,0-1.748-7.778c-1.206-4.261-.5-12.661,0-16.893.173-1.567.318-2.564.318-2.564s55.828-9.042,58.067-7c.52.477.874,2.167,1.069,4.485C603.847,634.816,602.778,650.019,600.388,656.02Z" transform="translate(-200.703 -211.001)"/><path class="i" d="M593.19,729.44c.26,0,6.421.52,8.667.065S593.19,729.44,593.19,729.44Z" transform="translate(-214.608 -240.727)"/><path class="i" d="M593.82,734.53s8.493,1.495,8.948.722S593.82,734.53,593.82,734.53Z" transform="translate(-214.783 -242.183)"/><path class="i" d="M557.82,732.38s4.406.2,6.8,1.293S557.82,732.38,557.82,732.38Z" transform="translate(-204.783 -241.586)"/><path class="bb" d="M535.64,581.32s.722,13.549.325,15.947c0,0,1.56,10.963,2.853,13.722a39.777,39.777,0,0,0,4.088,6.291l3.828-26.881-.9-9.208Z" transform="translate(-198.622 -199.589)"/><circle class="bb" cx="14.979" cy="14.979" r="14.979" transform="translate(362.245 290.045)"/><path class="bb" d="M576.763,484.664s-4.666,9.136-9.338,13.419,28.015,9.143,28.795,9.143-5.836-19.457-4.673-21.789S576.763,484.664,576.763,484.664Z" transform="translate(-207.324 -172.634)"/><path class="i" d="M603.453,627.151a9.789,9.789,0,0,1-2.4,1.351c-5.966,2.333-12.451,5.576-16.864,4.276s-13.722,0-13.722,0-18.778-1.553-22.562-.65a7.273,7.273,0,0,1-3.907.079c.173-1.567.318-2.564.318-2.564s55.828-9.042,58.067-7C602.9,623.121,603.258,624.775,603.453,627.151Z" transform="translate(-200.944 -211.021)"/><path class="g" d="M604.814,584.38s-.52,6.5-6.5,8.818-12.451,5.576-16.864,4.283-13.722,0-13.722,0-18.778-1.56-22.562-.65-5.706-.26-4.543-1.95,1.04-7.222,1.04-9.591-1.3-11.8-.13-13.491,2.167-8.168,4.543-9.208a2.528,2.528,0,0,0,1.444-1.647,4.739,4.739,0,0,0,0-2.369s-.39-.325-.939-.809c-1.372-1.228-3.7-3.5-2.947-4.247,1.033-1.04,0-7.786,0-7.786s-2.47-5.186-1.56-7.128-7.944-12.191-7.944-12.191,0-17.637,10.638-18.417c0,0,7.518.26,8.428-3.113s6.876-5.316,6.876-5.316l13.614,2.983s12.061,2.593,14.264,1.04,3.864,2.066,3.864,2.066,7.518.39,8.3,1.943-2.463,16.727-2.463,16.727-5.446-.513-5.056,5.323-2.08,13.224-2.08,13.224a31.264,31.264,0,0,0-.13,5.186c.26.9-.513,4.1-.628,4.608v.065s-.534,2.167.166,2.939a.722.722,0,0,0,.224.173c1.04.513,2.6,5.576,2.6,5.576a5.12,5.12,0,0,1,1.163,3.5c-.13,2.08.65,7.006,4.023,9.858S604.814,584.38,604.814,584.38Z" transform="translate(-198.203 -176.917)"/><path class="g" d="M545.973,564.307v.549l-.238,6.067s-7.944.65-12.278-.455-2.513-5.893-2.347-6.9c.13-.91,1.3-8.5,1.3-9.728s0-6.291-.2-8.623.968-8.818.968-8.818l.845-1.04,9.143,3.5Z" transform="translate(-197.22 -186.859)"/><path class="i" d="M545.943,575.706l-.238,6.067s-7.944.65-12.278-.455-2.513-5.893-2.347-6.9Z" transform="translate(-197.211 -197.709)"/><path class="i" d="M552.3,581.393a4.736,4.736,0,0,0,0-2.369s-.39-.325-.939-.809c6.876-.953,34.067-4.687,43.232-5.056v.065s-.534,2.167.166,2.939Z" transform="translate(-202.989 -197.359)"/><path class="i" d="M610.811,591.06s1.69,9.533-4.6,12.906A28.948,28.948,0,0,0,610.811,591.06Z" transform="translate(-218.225 -202.331)"/><path class="i" d="M555.57,608.772s15.167-2.593,18.157-.585S555.57,608.772,555.57,608.772Z" transform="translate(-204.158 -206.877)"/><path class="i" d="M604.835,527.5s-2.333,9.6-.585,11.8S604.835,527.5,604.835,527.5Z" transform="translate(-217.5 -184.675)"/><path class="i" d="M544.408,516.64a9.312,9.312,0,0,1,.845,7.258C543.931,527.6,544.408,516.64,544.408,516.64Z" transform="translate(-201.034 -181.659)"/><path class="g" d="M538.34,559.91s2.723,1.625,1.813,4.153S538.34,559.91,538.34,559.91Z" transform="translate(-199.372 -193.678)"/><path class="i" d="M538,549.68s2.528,1.358,2.853,3.366S538,549.68,538,549.68Z" transform="translate(-199.278 -190.836)"/><path class="i" d="M589.87,656.217s15.889,1.625,19.059-2.167C608.929,654.079,594.6,656.9,589.87,656.217Z" transform="translate(-213.686 -219.828)"/><path class="i" d="M551.89,655.79s17.052,4.023,20.424.845C572.314,656.664,557.661,657.74,551.89,655.79Z" transform="translate(-203.136 -220.311)"/><path class="i" d="M591.57,664.32s7.136,0,10.443.2S591.57,664.32,591.57,664.32Z" transform="translate(-214.158 -222.681)"/><path class="i" d="M553.51,668.54s3.5,3.958,7.453,3.243S553.51,668.54,553.51,668.54Z" transform="translate(-203.586 -223.853)"/><path class="bd" d="M556.85,442.426c-1.1,1.7-1.134,3.676-1.444,5.568a23.211,23.211,0,0,1-6.226,12.278c-3.106,3.308-7.374,6.3-8.183,10.342-.758,3.835,1.827,7.526,3.185,11.259,3.611,9.844-1.444,20.172-2.889,30.333-.4,2.809.079,6.4,3.539,7.331a19.023,19.023,0,0,1,3.293.722,3.943,3.943,0,0,1,1.936,3.084,47.282,47.282,0,0,1,.9,12.7c-.159,2.391-.332,5.135,1.921,6.782a11.629,11.629,0,0,0,3.741,1.488c3.553.961,8.147,1.719,10.544-.52,1-.939,1.379-2.268,2.636-3.012,1.878-1.112,4.543-.361,6.9-.246a12.516,12.516,0,0,0,11.23-6.031c1.914-3.452,1.748-7.367,1.04-11.079s-1.936-7.381-2.022-11.137a6.435,6.435,0,0,1,.838-3.77c1.444-2.239,4.8-3.257,7.107-5.012,4.333-3.293,4.29-8.667,2.73-13.217s-4.384-8.84-4.731-13.513a5.179,5.179,0,0,1,.635-3.264,13.13,13.13,0,0,1,2.68-2.391c6.291-5.308,5.547-14.033.347-20C590.795,444.484,564.722,430.235,556.85,442.426Z" transform="translate(-200.072 -159.719)"/><g class="u" transform="translate(340.637 298.04)"><path d="M544.969,497.953a24.678,24.678,0,0,0-1-11.693c-.679-1.885-1.676-3.756-2.405-5.641a8.413,8.413,0,0,0-.78,2.167c-.758,3.835,1.827,7.526,3.185,11.259a20.226,20.226,0,0,1,1,3.907Z" transform="translate(-540.651 -469.693)"/><path d="M550.887,556.126a47.283,47.283,0,0,0-.9-12.7,3.943,3.943,0,0,0-1.935-3.084,19.017,19.017,0,0,0-3.293-.722,4.521,4.521,0,0,1-3.026-2.506c-.2.982-.368,1.972-.513,2.954-.4,2.809.079,6.4,3.539,7.331a19.023,19.023,0,0,1,3.293.722,3.955,3.955,0,0,1,1.936,3.091,47.564,47.564,0,0,1,.838,5.865C550.844,556.754,550.865,556.437,550.887,556.126Z" transform="translate(-540.777 -485.384)"/><path d="M591.6,560.207a12.509,12.509,0,0,1-11.231,6.031c-2.362-.116-5.056-.867-6.9.246-1.249.722-1.632,2.073-2.636,3.012-2.4,2.239-6.991,1.481-10.544.52a11.376,11.376,0,0,1-3.734-1.5,4.709,4.709,0,0,1-1.849-2.99c0,1.329,0,2.665-.079,3.994-.159,2.391-.332,5.135,1.928,6.782a11.557,11.557,0,0,0,3.734,1.488c3.553.961,8.147,1.719,10.544-.513,1-.946,1.387-2.275,2.636-3.019,1.878-1.112,4.543-.361,6.9-.246a12.509,12.509,0,0,0,11.231-6.031c1.842-3.315,1.762-7.063,1.119-10.646a11.755,11.755,0,0,1-1.12,2.867Z" transform="translate(-544.507 -491.004)"/><path d="M615.959,471.253a12.727,12.727,0,0,0-2.622,2.448,5.178,5.178,0,0,0-.636,3.264,17.459,17.459,0,0,0,.9,4.167,17.069,17.069,0,0,1,2.362-2.1,12.6,12.6,0,0,0,3.907-13.542A12.408,12.408,0,0,1,615.959,471.253Z" transform="translate(-560.652 -465.49)"/><path d="M612.426,516.759c-2.3,1.755-5.662,2.773-7.107,5a6.5,6.5,0,0,0-.838,3.777,26.5,26.5,0,0,0,.556,4.514,3.471,3.471,0,0,1,.282-.506c1.444-2.239,4.8-3.257,7.107-5.012,3.929-3.012,4.261-7.771,3.1-12.018A9.129,9.129,0,0,1,612.426,516.759Z" transform="translate(-558.375 -478.554)"/></g><path class="g" d="M646.19,517.809c-2.658,6.746-6.1,9.389-6.1,9.389h-1.914l-16.82.173-1.943-5.316,2.723-11.476,1.683.065a9.707,9.707,0,0,0,3.243,1.04,17.63,17.63,0,0,1,4.333.26.6.6,0,0,0,.318.043c.636-.065,1.3-1.018,1.3-1.018S648.841,511.064,646.19,517.809Z" transform="translate(-221.892 -179.975)"/><path class="i" d="M650.926,517.976c-2.658,6.746-6.1,9.389-6.1,9.389h-1.914c1-2.672,3.105-8.154,3.929-9.389s-6.262-4.182-10.378-5.778c.636-.065,1.3-1.018,1.3-1.018S653.577,511.231,650.926,517.976Z" transform="translate(-226.628 -180.142)"/></g></svg>